<svg width="64" height="64" viewBox="0 0 64 64" fill="none" xmlns="http://www.w3.org/2000/svg">
<path d="M15.7 23C6.6 26.4 0 32.3 0 37C0 42 9 44 32 44C55 44 64 42 64 37C64 28.05 39.76 13.83 15.7 23ZM46.91 24.63C46.8577 26.3327 46.551 28.0181 46 29.63C45.3812 27.8189 45.0439 25.9235 45 24.01C45.17 24 45.67 24.16 46.91 24.61V24.63ZM33 22C33.0238 24.2362 32.6861 26.4616 32 28.59C31.3139 26.4616 30.9762 24.2362 31 22C31.67 22 32.09 22 33 22ZM19 24C18.954 25.9067 18.6168 27.7952 18 29.6C17.449 27.9881 17.1423 26.3027 17.09 24.6C17.72 24.38 18.23 24.21 19 24ZM32 42C24.58 42 2 42 2 37C2 33.85 6.89 28.77 15.14 25.36C15.41 28.65 16.14 32 18 32C20.36 32 20.87 26.49 21 23.41C23.6216 22.7363 26.2995 22.3045 29 22.12C29.08 25.12 29.55 31 32 31C34.45 31 34.9 25.13 35 22.12C37.7005 22.3045 40.3784 22.7363 43 23.41C43.1 26.49 43.61 32 46 32C47.86 32 48.59 28.65 48.86 25.36C57.11 28.76 62 33.85 62 37C62 42 39.42 42 32 42Z" fill="#FF0000"/>
</svg>
