<svg width="64" height="64" viewBox="0 0 64 64" fill="none" xmlns="http://www.w3.org/2000/svg">
<path d="M64 29C64 25 61.9 25 59 25C58.6649 25.006 58.3307 25.0361 58 25.09C56.6453 22.5672 54.3657 20.6676 51.64 19.79C51.9032 19.0989 52.0099 18.3581 51.9523 17.6209C51.8948 16.8837 51.6744 16.1685 51.3071 15.5267C50.9398 14.8849 50.4348 14.3326 49.8283 13.9095C49.2219 13.4864 48.5291 13.2031 47.8 13.08C47 6.82996 43.76 4.31996 43.6 4.19996C43.3878 4.0395 43.1206 3.9699 42.8571 4.00647C42.5936 4.04304 42.3555 4.18278 42.195 4.39496C42.0345 4.60713 41.9649 4.87435 42.0015 5.13784C42.0381 5.40133 42.1778 5.6395 42.39 5.79996C42.52 5.88996 45.08 7.94996 45.81 13.16C45.1248 13.3304 44.4834 13.6441 43.9282 14.0803C43.3729 14.5165 42.9163 15.0654 42.5885 15.6908C42.2607 16.3162 42.0691 17.0039 42.0262 17.7088C41.9834 18.4136 42.0903 19.1195 42.34 19.78C41.5772 20.0443 40.8407 20.379 40.14 20.78C39.0927 19.9232 37.9098 19.2473 36.64 18.78C36.9104 18.0882 37.0234 17.3448 36.9706 16.6039C36.9177 15.8631 36.7005 15.1432 36.3347 14.4968C35.9689 13.8504 35.4636 13.2936 34.8557 12.8669C34.2477 12.4402 33.5523 12.1543 32.82 12.03C32 5.82996 28.76 3.31996 28.6 3.19996C28.4949 3.12051 28.3753 3.06253 28.2478 3.02933C28.1203 2.99613 27.9876 2.98836 27.8571 3.00647C27.7266 3.02458 27.601 3.06821 27.4874 3.13486C27.3738 3.20152 27.2744 3.2899 27.195 3.39496C27.1155 3.50001 27.0576 3.61969 27.0244 3.74716C26.9912 3.87462 26.9834 4.00738 27.0015 4.13784C27.0196 4.26831 27.0632 4.39393 27.1299 4.50754C27.1966 4.62114 27.2849 4.72051 27.39 4.79996C27.52 4.88996 30.08 6.94996 30.81 12.16C30.1205 12.3316 29.4754 12.6482 28.9179 13.0888C28.3604 13.5293 27.9031 14.0836 27.5767 14.7148C27.2502 15.3459 27.062 16.0394 27.0247 16.749C26.9873 17.4586 27.1016 18.168 27.36 18.83C26.0889 19.2945 24.9055 19.9707 23.86 20.83C23.1593 20.429 22.4228 20.0943 21.66 19.83C21.9214 19.1395 22.0267 18.3997 21.9682 17.6637C21.9098 16.9277 21.6891 16.2138 21.3219 15.5733C20.9548 14.9327 20.4504 14.3814 19.8449 13.959C19.2394 13.5365 18.5479 13.2534 17.82 13.13C17 6.82996 13.76 4.31996 13.6 4.19996C13.3878 4.0395 13.1206 3.9699 12.8571 4.00647C12.5936 4.04304 12.3555 4.18278 12.195 4.39496C12.0345 4.60713 11.9649 4.87435 12.0015 5.13784C12.0381 5.40133 12.1778 5.6395 12.39 5.79996C12.52 5.88996 15.08 7.94996 15.81 13.16C15.1236 13.3302 14.481 13.6441 13.9249 14.081C13.3687 14.5179 12.9116 15.0678 12.5836 15.6944C12.2557 16.321 12.0644 17.0101 12.0224 17.716C11.9804 18.422 12.0886 19.1289 12.34 19.79C9.62178 20.672 7.35 22.5712 6 25.09C5.66925 25.0361 5.33506 25.006 5 25C2.1 25 0 25 0 29C0 30.91 2 33 5.37 35C1.31 35 1 39.83 4.09 40.84C5.01 45.84 14.15 49.84 26.4 50.79C26.5095 50.875 26.6355 50.9363 26.77 50.97C29.09 51.53 27.82 53.73 25.72 54.97H24C19.36 54.97 17.72 60.97 20 60.97H44C46.28 60.97 44.65 54.97 40 54.97H38.28C36.76 54.08 36 53.06 36 52C36 51.17 37.28 51 37.61 50.76C49.85 49.82 58.99 45.83 59.91 40.81C63 39.86 62.77 35 58.63 35C62.05 33 64 30.91 64 29ZM46 15.19C46 15.46 46 15.72 46 16C46 16.2652 46.1054 16.5195 46.2929 16.7071C46.4804 16.8946 46.7348 17 47 17C47.2652 17 47.5196 16.8946 47.7071 16.7071C47.8946 16.5195 48 16.2652 48 16C48 15.71 48 15.45 48 15.18C48.6672 15.4159 49.2296 15.88 49.5876 16.4904C49.9457 17.1008 50.0765 17.8182 49.9568 18.5157C49.8371 19.2132 49.4747 19.8459 48.9337 20.3021C48.3926 20.7582 47.7077 21.0084 47 21.0084C46.2923 21.0084 45.6074 20.7582 45.0663 20.3021C44.5253 19.8459 44.1629 19.2132 44.0432 18.5157C43.9235 17.8182 44.0543 17.1008 44.4124 16.4904C44.7704 15.88 45.3328 15.4159 46 15.18V15.19ZM50.55 21.53C52.8121 22.1376 54.7683 23.5629 56.04 25.53C53.04 26.45 49.12 28.2 43.95 29.48C44.0913 28.1772 43.9608 26.8594 43.5666 25.6097C43.1724 24.3601 42.5232 23.2058 41.66 22.22C42.2429 21.9211 42.8522 21.6767 43.48 21.49C44.4115 22.4265 45.6758 22.9565 46.9967 22.964C48.3177 22.9714 49.5879 22.4559 50.53 21.53H50.55ZM22.18 30C21.27 25.74 24.18 21.94 28.5 20.57C29.4346 21.4861 30.6912 21.9992 32 21.9992C33.3088 21.9992 34.5654 21.4861 35.5 20.57C39.8 21.93 42.73 25.73 41.82 30C35.3429 31.3499 28.6571 31.3499 22.18 30V30ZM31 14.19C31 14.46 31 14.72 31 15C31 15.2652 31.1054 15.5195 31.2929 15.7071C31.4804 15.8946 31.7348 16 32 16C32.2652 16 32.5196 15.8946 32.7071 15.7071C32.8946 15.5195 33 15.2652 33 15C33 14.71 33 14.45 33 14.18C33.6672 14.4159 34.2296 14.88 34.5876 15.4904C34.9457 16.1008 35.0765 16.8182 34.9568 17.5157C34.8371 18.2132 34.4747 18.8459 33.9337 19.3021C33.3926 19.7582 32.7077 20.0084 32 20.0084C31.2923 20.0084 30.6074 19.7582 30.0663 19.3021C29.5253 18.8459 29.1629 18.2132 29.0432 17.5157C28.9235 16.8182 29.0543 16.1008 29.4124 15.4904C29.7704 14.88 30.3328 14.4159 31 14.18V14.19ZM16 15.19C16 15.46 16 15.72 16 16C16 16.2652 16.1054 16.5195 16.2929 16.7071C16.4804 16.8946 16.7348 17 17 17C17.2652 17 17.5196 16.8946 17.7071 16.7071C17.8946 16.5195 18 16.2652 18 16C18 15.71 18 15.45 18 15.18C18.6672 15.4159 19.2296 15.88 19.5876 16.4904C19.9457 17.1008 20.0765 17.8182 19.9568 18.5157C19.8371 19.2132 19.4747 19.8459 18.9337 20.3021C18.3926 20.7582 17.7077 21.0084 17 21.0084C16.2923 21.0084 15.6074 20.7582 15.0663 20.3021C14.5253 19.8459 14.1629 19.2132 14.0432 18.5157C13.9235 17.8182 14.0543 17.1008 14.4124 16.4904C14.7704 15.88 15.3328 15.4159 16 15.18V15.19ZM13.49 21.53C14.4276 22.4673 15.6992 22.9939 17.025 22.9939C18.3508 22.9939 19.6224 22.4673 20.56 21.53C21.1878 21.7167 21.7971 21.9611 22.38 22.26C21.5152 23.2448 20.865 24.399 20.4707 25.6489C20.0765 26.8988 19.9468 28.2172 20.09 29.52C14.88 28.23 11 26.49 8 25.57C9.25956 23.5918 11.2089 22.1521 13.47 21.53H13.49ZM42.83 59H21.17C21.3769 58.4148 21.7602 57.9082 22.267 57.55C22.7739 57.1918 23.3793 56.9996 24 57H40C40.6207 56.9996 41.2261 57.1918 41.733 57.55C42.2398 57.9082 42.6231 58.4148 42.83 59V59ZM35.16 55H28.84C29.3404 54.4785 29.6902 53.8313 29.8522 53.127C30.0141 52.4226 29.9823 51.6876 29.76 51C31.38 51 32.59 51 34.24 51C34.0177 51.6876 33.9858 52.4226 34.1478 53.127C34.3098 53.8313 34.6596 54.4785 35.16 55ZM32 49C17.64 49 7.63 45 6.19 41H57.81C56.37 45 46.36 49 32 49ZM59 39H5C4.73478 39 4.48043 38.8946 4.29289 38.7071C4.10536 38.5195 4 38.2652 4 38C4 37.7347 4.10536 37.4804 4.29289 37.2929C4.48043 37.1053 4.73478 37 5 37H59C59.2652 37 59.5196 37.1053 59.7071 37.2929C59.8946 37.4804 60 37.7347 60 38C60 38.2652 59.8946 38.5195 59.7071 38.7071C59.5196 38.8946 59.2652 39 59 39ZM54 35H10C4.13 32.58 2 30.09 2 29C2 27 2 27 5 27C6.22 27 8.18 27.71 10.66 28.62C26.78 34.49 37.2 34.49 53.34 28.62C55.82 27.71 57.78 27 59 27C62 27 62 27 62 29C62 30.09 59.87 32.58 54.05 35H54Z" fill="#FF0000"/>
</svg>
