<svg width="64" height="64" viewBox="0 0 64 64" fill="none" xmlns="http://www.w3.org/2000/svg">
<g clip-path="url(#clip0_510_12318)">
<path d="M62.4702 48.67C60.2502 46.45 58.2802 49.2 54.3202 49.2C51.4802 49.2 51.5402 47.69 48.1502 46C44.7602 44.31 36.6402 42.69 30.2302 36.27C28.0486 33.9183 26.3348 31.1728 25.1802 28.18C27.8102 27.32 34.0902 30.28 38.4002 32.32C41.5002 33.79 46.1902 36.4 47.0002 34C48.3702 29.9 40.1502 21.41 38.4902 19.75C32.9702 14.22 28.9202 17.99 23.4902 23.46C22.1983 19.185 21.2454 14.8148 20.6402 10.39C20.0502 6.58001 18.0002 2.00001 14.7402 0.910012C8.60019 -1.08999 -1.40981 13.84 6.94019 36.91C6.20727 37.4954 5.50627 38.1196 4.84019 38.78C1.60019 42 -3.30981 46.9 3.19019 53.39C5.54784 55.473 8.06189 57.3719 10.7102 59.07C15.2602 62.2 15.1802 62.38 16.1602 62.38C16.6036 62.3796 17.0373 62.2499 17.4081 62.0068C17.7789 61.7637 18.0708 61.4178 18.2481 61.0113C18.4253 60.6048 18.4802 60.1555 18.4059 59.7184C18.3317 59.2812 18.1316 58.8752 17.8302 58.55C15.2949 55.8645 13.647 52.464 13.1102 48.81C19.0002 57.13 27.5202 63.29 37.7702 63.29C44.357 63.1383 50.7107 60.8224 55.8502 56.7C57.0402 55.51 60.4302 57.08 62.4702 55.04C64.5102 53 64.5202 50.72 62.4702 48.67ZM37.0802 21.15C42.5602 26.63 45.2202 31.15 45.1702 32.98C40.8202 32.27 27.3102 22.38 22.5902 27.64C23.1106 26.7824 23.7316 25.9901 24.4402 25.28C30.6702 19.05 33.0002 17.1 37.0802 21.15ZM11.2102 3.79001C14.6802 0.330012 17.9402 6.00001 18.6102 10.66C19.2791 15.5764 20.3766 20.4248 21.8902 25.15C19.6379 28.0375 18.601 31.6898 19.0002 35.33C16.3702 33.66 12.9102 33.04 8.68019 35.67C5.14019 25.69 3.71019 11.29 11.2102 3.79001ZM16.3602 60.3C16.1102 60.55 16.2502 60.46 11.8502 57.42C9.30647 55.7898 6.88353 53.9785 4.60019 52C-0.479809 46.9 2.94019 43.47 6.25019 40.16C9.01019 37.41 12.5602 35.05 16.2502 36.26C10.6102 38.73 7.80019 50.43 16.3302 59.89C16.3865 59.9417 16.4209 60.0129 16.4265 60.0891C16.432 60.1653 16.4083 60.2407 16.3602 60.3V60.3ZM61.0502 53.63C59.8602 54.81 56.4402 53.28 54.4902 55.24C53.9302 55.72 40.7602 67.02 25.0802 57.61C20.1325 54.4741 16.0157 50.1892 13.0802 45.12C13.7902 38.9 17.7502 36.73 19.6302 38.41C21.059 40.8369 22.7746 43.0831 24.7402 45.1C24.9265 45.2708 25.1707 45.3647 25.4235 45.3628C25.6762 45.3609 25.9189 45.2633 26.1027 45.0897C26.2864 44.9161 26.3976 44.6794 26.4138 44.4271C26.4301 44.1748 26.3502 43.9257 26.1902 43.73C24.3639 41.8404 22.7571 39.7505 21.4002 37.5C21.1759 34.68 21.9551 31.8714 23.6002 29.57C30.4502 45.16 44.0002 44.77 49.7902 49.48C50.3891 50.059 51.0996 50.5101 51.8783 50.8058C52.6571 51.1015 53.4879 51.2356 54.3202 51.2C58.3202 51.2 60.1202 49.15 61.0502 50.08C62.3102 51.34 62.3102 52.37 61.0502 53.63V53.63Z" fill="#FF0000"/>
<path d="M50.1902 53.3401C43.8902 53.481 37.6697 51.9121 32.1902 48.8001C31.967 48.7081 31.7182 48.6999 31.4895 48.7771C31.2608 48.8542 31.0677 49.0115 30.9459 49.2198C30.824 49.4281 30.7816 49.6735 30.8265 49.9107C30.8714 50.1478 31.0006 50.3607 31.1902 50.5101C36.9714 53.8056 43.537 55.4747 50.1902 55.3401C50.4554 55.3401 50.7097 55.2347 50.8973 55.0472C51.0848 54.8596 51.1902 54.6053 51.1902 54.3401C51.1902 54.0749 51.0848 53.8205 50.8973 53.633C50.7097 53.4454 50.4554 53.3401 50.1902 53.3401Z" fill="#FF0000"/>
</g>
<defs>
<clipPath id="clip0_510_12318">
<rect width="64" height="64" fill="white"/>
</clipPath>
</defs>
</svg>
