<svg width="64" height="64" viewBox="0 0 64 64" fill="none" xmlns="http://www.w3.org/2000/svg">
<g clip-path="url(#clip0_510_12325)">
<path d="M62.2901 0.289941L59.0001 3.58994L57.6501 2.22994C57.0762 1.68627 56.3157 1.38326 55.5251 1.38326C54.7345 1.38326 53.974 1.68627 53.4001 2.22994C50.7801 4.85994 49.8501 5.40994 49.8501 6.99994C49.8501 8.58994 50.8501 9.21994 52.0901 10.4699L51.0001 11.5899L47.2301 7.81994C45.5301 6.11994 41.5101 12.6499 45.1401 17.4399L44.5001 18.0899L41.2301 14.8199C41.0427 14.6337 40.7893 14.5291 40.5251 14.5291C40.2609 14.5291 40.0075 14.6337 39.8201 14.8199L36.8201 17.8199C36.6338 18.0073 36.5293 18.2608 36.5293 18.5249C36.5293 18.7891 36.6338 19.0426 36.8201 19.2299L40.0901 22.4999L38.5001 24.0899L37.1501 22.7299C36.5762 22.1863 35.8157 21.8833 35.0251 21.8833C34.2345 21.8833 33.474 22.1863 32.9001 22.7299C30.2801 25.3599 29.3501 25.9099 29.3501 27.5299C29.3501 29.1499 30.3501 29.7499 31.5901 30.9999L30.5001 32.0899L26.7301 28.3199C25.0301 26.6199 21.0101 33.1499 24.6401 37.9399L23.5001 39.0899L21.7301 37.3199C21.1364 36.7521 20.3466 36.4352 19.5251 36.4352C18.7036 36.4352 17.9138 36.7521 17.3201 37.3199C17.0295 37.6089 16.799 37.9525 16.6416 38.3309C16.4843 38.7094 16.4033 39.1151 16.4033 39.5249C16.4033 39.9348 16.4843 40.3405 16.6416 40.7189C16.799 41.0974 17.0295 41.4409 17.3201 41.7299L19.0901 43.4999L7.7501 54.8299C6.71614 54.1478 5.46577 53.8737 4.24126 54.0608C3.01676 54.248 1.90532 54.883 1.12228 55.8428C0.33925 56.8026 -0.0596152 58.019 0.00297313 59.2561C0.0655615 60.4932 0.585148 61.6631 1.46105 62.539C2.33696 63.4149 3.50682 63.9345 4.74395 63.9971C5.98109 64.0597 7.19741 63.6608 8.15725 62.8778C9.11708 62.0947 9.75208 60.9833 9.93921 59.7588C10.1263 58.5343 9.85226 57.2839 9.1701 56.2499L20.5001 44.9099C24.1001 48.5099 23.9501 48.4999 24.5001 48.4999C25.0501 48.4999 24.9301 48.4999 28.2101 45.2099C28.3038 45.117 28.3782 45.0064 28.429 44.8845C28.4798 44.7627 28.5059 44.632 28.5059 44.4999C28.5059 44.3679 28.4798 44.2372 28.429 44.1154C28.3782 43.9935 28.3038 43.8829 28.2101 43.7899L24.9101 40.4999L26.0501 39.3599C30.8401 42.9999 37.4201 38.9999 35.7101 37.2899L31.9101 33.4999L33.0001 32.4099C34.3401 33.7599 35.0001 34.6699 36.5001 34.6699C38.0001 34.6699 38.5901 33.8299 41.2901 31.1199C41.8519 30.5574 42.1675 29.7949 42.1675 28.9999C42.1675 28.2049 41.8519 27.4424 41.2901 26.8799L39.9101 25.4999L41.5001 23.9099L43.2901 25.7099C43.8862 26.2447 44.6645 26.5307 45.465 26.509C46.2655 26.4873 47.0273 26.1596 47.5935 25.5934C48.1598 25.0271 48.4875 24.2654 48.5092 23.4649C48.5308 22.6644 48.2449 21.886 47.7101 21.2899L45.9101 19.4999L46.5501 18.8599C51.3401 22.5099 57.9201 18.4999 56.2101 16.7899L52.4101 12.9999L53.5001 11.9099C54.8401 13.2599 55.5001 14.1699 57.0001 14.1699C58.5001 14.1699 59.0901 13.3299 61.7901 10.6199C62.3519 10.0574 62.6675 9.29494 62.6675 8.49994C62.6675 7.70494 62.3519 6.94244 61.7901 6.37994L60.4101 4.99994L63.7101 1.70994C63.8984 1.52164 64.0042 1.26624 64.0042 0.999941C64.0042 0.73364 63.8984 0.478245 63.7101 0.289941C63.5218 0.101638 63.2664 -0.00415039 63.0001 -0.00415039C62.7338 -0.00415039 62.4784 0.101638 62.2901 0.289941V0.289941ZM5.0001 61.9999C4.40675 61.9999 3.82673 61.824 3.33339 61.4944C2.84004 61.1647 2.45552 60.6962 2.22846 60.148C2.0014 59.5998 1.94199 58.9966 2.05774 58.4147C2.1735 57.8327 2.45922 57.2982 2.87878 56.8786C3.29833 56.4591 3.83288 56.1733 4.41483 56.0576C4.99677 55.9418 5.59997 56.0012 6.14815 56.2283C6.69632 56.4554 7.16486 56.8399 7.4945 57.3332C7.82415 57.8266 8.0001 58.4066 8.0001 58.9999C8.0001 59.7956 7.68403 60.5587 7.12142 61.1213C6.55881 61.6839 5.79575 61.9999 5.0001 61.9999V61.9999ZM24.5001 46.0899C18.3201 39.8999 18.4001 40.1699 18.4001 39.5299C18.4027 39.2311 18.5226 38.9452 18.734 38.7338C18.9453 38.5224 19.2312 38.4026 19.5301 38.3999C20.1701 38.3999 19.9301 38.3399 26.0901 44.4999L24.5001 46.0899ZM26.0901 30.4999L33.5201 37.9399C28.6601 41.2699 22.7501 35.3499 26.0901 30.4999ZM39.8801 29.7099L37.2101 32.3799C37.1171 32.4737 37.0065 32.5481 36.8847 32.5988C36.7628 32.6496 36.6321 32.6757 36.5001 32.6757C36.3681 32.6757 36.2374 32.6496 36.1155 32.5988C35.9937 32.5481 35.8831 32.4737 35.7901 32.3799C31.4001 27.9999 31.3501 28.0999 31.3501 27.5299C31.3501 26.9599 31.4201 27.0499 34.3501 24.1499C34.5375 23.9637 34.7909 23.8591 35.0551 23.8591C35.3193 23.8591 35.5727 23.9637 35.7601 24.1499L39.9101 28.2899C40.0019 28.3849 40.074 28.497 40.1222 28.62C40.1704 28.7429 40.1938 28.8742 40.191 29.0062C40.1882 29.1382 40.1593 29.2684 40.1059 29.3892C40.0526 29.51 39.9758 29.619 39.8801 29.7099V29.7099ZM46.6201 23.4999C46.6193 23.7209 46.5532 23.9367 46.4301 24.1201C46.307 24.3036 46.1323 24.4466 45.9282 24.531C45.724 24.6154 45.4994 24.6376 45.2827 24.5947C45.0659 24.5518 44.8667 24.4458 44.7101 24.2899L38.9401 18.5299L40.5301 16.9399C46.7201 23.1299 46.6201 22.8599 46.6201 23.4999ZM46.6201 9.99994L54.0001 17.4399C49.1701 20.7599 43.2501 14.8599 46.5901 9.99994H46.6201ZM60.4101 9.20994L57.7401 11.8799C57.6471 11.9737 57.5365 12.0481 57.4147 12.0988C57.2928 12.1496 57.1621 12.1757 57.0301 12.1757C56.8981 12.1757 56.7674 12.1496 56.6455 12.0988C56.5237 12.0481 56.4131 11.9737 56.3201 11.8799C51.9001 7.48994 51.8501 7.59994 51.8501 6.99994C51.8501 6.39994 51.9201 6.51994 54.8501 3.61994C55.0375 3.43369 55.2909 3.32915 55.5551 3.32915C55.8193 3.32915 56.0727 3.43369 56.2601 3.61994L60.4101 7.75994C60.5065 7.85538 60.5825 7.96944 60.6335 8.09519C60.6844 8.22094 60.7093 8.35574 60.7064 8.49138C60.7036 8.62703 60.6733 8.76069 60.6172 8.88422C60.561 9.00775 60.4804 9.11857 60.3801 9.20994H60.4101Z" fill="#FF0000"/>
</g>
<defs>
<clipPath id="clip0_510_12325">
<rect width="64" height="64" fill="white"/>
</clipPath>
</defs>
</svg>
