<svg width="64" height="64" viewBox="0 0 64 64" fill="none" xmlns="http://www.w3.org/2000/svg">
<path d="M47 25C45.1435 25 43.363 25.7375 42.0503 27.0503C40.7375 28.363 40 30.1435 40 32V42C40 43.8565 40.7375 45.637 42.0503 46.9497C43.363 48.2625 45.1435 49 47 49C48.8565 49 50.637 48.2625 51.9497 46.9497C53.2625 45.637 54 43.8565 54 42V32C54 30.1435 53.2625 28.363 51.9497 27.0503C50.637 25.7375 48.8565 25 47 25ZM52 42C52 43.3261 51.4732 44.5979 50.5355 45.5355C49.5979 46.4732 48.3261 47 47 47C45.6739 47 44.4021 46.4732 43.4645 45.5355C42.5268 44.5979 42 43.3261 42 42V32C42 30.6739 42.5268 29.4021 43.4645 28.4645C44.4021 27.5268 45.6739 27 47 27C48.3261 27 49.5979 27.5268 50.5355 28.4645C51.4732 29.4021 52 30.6739 52 32V42Z" fill="#FF0000"/>
<path d="M42 22.2099V14.9999C42 14.7347 41.8946 14.4804 41.7071 14.2928C41.5196 14.1053 41.2652 13.9999 41 13.9999H39.89C39.6907 13.0219 39.2032 12.126 38.4903 11.4273C37.7775 10.7287 36.8718 10.2595 35.89 10.0799C35.6728 8.91883 35.0516 7.87211 34.1364 7.12529C33.2211 6.37848 32.0711 5.97981 30.89 5.99995C30.6766 4.60511 30.0466 3.30734 29.0827 2.27682C28.1188 1.2463 26.8659 0.531149 25.4885 0.225161C24.111 -0.0808275 22.6732 0.0366315 21.3636 0.562133C20.054 1.08764 18.9339 1.99664 18.15 3.16995C17.6312 3.01972 17.0873 2.97612 16.5512 3.04178C16.0151 3.10744 15.4978 3.281 15.0306 3.55199C14.5634 3.82298 14.1559 4.18579 13.8326 4.61854C13.5094 5.05129 13.2772 5.54502 13.15 6.06995C12.2728 6.19694 11.4347 6.51669 10.6958 7.00621C9.95697 7.49573 9.33574 8.14287 8.87678 8.9011C8.41783 9.65932 8.13256 10.5098 8.04148 11.3914C7.95039 12.2731 8.05576 13.1639 8.35 13.9999H7C6.73478 13.9999 6.48043 14.1053 6.29289 14.2928C6.10536 14.4804 6 14.7347 6 14.9999V58.9999C6 60.326 6.52678 61.5978 7.46447 62.5355C8.40215 63.4732 9.67392 63.9999 11 63.9999H37C38.3261 63.9999 39.5979 63.4732 40.5355 62.5355C41.4732 61.5978 42 60.326 42 58.9999V51.7899C43.6991 52.6579 45.5948 53.0689 47.5008 52.9828C49.4068 52.8966 51.2576 52.3161 52.8715 51.2984C54.4854 50.2806 55.8068 48.8606 56.7059 47.1778C57.605 45.495 58.051 43.6072 58 41.6999V32.2999C58.051 30.3927 57.605 28.5049 56.7059 26.8221C55.8068 25.1393 54.4854 23.7193 52.8715 22.7015C51.2576 21.6838 49.4068 21.1033 47.5008 21.0171C45.5948 20.9309 43.6991 21.342 42 22.2099ZM12 15.9999C15.23 15.9999 15.31 15.8999 15.71 16.3099C16.11 16.7199 16 16.2399 16 26.9999C16.0005 27.5917 16.176 28.1701 16.5044 28.6624C16.8329 29.1546 17.2996 29.5388 17.8458 29.7664C18.392 29.9941 18.9933 30.0552 19.5742 29.9419C20.155 29.8287 20.6893 29.5462 21.11 29.1299C22.29 27.9999 22 26.9999 22 21.9999C22.0028 21.803 22.0636 21.6113 22.175 21.4488C22.2863 21.2864 22.4431 21.1604 22.6257 21.0867C22.8083 21.013 23.0087 20.9949 23.2016 21.0346C23.3945 21.0743 23.5713 21.1701 23.71 21.3099C24.06 21.6499 24 21.9199 24 22.9999C24.0005 23.5917 24.176 24.1701 24.5044 24.6624C24.8329 25.1546 25.2996 25.5388 25.8458 25.7664C26.392 25.9941 26.9933 26.0552 27.5742 25.9419C28.155 25.8287 28.6893 25.5462 29.11 25.1299C30.3 23.9999 30 23.1499 30 16.9999C30 16.7347 30.1054 16.4804 30.2929 16.2928C30.4804 16.1053 30.7348 15.9999 31 15.9999H36V55.9999H12V15.9999ZM14 7.99995C14.2652 7.99995 14.5196 7.89459 14.7071 7.70705C14.8946 7.51952 15 7.26516 15 6.99995C15.0073 6.65245 15.105 6.31284 15.2835 6.01461C15.462 5.71638 15.7151 5.46981 16.0179 5.29921C16.3208 5.12862 16.6628 5.03989 17.0104 5.04177C17.358 5.04366 17.699 5.13608 18 5.30995C18.1199 5.38582 18.2545 5.43532 18.395 5.45515C18.5355 5.47498 18.6786 5.46469 18.8148 5.42497C18.951 5.38524 19.0772 5.31699 19.185 5.22474C19.2928 5.1325 19.3797 5.01837 19.44 4.88995C19.9112 3.84186 20.729 2.98805 21.7558 2.4722C22.7827 1.95635 23.9559 1.80994 25.078 2.05761C26.2001 2.30527 27.2027 2.9319 27.917 3.83204C28.6313 4.73218 29.0138 5.8509 29 6.99995C28.9708 7.17692 28.9897 7.3585 29.0548 7.52564C29.1199 7.69278 29.2288 7.83934 29.37 7.94995C29.92 8.37995 30.29 8.01995 31 8.01995C31.7956 8.01995 32.5587 8.33602 33.1213 8.89863C33.6839 9.46124 34 10.2243 34 11.0199C34 11.2852 34.1054 11.5395 34.2929 11.7271C34.4804 11.9146 34.7348 12.0199 35 12.0199C35.6189 12.0217 36.2222 12.2148 36.7271 12.5729C37.2319 12.9309 37.6137 13.4364 37.82 14.0199H31C30.2044 14.0199 29.4413 14.336 28.8787 14.8986C28.3161 15.4612 28 16.2243 28 17.0199C28 23.4699 28.11 23.3199 27.69 23.7299C27.5479 23.8654 27.3692 23.956 27.1759 23.9906C26.9827 24.0251 26.7836 24.002 26.6034 23.9242C26.4233 23.8463 26.27 23.7172 26.1627 23.5529C26.0553 23.3885 25.9988 23.1962 26 22.9999C26 21.8999 26.11 20.8499 25.13 19.8899C24.7116 19.4681 24.1773 19.18 23.595 19.0621C23.0126 18.9443 22.4083 19.0021 21.8588 19.2281C21.3093 19.4541 20.8393 19.8382 20.5084 20.3317C20.1775 20.8251 20.0005 21.4058 20 21.9999C20 27.3799 20.11 27.3099 19.69 27.7099C19.5492 27.8442 19.3722 27.9345 19.1808 27.9697C18.9895 28.0049 18.792 27.9835 18.6126 27.9082C18.4332 27.8328 18.2797 27.7067 18.1709 27.5454C18.062 27.3841 18.0027 27.1945 18 26.9999C18 16.4899 18.29 15.9999 17.13 14.8899C15.97 13.7799 14.88 13.9999 10.54 13.9999C10.1891 13.3922 10.0043 12.7028 10.0041 12.001C10.0039 11.2992 10.1884 10.6097 10.539 10.0017C10.8896 9.39377 11.3939 8.88875 12.0014 8.53738C12.6089 8.18602 13.2982 8.00067 14 7.99995ZM56 41.6999C56.0554 43.3959 55.6301 45.073 54.7734 46.5377C53.9166 48.0024 52.6632 49.195 51.1578 49.978C49.6524 50.7611 47.9563 51.1025 46.2652 50.9631C44.5741 50.8237 42.9568 50.209 41.6 49.1899C41.4507 49.078 41.2732 49.01 41.0873 48.9937C40.9014 48.9774 40.7147 49.0135 40.5483 49.0977C40.3818 49.182 40.2423 49.3111 40.1454 49.4706C40.0485 49.63 39.9981 49.8134 40 49.9999V58.9999C40 59.7956 39.6839 60.5587 39.1213 61.1213C38.5587 61.6839 37.7956 61.9999 37 61.9999H11C10.2044 61.9999 9.44129 61.6839 8.87868 61.1213C8.31607 60.5587 8 59.7956 8 58.9999V15.9999H10V56.9999C10 57.2652 10.1054 57.5195 10.2929 57.7071C10.4804 57.8946 10.7348 57.9999 11 57.9999H37C37.2652 57.9999 37.5196 57.8946 37.7071 57.7071C37.8946 57.5195 38 57.2652 38 56.9999V15.9999H40C40 24.6199 39.8 24.5299 40.55 24.8999C40.716 24.9842 40.9023 25.0204 41.0878 25.0045C41.2733 24.9886 41.4507 24.9212 41.6 24.8099C42.9568 23.7909 44.5741 23.1762 46.2652 23.0368C47.9563 22.8973 49.6524 23.2388 51.1578 24.0219C52.6632 24.8049 53.9166 25.9975 54.7734 27.4622C55.6301 28.9269 56.0554 30.604 56 32.2999V41.6999Z" fill="#FF0000"/>
<path d="M20 16H26C26.2652 16 26.5196 15.8946 26.7071 15.7071C26.8946 15.5196 27 15.2652 27 15C27 14.7348 26.8946 14.4804 26.7071 14.2929C26.5196 14.1054 26.2652 14 26 14H20C19.7348 14 19.4804 14.1054 19.2929 14.2929C19.1054 14.4804 19 14.7348 19 15C19 15.2652 19.1054 15.5196 19.2929 15.7071C19.4804 15.8946 19.7348 16 20 16Z" fill="#FF0000"/>
</svg>
