<svg width="64" height="64" viewBox="0 0 64 64" fill="none" xmlns="http://www.w3.org/2000/svg">
<g clip-path="url(#clip0_510_12333)">
<path d="M49 20H48C47.7476 16.7284 46.2673 13.6732 43.8562 11.4475C41.445 9.22181 38.2814 7.99028 35 8V1C35 0.734784 34.8946 0.48043 34.7071 0.292893C34.5196 0.105357 34.2652 0 34 0L30 0C29.7348 0 29.4804 0.105357 29.2929 0.292893C29.1054 0.48043 29 0.734784 29 1V8C25.7273 8.00289 22.576 9.24007 20.1755 11.4645C17.775 13.6889 16.3017 16.737 16.05 20H15C14.7348 20 14.4804 20.1054 14.2929 20.2929C14.1054 20.4804 14 20.7348 14 21V25C14 25.2652 14.1054 25.5196 14.2929 25.7071C14.4804 25.8946 14.7348 26 15 26H16.08L19 63.08C19.0202 63.3311 19.1343 63.5654 19.3197 63.7359C19.5051 63.9065 19.7481 64.0008 20 64H44C44.2519 64.0008 44.4949 63.9065 44.6803 63.7359C44.8657 63.5654 44.9798 63.3311 45 63.08L47.92 26H49C49.2652 26 49.5196 25.8946 49.7071 25.7071C49.8946 25.5196 50 25.2652 50 25V21C50 20.7348 49.8946 20.4804 49.7071 20.2929C49.5196 20.1054 49.2652 20 49 20ZM46 20H35V10C37.7521 9.98861 40.4085 11.0093 42.4449 12.8606C44.4814 14.7119 45.7498 17.2593 46 20V20ZM31 20V10H33V20H31ZM31 2H33V8H31V2ZM29 10V20H18C18.2502 17.2593 19.5186 14.7119 21.5551 12.8606C23.5915 11.0093 26.2479 9.98861 29 10V10ZM43.08 62H20.92L18.08 26H29V28C21 28 21.13 27.87 20.71 28.32C20.29 28.77 20.27 26.59 22.6 59.07C22.6177 59.3229 22.7309 59.5596 22.9165 59.7323C23.1022 59.9049 23.3465 60.0006 23.6 60H40.4C40.6535 60.0006 40.8978 59.9049 41.0835 59.7323C41.2691 59.5596 41.3823 59.3229 41.4 59.07L43.55 29.07C43.5596 28.9329 43.5409 28.7953 43.495 28.6658C43.449 28.5363 43.3769 28.4176 43.2831 28.3172C43.1892 28.2168 43.0757 28.1368 42.9496 28.0822C42.8234 28.0277 42.6874 27.9997 42.55 28H35V26H45.92L43.08 62ZM33 26V28H31V26H33ZM41.48 30L39.48 58H24.53L22.53 30H41.48ZM48 24H16V22H48V24Z" fill="#FF0000"/>
<path d="M27.5 53C27.1022 53 26.7206 53.158 26.4393 53.4393C26.158 53.7206 26 54.1022 26 54.5C26 54.8978 26.158 55.2794 26.4393 55.5607C26.7206 55.842 27.1022 56 27.5 56C27.8978 56 28.2794 55.842 28.5607 55.5607C28.842 55.2794 29 54.8978 29 54.5C29 54.1022 28.842 53.7206 28.5607 53.4393C28.2794 53.158 27.8978 53 27.5 53V53Z" fill="#FF0000"/>
<path d="M37.5 54C37.1022 54 36.7206 54.158 36.4393 54.4393C36.158 54.7206 36 55.1022 36 55.5C36 55.8978 36.158 56.2794 36.4393 56.5607C36.7206 56.842 37.1022 57 37.5 57C37.8978 57 38.2794 56.842 38.5607 56.5607C38.842 56.2794 39 55.8978 39 55.5C39 55.1022 38.842 54.7206 38.5607 54.4393C38.2794 54.158 37.8978 54 37.5 54Z" fill="#FF0000"/>
<path d="M32.5 54C32.1022 54 31.7206 54.158 31.4393 54.4393C31.158 54.7206 31 55.1022 31 55.5C31 55.8978 31.158 56.2794 31.4393 56.5607C31.7206 56.842 32.1022 57 32.5 57C32.8978 57 33.2794 56.842 33.5607 56.5607C33.842 56.2794 34 55.8978 34 55.5C34 55.1022 33.842 54.7206 33.5607 54.4393C33.2794 54.158 32.8978 54 32.5 54Z" fill="#FF0000"/>
<path d="M35.5 53C35.8978 53 36.2794 52.842 36.5607 52.5607C36.842 52.2794 37 51.8978 37 51.5C37 51.1022 36.842 50.7206 36.5607 50.4393C36.2794 50.158 35.8978 50 35.5 50C35.1022 50 34.7206 50.158 34.4393 50.4393C34.158 50.7206 34 51.1022 34 51.5C34 51.8978 34.158 52.2794 34.4393 52.5607C34.7206 52.842 35.1022 53 35.5 53V53Z" fill="#FF0000"/>
<path d="M29 51.5C29 51.8978 29.158 52.2794 29.4393 52.5607C29.7206 52.842 30.1022 53 30.5 53C30.8978 53 31.2794 52.842 31.5607 52.5607C31.842 52.2794 32 51.8978 32 51.5C32 51.1022 31.842 50.7206 31.5607 50.4393C31.2794 50.158 30.8978 50 30.5 50C30.1022 50 29.7206 50.158 29.4393 50.4393C29.158 50.7206 29 51.1022 29 51.5V51.5Z" fill="#FF0000"/>
<path d="M26.5 51C26.8978 51 27.2794 50.842 27.5607 50.5607C27.842 50.2794 28 49.8978 28 49.5C28 49.1022 27.842 48.7206 27.5607 48.4393C27.2794 48.158 26.8978 48 26.5 48C26.1022 48 25.7206 48.158 25.4393 48.4393C25.158 48.7206 25 49.1022 25 49.5C25 49.8978 25.158 50.2794 25.4393 50.5607C25.7206 50.842 26.1022 51 26.5 51V51Z" fill="#FF0000"/>
<path d="M32.5 49C32.8978 49 33.2794 48.842 33.5607 48.5607C33.842 48.2794 34 47.8978 34 47.5C34 47.1022 33.842 46.7206 33.5607 46.4393C33.2794 46.158 32.8978 46 32.5 46C32.1022 46 31.7206 46.158 31.4393 46.4393C31.158 46.7206 31 47.1022 31 47.5C31 47.8978 31.158 48.2794 31.4393 48.5607C31.7206 48.842 32.1022 49 32.5 49Z" fill="#FF0000"/>
<path d="M28.5 47C28.8978 47 29.2794 46.842 29.5607 46.5607C29.842 46.2794 30 45.8978 30 45.5C30 45.1022 29.842 44.7206 29.5607 44.4393C29.2794 44.158 28.8978 44 28.5 44C28.1022 44 27.7206 44.158 27.4393 44.4393C27.158 44.7206 27 45.1022 27 45.5C27 45.8978 27.158 46.2794 27.4393 46.5607C27.7206 46.842 28.1022 47 28.5 47Z" fill="#FF0000"/>
<path d="M37.5 49C37.8978 49 38.2794 48.842 38.5607 48.5607C38.842 48.2794 39 47.8978 39 47.5C39 47.1022 38.842 46.7206 38.5607 46.4393C38.2794 46.158 37.8978 46 37.5 46C37.1022 46 36.7206 46.158 36.4393 46.4393C36.158 46.7206 36 47.1022 36 47.5C36 47.8978 36.158 48.2794 36.4393 48.5607C36.7206 48.842 37.1022 49 37.5 49V49Z" fill="#FF0000"/>
</g>
<defs>
<clipPath id="clip0_510_12333">
<rect width="64" height="64" fill="white"/>
</clipPath>
</defs>
</svg>
