<svg width="64" height="64" viewBox="0 0 64 64" fill="none" xmlns="http://www.w3.org/2000/svg">
<g clip-path="url(#clip0_510_12345)">
<path d="M46.0002 16H17.0002C10.5502 16 0.000240106 16.41 0.000240106 24C-0.0679232 25.7977 0.48665 27.5639 1.57024 29C3.38024 31.74 3.00024 31.61 3.00024 48C2.96321 48.7978 3.09305 49.5945 3.38148 50.3392C3.6699 51.0839 4.11056 51.7603 4.67527 52.325C5.23998 52.8897 5.91632 53.3303 6.66104 53.6188C7.40576 53.9072 8.20248 54.037 9.00024 54H55.0002C55.798 54.037 56.5947 53.9072 57.3394 53.6188C58.0842 53.3303 58.7605 52.8897 59.3252 52.325C59.8899 51.7603 60.3306 51.0839 60.619 50.3392C60.9074 49.5945 61.0373 48.7978 61.0002 48C61.0002 31.73 60.5902 31.78 62.4302 29C63.5138 27.5639 64.0684 25.7977 64.0002 24C64.0002 16 52.2902 16 46.0002 16ZM5.00024 48C5.00024 31.87 5.48024 31.28 3.23024 27.92C2.3598 26.805 1.92283 25.4124 2.00024 24C2.00024 18 12.4102 18 18.0002 18C23.5902 18 34.0002 18 34.0002 24C34.0776 25.4124 33.6407 26.805 32.7702 27.92C30.5402 31.25 31.0002 31.7 31.0002 48C31.0373 48.5348 30.9592 49.0714 30.7712 49.5735C30.5833 50.0756 30.2899 50.5315 29.9108 50.9106C29.5318 51.2897 29.0758 51.5831 28.5737 51.771C28.0716 51.9589 27.5351 52.037 27.0002 52H9.00024C8.46541 52.037 7.92886 51.9589 7.42677 51.771C6.92468 51.5831 6.46872 51.2897 6.08964 50.9106C5.71055 50.5315 5.41716 50.0756 5.22923 49.5735C5.04131 49.0714 4.96322 48.5348 5.00024 48V48ZM60.7702 27.92C58.5402 31.25 59.0002 31.7 59.0002 48C59.0373 48.5348 58.9592 49.0714 58.7712 49.5735C58.5833 50.0756 58.2899 50.5315 57.9108 50.9106C57.5318 51.2897 57.0758 51.5831 56.5737 51.771C56.0716 51.9589 55.5351 52.037 55.0002 52H31.6202C33.4602 49.83 33.0002 48.79 33.0002 34C33.0002 28.28 36.0002 29.49 36.0002 24C36.0137 22.7138 35.6392 21.4533 34.9257 20.383C34.2122 19.3127 33.1927 18.4823 32.0002 18H46.0002C51.5902 18 62.0002 18 62.0002 24C62.0776 25.4124 61.6407 26.805 60.7702 27.92Z" fill="#FF0000"/>
<path d="M48 30H38C37.7348 30 37.4804 30.1054 37.2929 30.2929C37.1054 30.4804 37 30.7348 37 31C37 31.2652 37.1054 31.5196 37.2929 31.7071C37.4804 31.8946 37.7348 32 38 32H48C48.2652 32 48.5196 31.8946 48.7071 31.7071C48.8946 31.5196 49 31.2652 49 31C49 30.7348 48.8946 30.4804 48.7071 30.2929C48.5196 30.1054 48.2652 30 48 30Z" fill="#FF0000"/>
<path d="M56 30H52C51.7348 30 51.4804 30.1054 51.2929 30.2929C51.1054 30.4804 51 30.7348 51 31C51 31.2652 51.1054 31.5196 51.2929 31.7071C51.4804 31.8946 51.7348 32 52 32H56C56.2652 32 56.5196 31.8946 56.7071 31.7071C56.8946 31.5196 57 31.2652 57 31C57 30.7348 56.8946 30.4804 56.7071 30.2929C56.5196 30.1054 56.2652 30 56 30Z" fill="#FF0000"/>
</g>
<defs>
<clipPath id="clip0_510_12345">
<rect width="64" height="64" fill="white"/>
</clipPath>
</defs>
</svg>
