<svg width="64" height="64" viewBox="0 0 64 64" fill="none" xmlns="http://www.w3.org/2000/svg">
<g clip-path="url(#clip0_510_12350)">
<path d="M32 0C25.671 0 19.4841 1.87677 14.2218 5.39297C8.95939 8.90918 4.85787 13.9069 2.43587 19.7541C0.013865 25.6014 -0.619842 32.0355 0.614885 38.2429C1.84961 44.4503 4.89732 50.1521 9.3726 54.6274C13.8479 59.1027 19.5497 62.1504 25.7571 63.3851C31.9645 64.6199 38.3986 63.9861 44.2459 61.5641C50.0931 59.1421 55.0908 55.0406 58.607 49.7782C62.1232 44.5159 64 38.329 64 32C64 23.5131 60.6286 15.3737 54.6274 9.37258C48.6263 3.37142 40.4869 0 32 0V0ZM32 62C26.0666 62 20.2664 60.2405 15.3329 56.9441C10.3994 53.6476 6.55426 48.9623 4.28363 43.4805C2.013 37.9987 1.4189 31.9667 2.57646 26.1473C3.73401 20.3279 6.59124 14.9824 10.7868 10.7868C14.9824 6.59122 20.3279 3.734 26.1473 2.57644C31.9667 1.41888 37.9987 2.01299 43.4805 4.28361C48.9623 6.55424 53.6477 10.3994 56.9441 15.3329C60.2405 20.2664 62 26.0666 62 32C62 39.9565 58.8393 47.5871 53.2132 53.2132C47.5871 58.8393 39.9565 62 32 62Z" fill="#FF0000"/>
<path d="M21 26C19.6155 26 18.2622 26.4105 17.111 27.1797C15.9599 27.9489 15.0627 29.0421 14.5328 30.3212C14.003 31.6003 13.8644 33.0078 14.1345 34.3656C14.4046 35.7235 15.0713 36.9708 16.0503 37.9497C17.0292 38.9287 18.2765 39.5954 19.6344 39.8655C20.9922 40.1356 22.3997 39.997 23.6788 39.4672C24.9579 38.9373 26.0511 38.0401 26.8203 36.889C27.5895 35.7378 28 34.3845 28 33C28 31.1435 27.2625 29.363 25.9497 28.0503C24.637 26.7375 22.8565 26 21 26V26ZM21 38C20.0111 38 19.0444 37.7068 18.2222 37.1573C17.3999 36.6079 16.759 35.827 16.3806 34.9134C16.0022 33.9998 15.9031 32.9945 16.0961 32.0245C16.289 31.0546 16.7652 30.1637 17.4645 29.4645C18.1637 28.7652 19.0546 28.289 20.0246 28.0961C20.9945 27.9031 21.9998 28.0022 22.9134 28.3806C23.8271 28.759 24.6079 29.3999 25.1574 30.2221C25.7068 31.0444 26 32.0111 26 33C26 34.3261 25.4732 35.5979 24.5355 36.5355C23.5979 37.4732 22.3261 38 21 38Z" fill="#FF0000"/>
<path d="M56 27.82C56.0083 26.8434 55.659 25.8975 55.0179 25.1606C54.3769 24.4238 53.4884 23.9469 52.52 23.82C51.6722 23.7365 50.8305 23.5996 50 23.41C48.8604 20.9984 47.2469 18.8409 45.2557 17.0662C43.2645 15.2914 40.9363 13.9358 38.41 13.08C38.34 12.83 38.27 12.57 38.22 12.31C38.0572 11.4049 37.5875 10.5836 36.89 9.98425C36.1924 9.38494 35.3097 9.04428 34.3904 9.01963C33.4711 8.99497 32.5714 9.28783 31.8428 9.84889C31.1142 10.4099 30.6011 11.2049 30.39 12.1C25.3204 12.5082 20.5967 14.8325 17.18 18.6C11.43 20.49 8 26.79 8 36C8 50.91 22.14 55.37 31.08 52C34.7861 52.1777 38.4681 51.3147 41.7092 49.5085C44.9503 47.7024 47.6213 45.0253 49.42 41.78C50.3574 41.9212 51.3146 41.7248 52.1207 41.2259C52.9268 40.727 53.5295 39.958 53.8214 39.056C54.1132 38.154 54.0752 37.1777 53.7142 36.3012C53.3531 35.4246 52.6925 34.7048 51.85 34.27C51.9641 33.4585 52.0142 32.6393 52 31.82C53.0609 31.82 54.0783 31.3986 54.8284 30.6484C55.5786 29.8983 56 28.8809 56 27.82ZM47.27 22.52C43.8987 21.2149 41.0971 18.7604 39.36 15.59C42.6365 17.0474 45.3944 19.4636 47.27 22.52V22.52ZM30.43 14.1C30.7816 15.8002 31.3531 17.4474 32.13 19C31.4411 19.0186 30.7694 19.2189 30.1829 19.5807C29.5963 19.9424 29.1158 20.4528 28.79 21.06C26.79 18.62 23.79 17.93 20.71 18C23.4918 15.7653 26.8751 14.4078 30.43 14.1V14.1ZM10 36C10 26.13 14.21 20 21 20C26.54 20 27.79 22.59 28.71 25.29C29.556 27.576 30.0778 29.9693 30.26 32.4C30.49 34.84 30.66 36.61 33.38 38.78C37.78 42.3 35.84 51 25 51C18.08 51 10 47.07 10 36ZM34.67 49.8C35.5795 49.0236 36.3098 48.0592 36.8106 46.9733C37.3114 45.8874 37.5708 44.7058 37.5708 43.51C37.5708 42.3142 37.3114 41.1326 36.8106 40.0467C36.3098 38.9608 35.5795 37.9964 34.67 37.22C32.67 35.63 32.51 34.52 32.31 32.42C36.057 37.1354 41.3861 40.3328 47.31 41.42C45.9455 43.6573 44.1061 45.5676 41.9219 47.0156C39.7377 48.4637 37.2621 49.4142 34.67 49.8V49.8ZM51.33 39.31C51.1177 39.5014 50.8668 39.6451 50.5942 39.7314C50.3217 39.8176 50.0338 39.8444 49.75 39.81C40.21 38.68 32 32.4 30.32 23.4C30.2599 23.1061 30.2668 22.8024 30.34 22.5114C30.4132 22.2205 30.551 21.9497 30.7431 21.7192C30.9351 21.4887 31.1766 21.3044 31.4496 21.1799C31.7225 21.0554 32.02 20.9939 32.32 21C32.796 21.0117 33.2538 21.1857 33.6175 21.493C33.9812 21.8003 34.229 22.2226 34.32 22.69C35.65 29.61 42.1 34.89 50.32 35.85C50.6915 35.9117 51.038 36.0769 51.3197 36.3268C51.6014 36.5767 51.8069 36.9011 51.9124 37.2626C52.0179 37.6241 52.0192 38.008 51.9162 38.3702C51.8132 38.7324 51.61 39.0582 51.33 39.31ZM50 31.56C50.0437 32.2975 50.0169 33.0376 49.92 33.77C44.32 33 39.75 30 37.51 25.85C41.0863 28.8384 45.4002 30.8105 50 31.56V31.56ZM53.35 29.31C53.1377 29.5014 52.8868 29.6451 52.6142 29.7314C52.3417 29.8176 52.0538 29.8444 51.77 29.81C41.11 28.56 33.83 21.42 32.32 13.4C32.2734 13.1413 32.2782 12.8759 32.3341 12.6191C32.39 12.3622 32.496 12.1189 32.646 11.903C32.7959 11.6871 32.987 11.5029 33.2081 11.3608C33.4293 11.2187 33.6763 11.1216 33.935 11.075C34.1937 11.0284 34.4591 11.0332 34.7159 11.0891C34.9728 11.145 35.2161 11.251 35.432 11.401C35.6479 11.5509 35.8321 11.742 35.9742 11.9631C36.1163 12.1843 36.2134 12.4313 36.26 12.69C37.69 20.1 44.67 24.97 52.26 25.85C52.6364 25.9025 52.99 26.0611 53.2795 26.3072C53.5689 26.5534 53.7823 26.8769 53.8946 27.24C54.0068 27.603 54.0134 27.9905 53.9134 28.3571C53.8134 28.7237 53.611 29.0542 53.33 29.31H53.35Z" fill="#FF0000"/>
</g>
<defs>
<clipPath id="clip0_510_12350">
<rect width="64" height="64" fill="white"/>
</clipPath>
</defs>
</svg>
