<svg width="64" height="64" viewBox="0 0 64 64" fill="none" xmlns="http://www.w3.org/2000/svg">
<g clip-path="url(#clip0_510_12355)">
<path d="M61.6798 34.38C61.8707 33.994 61.9799 33.5727 62.0006 33.1425C62.0212 32.7123 61.9529 32.2825 61.7998 31.88C62.419 31.6954 62.962 31.3159 63.3481 30.7979C63.7343 30.2799 63.9428 29.6511 63.9428 29.005C63.9428 28.3589 63.7343 27.7301 63.3481 27.2121C62.962 26.6941 62.419 26.3146 61.7998 26.13C62.5632 25.2374 62.9881 24.1045 62.9998 22.93C62.9814 17.6499 60.8757 12.5914 57.1421 8.85774C53.4085 5.12413 48.3499 3.01845 43.0698 3H20.9298C15.6497 3.01845 10.5912 5.12413 6.85755 8.85774C3.12394 12.5914 1.01825 17.6499 0.999805 22.93C1.00314 24.1007 1.41719 25.2332 2.1698 26.13C1.55064 26.3146 1.0076 26.6941 0.621468 27.2121C0.235341 27.7301 0.0267615 28.3589 0.0267615 29.005C0.0267615 29.6511 0.235341 30.2799 0.621468 30.7979C1.0076 31.3159 1.55064 31.6954 2.1698 31.88C2.01614 32.2824 1.94748 32.7123 1.96813 33.1426C1.98878 33.5728 2.09831 33.9941 2.2898 34.38C1.60418 34.7042 1.02486 35.2167 0.619401 35.8576C0.213943 36.4986 -0.000941913 37.2416 -0.000195306 38C-0.000195306 40 -0.200195 41.21 0.999805 42.58C0.610786 42.8901 0.319716 43.306 0.161653 43.7778C0.00358924 44.2495 -0.0147256 44.7568 0.108914 45.2387C0.232553 45.7206 0.492874 46.1564 0.858521 46.4938C1.22417 46.8311 1.67955 47.0555 2.1698 47.14C2.07256 47.4171 2.01531 47.7067 1.9998 48C1.9998 51.4478 3.36944 54.7544 5.80742 57.1924C8.24539 59.6304 11.552 61 14.9998 61H48.9998C52.4476 61 55.7542 59.6304 58.1922 57.1924C60.6302 54.7544 61.9998 51.4478 61.9998 48C61.9998 47.18 61.7298 47.16 61.9998 47.11C62.4701 46.9969 62.8992 46.7539 63.238 46.4087C63.5768 46.0635 63.8118 45.63 63.916 45.1576C64.0203 44.6853 63.9897 44.1932 63.8277 43.7374C63.6657 43.2816 63.3788 42.8806 62.9998 42.58C64.1998 41.21 63.9998 40 63.9998 38C63.9979 37.2383 63.7785 36.4931 63.3675 35.8518C62.9566 35.2105 62.371 34.6999 61.6798 34.38V34.38ZM43.6098 34.08C43.3498 34.19 43.6798 33.91 38.6798 38.9C15.7898 33.7 17.1698 34 16.9998 34H4.9298C4.66459 34 4.41023 33.8946 4.2227 33.7071C4.03516 33.5196 3.9298 33.2652 3.9298 33C3.9298 32.7348 4.03516 32.4804 4.2227 32.2929C4.41023 32.1054 4.66459 32 4.9298 32H59.0698C59.335 32 59.5894 32.1054 59.7769 32.2929C59.9644 32.4804 60.0698 32.7348 60.0698 33C60.0698 33.2652 59.9644 33.5196 59.7769 33.7071C59.5894 33.8946 59.335 34 59.0698 34C42.7798 34 43.8898 34 43.6098 34.08V34.08ZM20.9298 5H43.0698C47.8195 5.01844 52.3693 6.9134 55.7279 10.2719C59.0864 13.6305 60.9814 18.1803 60.9998 22.93C60.9972 23.7434 60.6729 24.5227 60.0977 25.0979C59.5225 25.6731 58.7432 25.9974 57.9298 26H6.0698C5.2564 25.9974 4.47707 25.6731 3.9019 25.0979C3.32673 24.5227 3.00244 23.7434 2.9998 22.93C3.01824 18.1803 4.91321 13.6305 8.27175 10.2719C11.6303 6.9134 16.1801 5.01844 20.9298 5V5ZM2.9998 28H60.9998C61.265 28 61.5194 28.1054 61.7069 28.2929C61.8944 28.4804 61.9998 28.7348 61.9998 29C61.9998 29.2652 61.8944 29.5196 61.7069 29.7071C61.5194 29.8946 61.265 30 60.9998 30H2.9998C2.73459 30 2.48023 29.8946 2.2927 29.7071C2.10516 29.5196 1.9998 29.2652 1.9998 29C1.9998 28.7348 2.10516 28.4804 2.2927 28.2929C2.48023 28.1054 2.73459 28 2.9998 28V28ZM1.9998 38C1.9998 37.4696 2.21052 36.9609 2.58559 36.5858C2.96066 36.2107 3.46937 36 3.9998 36H16.8898L38.7798 41C39.5098 41.16 39.2798 41.15 44.4098 36H59.9998C60.5302 36 61.0389 36.2107 61.414 36.5858C61.7891 36.9609 61.9998 37.4696 61.9998 38V40C61.9998 40.5304 61.7891 41.0391 61.414 41.4142C61.0389 41.7893 60.5302 42 59.9998 42H3.9998C3.46937 42 2.96066 41.7893 2.58559 41.4142C2.21052 41.0391 1.9998 40.5304 1.9998 40V38ZM48.9998 59H14.9998C12.1031 59.0002 9.32324 57.8577 7.26375 55.8207C5.20427 53.7837 4.0314 51.0165 3.9998 48.12C4.9497 48.7291 6.06195 49.036 7.1898 49C10.5698 49 10.7798 47 13.3898 47C15.9998 47 16.2198 49 19.5898 49C22.9598 49 23.1798 47 25.7898 47C28.3998 47 28.6198 49 31.9898 49C35.3598 49 35.5798 47 38.1898 47C40.7998 47 40.9698 49 44.3798 49C47.7898 49 47.9998 47 50.5898 47C53.1798 47 53.4198 49 56.7898 49C57.9201 49.03 59.0338 48.7237 59.9898 48.12C59.9582 51.0148 58.7867 53.7805 56.7294 55.8172C54.6721 57.8539 51.8948 58.9975 48.9998 59V59ZM61.4998 45.16C59.2798 45.69 59.0898 47 56.7898 47C54.1898 47 53.9598 45 50.5898 45C47.2198 45 46.9898 47 44.3798 47C41.7698 47 41.5598 45 38.1898 45C34.8198 45 34.5998 47 31.9998 47C29.3998 47 29.1698 45 25.7998 45C22.4298 45 22.2098 47 19.5998 47C16.9898 47 16.7998 45 13.3998 45C9.9998 45 9.8098 47 7.1998 47C4.9098 47 4.6998 45.68 2.4998 45.16C2.34598 45.1494 2.20267 45.0781 2.1014 44.9618C2.00013 44.8456 1.9492 44.6938 1.9598 44.54C1.97041 44.3862 2.04169 44.2429 2.15797 44.1416C2.27424 44.0403 2.42598 43.9894 2.5798 44H61.4198C61.5736 43.9894 61.7254 44.0403 61.8416 44.1416C61.9579 44.2429 62.0292 44.3862 62.0398 44.54C62.0504 44.6938 61.9995 44.8456 61.8982 44.9618C61.7969 45.0781 61.6536 45.1494 61.4998 45.16V45.16Z" fill="#FF0000"/>
<path d="M32 10C32.2652 10 32.5196 9.89464 32.7071 9.70711C32.8946 9.51957 33 9.26522 33 9C33 8.73478 32.8946 8.48043 32.7071 8.29289C32.5196 8.10536 32.2652 8 32 8C31.7348 8 31.4804 8.10536 31.2929 8.29289C31.1054 8.48043 31 8.73478 31 9C31 9.26522 31.1054 9.51957 31.2929 9.70711C31.4804 9.89464 31.7348 10 32 10Z" fill="#FF0000"/>
<path d="M28 17C28.2652 17 28.5196 16.8946 28.7071 16.7071C28.8946 16.5196 29 16.2652 29 16C29 15.7348 28.8946 15.4804 28.7071 15.2929C28.5196 15.1054 28.2652 15 28 15C27.7348 15 27.4804 15.1054 27.2929 15.2929C27.1054 15.4804 27 15.7348 27 16C27 16.2652 27.1054 16.5196 27.2929 16.7071C27.4804 16.8946 27.7348 17 28 17Z" fill="#FF0000"/>
<path d="M20 17C20.2652 17 20.5196 16.8946 20.7071 16.7071C20.8946 16.5196 21 16.2652 21 16C21 15.7348 20.8946 15.4804 20.7071 15.2929C20.5196 15.1054 20.2652 15 20 15C19.7348 15 19.4804 15.1054 19.2929 15.2929C19.1054 15.4804 19 15.7348 19 16C19 16.2652 19.1054 16.5196 19.2929 16.7071C19.4804 16.8946 19.7348 17 20 17Z" fill="#FF0000"/>
<path d="M12 17C12.2652 17 12.5196 16.8946 12.7071 16.7071C12.8946 16.5196 13 16.2652 13 16C13 15.7348 12.8946 15.4804 12.7071 15.2929C12.5196 15.1054 12.2652 15 12 15C11.7348 15 11.4804 15.1054 11.2929 15.2929C11.1054 15.4804 11 15.7348 11 16C11 16.2652 11.1054 16.5196 11.2929 16.7071C11.4804 16.8946 11.7348 17 12 17V17Z" fill="#FF0000"/>
<path d="M36 17C36.2652 17 36.5196 16.8946 36.7071 16.7071C36.8946 16.5196 37 16.2652 37 16C37 15.7348 36.8946 15.4804 36.7071 15.2929C36.5196 15.1054 36.2652 15 36 15C35.7348 15 35.4804 15.1054 35.2929 15.2929C35.1054 15.4804 35 15.7348 35 16C35 16.2652 35.1054 16.5196 35.2929 16.7071C35.4804 16.8946 35.7348 17 36 17Z" fill="#FF0000"/>
<path d="M44 17C44.2652 17 44.5196 16.8946 44.7071 16.7071C44.8946 16.5196 45 16.2652 45 16C45 15.7348 44.8946 15.4804 44.7071 15.2929C44.5196 15.1054 44.2652 15 44 15C43.7348 15 43.4804 15.1054 43.2929 15.2929C43.1054 15.4804 43 15.7348 43 16C43 16.2652 43.1054 16.5196 43.2929 16.7071C43.4804 16.8946 43.7348 17 44 17Z" fill="#FF0000"/>
<path d="M52 17C52.2652 17 52.5196 16.8946 52.7071 16.7071C52.8946 16.5196 53 16.2652 53 16C53 15.7348 52.8946 15.4804 52.7071 15.2929C52.5196 15.1054 52.2652 15 52 15C51.7348 15 51.4804 15.1054 51.2929 15.2929C51.1054 15.4804 51 15.7348 51 16C51 16.2652 51.1054 16.5196 51.2929 16.7071C51.4804 16.8946 51.7348 17 52 17Z" fill="#FF0000"/>
<path d="M24 10C24.2652 10 24.5196 9.89464 24.7071 9.70711C24.8946 9.51957 25 9.26522 25 9C25 8.73478 24.8946 8.48043 24.7071 8.29289C24.5196 8.10536 24.2652 8 24 8C23.7348 8 23.4804 8.10536 23.2929 8.29289C23.1054 8.48043 23 8.73478 23 9C23 9.26522 23.1054 9.51957 23.2929 9.70711C23.4804 9.89464 23.7348 10 24 10Z" fill="#FF0000"/>
<path d="M16 10C16.2652 10 16.5196 9.89464 16.7071 9.70711C16.8946 9.51957 17 9.26522 17 9C17 8.73478 16.8946 8.48043 16.7071 8.29289C16.5196 8.10536 16.2652 8 16 8C15.7348 8 15.4804 8.10536 15.2929 8.29289C15.1054 8.48043 15 8.73478 15 9C15 9.26522 15.1054 9.51957 15.2929 9.70711C15.4804 9.89464 15.7348 10 16 10V10Z" fill="#FF0000"/>
<path d="M40 10C40.2652 10 40.5196 9.89464 40.7071 9.70711C40.8946 9.51957 41 9.26522 41 9C41 8.73478 40.8946 8.48043 40.7071 8.29289C40.5196 8.10536 40.2652 8 40 8C39.7348 8 39.4804 8.10536 39.2929 8.29289C39.1054 8.48043 39 8.73478 39 9C39 9.26522 39.1054 9.51957 39.2929 9.70711C39.4804 9.89464 39.7348 10 40 10Z" fill="#FF0000"/>
<path d="M48 10C48.2652 10 48.5196 9.89464 48.7071 9.70711C48.8946 9.51957 49 9.26522 49 9C49 8.73478 48.8946 8.48043 48.7071 8.29289C48.5196 8.10536 48.2652 8 48 8C47.7348 8 47.4804 8.10536 47.2929 8.29289C47.1054 8.48043 47 8.73478 47 9C47 9.26522 47.1054 9.51957 47.2929 9.70711C47.4804 9.89464 47.7348 10 48 10Z" fill="#FF0000"/>
</g>
<defs>
<clipPath id="clip0_510_12355">
<rect width="64" height="64" fill="white"/>
</clipPath>
</defs>
</svg>
