<svg width="64" height="64" viewBox="0 0 64 64" fill="none" xmlns="http://www.w3.org/2000/svg">
<g clip-path="url(#clip0_510_12369)">
<path d="M52 10C52 7.55003 49.6299 7.89003 49.8499 6.45003C49.9056 5.86671 49.8305 5.27832 49.63 4.72771C49.4296 4.17711 49.1088 3.67814 48.6911 3.26717C48.2735 2.8562 47.7694 2.54356 47.2156 2.35203C46.6618 2.16051 46.0723 2.09491 45.49 2.16003C43.87 2.44003 44.34 2.64049e-05 41 2.64049e-05C37.81 2.64049e-05 37.58 1.73003 36.49 0.880026C35.8427 0.36552 35.0518 0.064259 34.2263 0.0176983C33.4007 -0.0288625 32.581 0.181566 31.88 0.620026C30.67 1.38003 30.76 2.64049e-05 28 2.64049e-05C27.4462 0.0175827 26.9045 0.166341 26.4195 0.434067C25.9345 0.701793 25.5199 1.08084 25.21 1.54003C24.8099 0.999403 24.2752 0.573015 23.659 0.303321C23.0429 0.0336268 22.3669 -0.0699637 21.6983 0.00286458C21.0297 0.0756928 20.3918 0.322399 19.8482 0.718416C19.3046 1.11443 18.8743 1.64595 18.6 2.26003C18.16 3.26003 17.18 2.26003 15.55 3.11003C15.1443 3.2735 14.7765 3.51838 14.4692 3.82955C14.162 4.14072 13.9217 4.51157 13.7633 4.91921C13.605 5.32684 13.5318 5.76262 13.5485 6.19962C13.5651 6.63663 13.6711 7.06559 13.86 7.46003C13.9349 7.6845 13.9277 7.92827 13.8399 8.14799C13.752 8.36771 13.589 8.54914 13.38 8.66003C10.67 10.27 12.38 14.16 15 14.87V60C15 63.81 29.16 64 32 64C34.84 64 49 63.81 49 60V14.68C49.9402 14.3312 50.7414 13.686 51.2826 12.8417C51.8238 11.9974 52.0756 11 52 10V10ZM47 59C33.68 58.54 23 48.86 23 37C23 25.14 33.68 15.48 47 15V59ZM37.17 15C36.3867 13.1738 35.0726 11.6252 33.3981 10.5552C31.7237 9.48528 29.7663 8.94343 27.78 9.00003C28.7965 7.73787 30.1725 6.81422 31.7256 6.35138C33.2788 5.88853 34.9358 5.90831 36.4775 6.4081C38.0191 6.90789 39.3726 7.86412 40.3588 9.15018C41.345 10.4362 41.9173 11.9915 42 13.61C40.3528 13.9327 38.7367 14.3978 37.17 15V15ZM35.31 15.8C34.1643 16.3528 33.0583 16.9843 32 17.69C28.9867 15.7132 25.6228 14.3317 22.09 13.62C22.99 12.6399 24.1203 11.8997 25.3785 11.4665C26.6368 11.0334 27.9832 10.9209 29.2958 11.1394C30.6085 11.3578 31.8459 11.9003 32.896 12.7176C33.9462 13.5349 34.7759 14.6012 35.31 15.82V15.8ZM30.24 18.92C17.92 28.51 17.91 45.45 30.24 55.04C26.2483 57.4939 21.6834 58.8592 17 59V15C21.6816 15.1348 26.2463 16.4932 30.24 18.94V18.92ZM19.33 60.8C23.8505 60.3335 28.1943 58.7941 32 56.31C35.8018 58.7884 40.137 60.3306 44.65 60.81C38.3 62.4 25.66 62.4 19.33 60.8ZM47.7999 13C46.5155 13.0089 45.233 13.0991 43.96 13.27C43.23 3.27003 29.76 0.440027 25.14 9.43003C22.9918 10.0721 21.1217 11.4174 19.83 13.25C18.5594 13.0908 17.2804 13.0073 16 13C15.4854 12.9531 15.0035 12.7273 14.6381 12.3619C14.2727 11.9965 14.0469 11.5146 14 11C13.9973 10.8686 14.034 10.7394 14.1052 10.6289C14.1765 10.5184 14.2791 10.4318 14.4 10.38C15.0122 10.0273 15.4804 9.46979 15.7219 8.80572C15.9633 8.14165 15.9627 7.41365 15.72 6.75003C15.6224 6.5841 15.5639 6.39818 15.5488 6.20632C15.5336 6.01445 15.5623 5.82166 15.6326 5.6425C15.7029 5.46334 15.813 5.30251 15.9546 5.17215C16.0962 5.04179 16.2656 4.94532 16.45 4.89003C16.678 4.7619 16.9395 4.7061 17.2 4.73003C17.8393 4.8422 18.4978 4.74396 19.0766 4.45005C19.6554 4.15615 20.1233 3.68244 20.41 3.10003C20.5215 2.77013 20.7365 2.48497 21.0229 2.28683C21.3093 2.08869 21.6519 1.98812 22 2.00003C24 2.00003 23.33 3.50003 25.18 3.55003C26.84 3.57003 26.85 2.00003 28 2.00003C28.5424 1.96876 29.0828 2.09 29.56 2.35003C30.0634 2.6759 30.6503 2.84928 31.25 2.84928C31.8496 2.84928 32.4365 2.6759 32.94 2.35003C33.2899 2.11973 33.705 2.00891 34.1232 2.03414C34.5414 2.05938 34.9402 2.21931 35.26 2.49003C35.7494 2.87113 36.3449 3.09115 36.9645 3.11981C37.5842 3.14846 38.1975 2.98434 38.72 2.65003C39.77 1.95003 41.9 1.65003 42.64 2.81003C42.9769 3.327 43.4605 3.73164 44.0288 3.97214C44.5971 4.21264 45.2243 4.27806 45.83 4.16003C46.3604 4.16003 46.8691 4.37074 47.2442 4.74581C47.6192 5.12089 47.83 5.62959 47.83 6.16003C47.7361 6.79894 47.8448 7.4512 48.1408 8.02516C48.4367 8.59912 48.905 9.06594 49.4799 9.36003C49.9199 9.59003 49.9599 9.82003 49.9599 10.02C49.9999 10.94 49.9999 12.23 47.7999 13Z" fill="#FF0000"/>
<path d="M32 31C32.2652 31 32.5196 30.8946 32.7071 30.7071C32.8946 30.5196 33 30.2652 33 30C33 29.7348 32.8946 29.4804 32.7071 29.2929C32.5196 29.1054 32.2652 29 32 29C31.7348 29 31.4804 29.1054 31.2929 29.2929C31.1054 29.4804 31 29.7348 31 30C31 30.2652 31.1054 30.5196 31.2929 30.7071C31.4804 30.8946 31.7348 31 32 31Z" fill="#FF0000"/>
<path d="M30 43C30.2652 43 30.5196 42.8946 30.7071 42.7071C30.8946 42.5196 31 42.2652 31 42C31 41.7348 30.8946 41.4804 30.7071 41.2929C30.5196 41.1054 30.2652 41 30 41C29.7348 41 29.4804 41.1054 29.2929 41.2929C29.1054 41.4804 29 41.7348 29 42C29 42.2652 29.1054 42.5196 29.2929 42.7071C29.4804 42.8946 29.7348 43 30 43Z" fill="#FF0000"/>
<path d="M43 42C43.2652 42 43.5196 41.8946 43.7071 41.7071C43.8946 41.5196 44 41.2652 44 41C44 40.7348 43.8946 40.4804 43.7071 40.2929C43.5196 40.1054 43.2652 40 43 40C42.7348 40 42.4804 40.1054 42.2929 40.2929C42.1054 40.4804 42 40.7348 42 41C42 41.2652 42.1054 41.5196 42.2929 41.7071C42.4804 41.8946 42.7348 42 43 42Z" fill="#FF0000"/>
<path d="M43 26C43.2652 26 43.5196 25.8946 43.7071 25.7071C43.8946 25.5196 44 25.2652 44 25C44 24.7348 43.8946 24.4804 43.7071 24.2929C43.5196 24.1054 43.2652 24 43 24C42.7348 24 42.4804 24.1054 42.2929 24.2929C42.1054 24.4804 42 24.7348 42 25C42 25.2652 42.1054 25.5196 42.2929 25.7071C42.4804 25.8946 42.7348 26 43 26Z" fill="#FF0000"/>
<path d="M23 22C23.2652 22 23.5196 21.8946 23.7071 21.7071C23.8946 21.5196 24 21.2652 24 21C24 20.7348 23.8946 20.4804 23.7071 20.2929C23.5196 20.1054 23.2652 20 23 20C22.7348 20 22.4804 20.1054 22.2929 20.2929C22.1054 20.4804 22 20.7348 22 21C22 21.2652 22.1054 21.5196 22.2929 21.7071C22.4804 21.8946 22.7348 22 23 22Z" fill="#FF0000"/>
<path d="M20 53C20.2652 53 20.5196 52.8946 20.7071 52.7071C20.8946 52.5196 21 52.2652 21 52C21 51.7348 20.8946 51.4804 20.7071 51.2929C20.5196 51.1054 20.2652 51 20 51C19.7348 51 19.4804 51.1054 19.2929 51.2929C19.1054 51.4804 19 51.7348 19 52C19 52.2652 19.1054 52.5196 19.2929 52.7071C19.4804 52.8946 19.7348 53 20 53Z" fill="#FF0000"/>
<path d="M39 53C39.2652 53 39.5196 52.8946 39.7071 52.7071C39.8946 52.5196 40 52.2652 40 52C40 51.7348 39.8946 51.4804 39.7071 51.2929C39.5196 51.1054 39.2652 51 39 51C38.7348 51 38.4804 51.1054 38.2929 51.2929C38.1054 51.4804 38 51.7348 38 52C38 52.2652 38.1054 52.5196 38.2929 52.7071C38.4804 52.8946 38.7348 53 39 53Z" fill="#FF0000"/>
</g>
<defs>
<clipPath id="clip0_510_12369">
<rect width="64" height="64" fill="white"/>
</clipPath>
</defs>
</svg>
