<svg width="64" height="64" viewBox="0 0 64 64" fill="none" xmlns="http://www.w3.org/2000/svg">
<g clip-path="url(#clip0_510_12387)">
<path d="M63.0001 47.9999H50.0001V33.5799C50.0003 33.3292 50.0797 33.085 50.227 32.882C50.3742 32.6791 50.5818 32.5279 50.8201 32.4499C54.2401 31.2999 53.4301 25.9999 49.8201 25.9999H48.0001C47.1155 26.0028 46.2569 26.2988 45.5585 26.8416C44.86 27.3844 44.3612 28.1435 44.1401 28.9999H36.8901C37.7841 28.1219 38.426 27.02 38.7488 25.8093C39.0717 24.5985 39.0636 23.3233 38.7254 22.1167C38.3873 20.9101 37.7314 19.8165 36.8264 18.9499C35.9213 18.0832 34.8002 17.4755 33.5801 17.1899C34.5001 14.6399 36.9101 11.1199 43.1801 9.97994C43.4453 9.9322 43.6807 9.78106 43.8345 9.55977C43.9883 9.33848 44.0478 9.06516 44.0001 8.79994C43.9524 8.53473 43.8012 8.29934 43.5799 8.14556C43.3586 7.99178 43.0853 7.9322 42.8201 7.97994C35.2801 9.34994 32.5501 13.8999 31.5601 16.9799C30.2076 17.0642 28.9086 17.5392 27.8208 18.3473C26.733 19.1554 25.9032 20.262 25.432 21.5325C24.9608 22.8031 24.8686 24.1831 25.1664 25.5051C25.4643 26.8271 26.1395 28.0342 27.1101 28.9799H14.0001C13.2045 28.9799 12.4414 29.296 11.8788 29.8586C11.3162 30.4212 11.0001 31.1843 11.0001 31.9799V47.9999H1.00011C0.734889 47.9999 0.480535 48.1053 0.292999 48.2928C0.105463 48.4804 0.000105768 48.7347 0.000105768 48.9999V49.9999C-0.00335795 50.2382 0.0783513 50.4698 0.230519 50.6531C0.382686 50.8365 0.595312 50.9595 0.830106 50.9999L17.5201 53.9999L19.2901 55.7799C19.7101 56.1999 19.0301 56.0699 32.0001 56.0699C44.7601 56.0699 44.2901 56.1999 44.7101 55.7799L46.4801 53.9999L63.1701 50.9999C64.1701 50.8399 64.0001 49.9199 64.0001 48.9999C64.0001 48.7347 63.8948 48.4804 63.7072 48.2928C63.5197 48.1053 63.2653 47.9999 63.0001 47.9999ZM13.0001 34.9999H44.0001V41.9999C44.0001 42.5304 43.7894 43.0391 43.4143 43.4142C43.0392 43.7892 42.5305 43.9999 42.0001 43.9999H13.0001V34.9999ZM27.0001 23.9999C27.0012 22.8343 27.4095 21.7056 28.1545 20.809C28.8995 19.9125 29.9343 19.3044 31.0801 19.0899C31.0001 19.6399 31.0001 19.9999 31.0001 19.9999C31.0001 20.2652 31.1055 20.5195 31.293 20.7071C31.4805 20.8946 31.7349 20.9999 32.0001 20.9999C32.2653 20.9999 32.5197 20.8946 32.7072 20.7071C32.8948 20.5195 33.0001 20.2652 33.0001 19.9999C33.0094 19.7053 33.0361 19.4114 33.0801 19.1199C34.0005 19.3236 34.8446 19.7832 35.5151 20.4459C36.1855 21.1086 36.6549 21.9474 36.8692 22.8654C37.0835 23.7834 37.0339 24.7432 36.7261 25.6343C36.4184 26.5253 35.865 27.3112 35.1298 27.9012C34.3947 28.4913 33.5077 28.8615 32.5712 28.9692C31.6346 29.0769 30.6868 28.9176 29.8369 28.5097C28.987 28.1019 28.2697 27.4621 27.7678 26.6642C27.2659 25.8662 26.9997 24.9426 27.0001 23.9999V23.9999ZM13.0001 31.9999C13.0001 31.7347 13.1055 31.4804 13.293 31.2928C13.4805 31.1053 13.7349 30.9999 14.0001 30.9999H44.0001V32.9999H13.0001V31.9999ZM13.0001 45.9999H42.0001C43.061 45.9999 44.0784 45.5785 44.8285 44.8284C45.5787 44.0782 46.0001 43.0608 46.0001 41.9999V29.9999C46.0001 29.4695 46.2108 28.9608 46.5859 28.5857C46.961 28.2107 47.4697 27.9999 48.0001 27.9999C49.6901 27.9999 51.0001 27.6999 51.0001 29.4199C50.9999 29.6707 50.9205 29.9149 50.7732 30.1178C50.626 30.3208 50.4184 30.472 50.1801 30.5499C49.5502 30.7617 49.0019 31.1644 48.6112 31.702C48.2206 32.2396 48.007 32.8854 48.0001 33.5499V47.9999H13.0001V45.9999ZM45.8301 51.9999C45.3801 52.0699 45.2901 52.2699 43.5901 53.9999H20.4101C18.7601 52.3499 18.6201 52.0899 18.1701 51.9999L6.75011 49.9999H57.2501L45.8301 51.9999Z" fill="#FF0000"/>
<path d="M18 40C17.7348 40 17.4804 40.1054 17.2929 40.2929C17.1054 40.4804 17 40.7348 17 41C17 41.2652 17.1054 41.5196 17.2929 41.7071C17.4804 41.8946 17.7348 42 18 42C18.2652 42 18.5196 41.8946 18.7071 41.7071C18.8946 41.5196 19 41.2652 19 41C19 40.7348 18.8946 40.4804 18.7071 40.2929C18.5196 40.1054 18.2652 40 18 40Z" fill="#FF0000"/>
<path d="M23 37C22.7348 37 22.4804 37.1054 22.2929 37.2929C22.1054 37.4804 22 37.7348 22 38C22 38.2652 22.1054 38.5196 22.2929 38.7071C22.4804 38.8946 22.7348 39 23 39C23.2652 39 23.5196 38.8946 23.7071 38.7071C23.8946 38.5196 24 38.2652 24 38C24 37.7348 23.8946 37.4804 23.7071 37.2929C23.5196 37.1054 23.2652 37 23 37Z" fill="#FF0000"/>
<path d="M28 40C27.7348 40 27.4804 40.1054 27.2929 40.2929C27.1054 40.4804 27 40.7348 27 41C27 41.2652 27.1054 41.5196 27.2929 41.7071C27.4804 41.8946 27.7348 42 28 42C28.2652 42 28.5196 41.8946 28.7071 41.7071C28.8946 41.5196 29 41.2652 29 41C29 40.7348 28.8946 40.4804 28.7071 40.2929C28.5196 40.1054 28.2652 40 28 40Z" fill="#FF0000"/>
<path d="M33 37C32.7348 37 32.4804 37.1054 32.2929 37.2929C32.1054 37.4804 32 37.7348 32 38C32 38.2652 32.1054 38.5196 32.2929 38.7071C32.4804 38.8946 32.7348 39 33 39C33.2652 39 33.5196 38.8946 33.7071 38.7071C33.8946 38.5196 34 38.2652 34 38C34 37.7348 33.8946 37.4804 33.7071 37.2929C33.5196 37.1054 33.2652 37 33 37Z" fill="#FF0000"/>
<path d="M38 40C37.7348 40 37.4804 40.1054 37.2929 40.2929C37.1054 40.4804 37 40.7348 37 41C37 41.2652 37.1054 41.5196 37.2929 41.7071C37.4804 41.8946 37.7348 42 38 42C38.2652 42 38.5196 41.8946 38.7071 41.7071C38.8946 41.5196 39 41.2652 39 41C39 40.7348 38.8946 40.4804 38.7071 40.2929C38.5196 40.1054 38.2652 40 38 40Z" fill="#FF0000"/>
</g>
<defs>
<clipPath id="clip0_510_12387">
<rect width="64" height="64" fill="white"/>
</clipPath>
</defs>
</svg>
