<svg width="64" height="64" viewBox="0 0 64 64" fill="none" xmlns="http://www.w3.org/2000/svg">
<g clip-path="url(#clip0_510_12379)">
<path d="M11 38C10.0111 38 9.0444 38.2932 8.22215 38.8427C7.39991 39.3921 6.75904 40.173 6.3806 41.0866C6.00217 42.0002 5.90315 43.0055 6.09608 43.9755C6.289 44.9454 6.76521 45.8363 7.46447 46.5355C8.16373 47.2348 9.05465 47.711 10.0246 47.9039C10.9945 48.0969 11.9998 47.9978 12.9134 47.6194C13.827 47.241 14.6079 46.6001 15.1573 45.7779C15.7068 44.9556 16 43.9889 16 43C16 41.6739 15.4732 40.4021 14.5355 39.4645C13.5979 38.5268 12.3261 38 11 38ZM11 46C10.4067 46 9.82664 45.8241 9.33329 45.4944C8.83994 45.1648 8.45543 44.6962 8.22836 44.148C8.0013 43.5999 7.94189 42.9967 8.05765 42.4147C8.1734 41.8328 8.45912 41.2982 8.87868 40.8787C9.29824 40.4591 9.83279 40.1734 10.4147 40.0576C10.9967 39.9419 11.5999 40.0013 12.1481 40.2284C12.6962 40.4554 13.1648 40.8399 13.4944 41.3333C13.8241 41.8266 14 42.4067 14 43C14 43.7956 13.6839 44.5587 13.1213 45.1213C12.5587 45.6839 11.7957 46 11 46Z" fill="#FF0000"/>
<path d="M47 39C47 40.1867 47.3519 41.3467 48.0112 42.3334C48.6705 43.3201 49.6075 44.0892 50.7039 44.5433C51.8003 44.9974 53.0067 45.1162 54.1705 44.8847C55.3344 44.6532 56.4035 44.0818 57.2426 43.2426C58.0818 42.4035 58.6532 41.3344 58.8847 40.1705C59.1162 39.0067 58.9974 37.8003 58.5433 36.7039C58.0892 35.6075 57.3201 34.6705 56.3334 34.0112C55.3467 33.3519 54.1867 33 53 33C51.4087 33 49.8826 33.6321 48.7574 34.7574C47.6321 35.8826 47 37.4087 47 39V39ZM57 39C57 39.7911 56.7654 40.5645 56.3259 41.2223C55.8864 41.8801 55.2616 42.3928 54.5307 42.6955C53.7998 42.9983 52.9956 43.0775 52.2196 42.9231C51.4437 42.7688 50.731 42.3878 50.1716 41.8284C49.6122 41.269 49.2312 40.5563 49.0769 39.7804C48.9225 39.0044 49.0017 38.2002 49.3045 37.4693C49.6072 36.7384 50.1199 36.1136 50.7777 35.6741C51.4355 35.2346 52.2089 35 53 35C54.0609 35 55.0783 35.4214 55.8284 36.1716C56.5786 36.9217 57 37.9391 57 39Z" fill="#FF0000"/>
<path d="M25 32C24.2089 32 23.4355 32.2346 22.7777 32.6741C22.1199 33.1136 21.6072 33.7384 21.3045 34.4693C21.0017 35.2002 20.9225 36.0044 21.0769 36.7804C21.2312 37.5563 21.6122 38.269 22.1716 38.8284C22.731 39.3878 23.4437 39.7688 24.2196 39.9231C24.9956 40.0775 25.7998 39.9983 26.5307 39.6955C27.2616 39.3928 27.8864 38.8801 28.3259 38.2223C28.7654 37.5645 29 36.7911 29 36C29 34.9391 28.5786 33.9217 27.8284 33.1716C27.0783 32.4214 26.0609 32 25 32ZM25 38C24.6044 38 24.2178 37.8827 23.8889 37.6629C23.56 37.4432 23.3036 37.1308 23.1522 36.7654C23.0009 36.3999 22.9613 35.9978 23.0384 35.6098C23.1156 35.2219 23.3061 34.8655 23.5858 34.5858C23.8655 34.3061 24.2219 34.1156 24.6098 34.0384C24.9978 33.9613 25.3999 34.0009 25.7654 34.1522C26.1308 34.3036 26.4432 34.56 26.6629 34.8889C26.8827 35.2178 27 35.6044 27 36C27 36.5304 26.7893 37.0391 26.4142 37.4142C26.0391 37.7893 25.5304 38 25 38Z" fill="#FF0000"/>
<path d="M38 41C37.0111 41 36.0444 41.2932 35.2222 41.8427C34.3999 42.3921 33.759 43.173 33.3806 44.0866C33.0022 45.0002 32.9031 46.0055 33.0961 46.9755C33.289 47.9454 33.7652 48.8363 34.4645 49.5355C35.1637 50.2348 36.0546 50.711 37.0245 50.9039C37.9945 51.0969 38.9998 50.9978 39.9134 50.6194C40.8271 50.241 41.6079 49.6001 42.1574 48.7779C42.7068 47.9556 43 46.9889 43 46C43 44.6739 42.4732 43.4021 41.5355 42.4645C40.5979 41.5268 39.3261 41 38 41V41ZM38 49C37.4067 49 36.8266 48.8241 36.3333 48.4944C35.8399 48.1648 35.4554 47.6962 35.2284 47.148C35.0013 46.5999 34.9419 45.9967 35.0576 45.4147C35.1734 44.8328 35.4591 44.2982 35.8787 43.8787C36.2982 43.4591 36.8328 43.1734 37.4147 43.0576C37.9967 42.9419 38.5999 43.0013 39.1481 43.2284C39.6962 43.4554 40.1648 43.8399 40.4944 44.3333C40.8241 44.8266 41 45.4067 41 46C41 46.7956 40.6839 47.5587 40.1213 48.1213C39.5587 48.6839 38.7957 49 38 49Z" fill="#FF0000"/>
<path d="M47.4 8.07996C46.83 7.82996 48.27 7.35996 28.4 15.97C28.1738 16.0694 27.9924 16.2491 27.8909 16.4744C27.7893 16.6997 27.7748 16.9546 27.85 17.19C28.85 20.46 24.17 22.56 22.39 19.54C22.2662 19.3296 22.0698 19.1718 21.8377 19.0963C21.6056 19.0208 21.3539 19.0328 21.13 19.13C-0.999985 28.78 0.510015 28.05 0.240015 28.36C-0.0299848 28.67 1.51744e-05 26.89 1.51744e-05 55C1.51744e-05 55.2652 0.105372 55.5195 0.292908 55.7071C0.480445 55.8946 0.734799 56 1.00002 56H18C18.2652 56 18.5196 55.8946 18.7071 55.7071C18.8947 55.5195 19 55.2652 19 55C19 54.2043 19.3161 53.4412 19.8787 52.8786C20.4413 52.316 21.2044 52 22 52C22.7957 52 23.5587 52.316 24.1213 52.8786C24.6839 53.4412 25 54.2043 25 55C25 55.2652 25.1054 55.5195 25.2929 55.7071C25.4804 55.8946 25.7348 56 26 56H63C63.2652 56 63.5196 55.8946 63.7071 55.7071C63.8947 55.5195 64 55.2652 64 55V29C64 21.1 57 12.3 47.4 8.07996ZM21.23 21.29C21.9249 22.1027 22.862 22.6713 23.9038 22.9123C24.9456 23.1532 26.0372 23.0538 27.0183 22.6287C27.9995 22.2036 28.8185 21.4751 29.3552 20.5502C29.8918 19.6253 30.1178 18.5527 30 17.49L47 10.09C55.3 13.88 61.4 21.23 62 28H48.81C47.32 24 38.68 24 37.19 28H5.80002L21.23 21.29ZM47 29C47 29.94 45.29 31 43 31C40.71 31 39 29.94 39 29C39 28.06 40.71 27 43 27C45.29 27 47 28.06 47 29ZM62 54H26.9C26.6705 52.8697 26.0573 51.8535 25.1643 51.1236C24.2713 50.3937 23.1534 49.9949 22 49.9949C20.8467 49.9949 19.7288 50.3937 18.8358 51.1236C17.9427 51.8535 17.3295 52.8697 17.1 54H2.00002V30H37.19C38.68 34 47.32 34 48.81 30H62V54Z" fill="#FF0000"/>
<path d="M47 21C47.7911 21 48.5645 20.7654 49.2223 20.3259C49.8801 19.8864 50.3928 19.2616 50.6955 18.5307C50.9983 17.7998 51.0775 16.9956 50.9231 16.2196C50.7688 15.4437 50.3878 14.731 49.8284 14.1716C49.269 13.6122 48.5563 13.2312 47.7804 13.0769C47.0044 12.9225 46.2002 13.0017 45.4693 13.3045C44.7384 13.6072 44.1136 14.1199 43.6741 14.7777C43.2346 15.4355 43 16.2089 43 17C43 18.0609 43.4214 19.0783 44.1716 19.8284C44.9217 20.5786 45.9391 21 47 21ZM47 15C47.3956 15 47.7822 15.1173 48.1111 15.3371C48.44 15.5568 48.6964 15.8692 48.8478 16.2346C48.9991 16.6001 49.0387 17.0022 48.9616 17.3902C48.8844 17.7781 48.6939 18.1345 48.4142 18.4142C48.1345 18.6939 47.7781 18.8844 47.3902 18.9616C47.0022 19.0387 46.6001 18.9991 46.2346 18.8478C45.8692 18.6964 45.5568 18.44 45.3371 18.1111C45.1173 17.7822 45 17.3956 45 17C45 16.4696 45.2107 15.9609 45.5858 15.5858C45.9609 15.2107 46.4696 15 47 15V15Z" fill="#FF0000"/>
</g>
<defs>
<clipPath id="clip0_510_12379">
<rect width="64" height="64" fill="white"/>
</clipPath>
</defs>
</svg>
