<svg width="64" height="64" viewBox="0 0 64 64" fill="none" xmlns="http://www.w3.org/2000/svg">
<g clip-path="url(#clip0_510_12395)">
<path d="M29 14H35C35.2652 14 35.5196 13.8946 35.7071 13.7071C35.8946 13.5196 36 13.2652 36 13V5C36 4.73478 35.8946 4.48043 35.7071 4.29289C35.5196 4.10536 35.2652 4 35 4H29C28.7348 4 28.4804 4.10536 28.2929 4.29289C28.1054 4.48043 28 4.73478 28 5V13C28 13.2652 28.1054 13.5196 28.2929 13.7071C28.4804 13.8946 28.7348 14 29 14ZM30 6H34V12H30V6Z" fill="#FF0000"/>
<path d="M39 14H45C45.2652 14 45.5196 13.8946 45.7071 13.7071C45.8946 13.5196 46 13.2652 46 13V5C46 4.73478 45.8946 4.48043 45.7071 4.29289C45.5196 4.10536 45.2652 4 45 4H39C38.7348 4 38.4804 4.10536 38.2929 4.29289C38.1054 4.48043 38 4.73478 38 5V13C38 13.2652 38.1054 13.5196 38.2929 13.7071C38.4804 13.8946 38.7348 14 39 14ZM40 6H44V12H40V6Z" fill="#FF0000"/>
<path d="M19 14H25C25.2652 14 25.5196 13.8946 25.7071 13.7071C25.8946 13.5196 26 13.2652 26 13V5C26 4.73478 25.8946 4.48043 25.7071 4.29289C25.5196 4.10536 25.2652 4 25 4H19C18.7348 4 18.4804 4.10536 18.2929 4.29289C18.1054 4.48043 18 4.73478 18 5V13C18 13.2652 18.1054 13.5196 18.2929 13.7071C18.4804 13.8946 18.7348 14 19 14ZM20 6H24V12H20V6Z" fill="#FF0000"/>
<path d="M57.9099 25.59C55.0499 19.15 54.9099 18.11 53.0599 16.9C52.1473 16.3129 51.0851 16.0005 49.9999 16V1C49.9999 0.734784 49.8946 0.48043 49.707 0.292893C49.5195 0.105357 49.2651 0 48.9999 0L14.9999 0C14.7347 0 14.4804 0.105357 14.2928 0.292893C14.1053 0.48043 13.9999 0.734784 13.9999 1C13.9999 31.1 14.0499 29 13.8899 29C12.8334 29.0212 11.8176 29.412 11.0193 30.1044C10.2209 30.7968 9.69039 31.7471 9.51993 32.79C7.90993 42.45 7.80993 42.15 8.23993 42.65C8.33381 42.7598 8.45036 42.8479 8.58156 42.9083C8.71276 42.9687 8.85548 43 8.99993 43C10.5173 42.8645 11.9362 42.1906 12.9999 41.1V63C12.9999 63.2652 13.1053 63.5196 13.2928 63.7071C13.4804 63.8946 13.7347 64 13.9999 64H49.9999C50.2651 64 50.5195 63.8946 50.707 63.7071C50.8946 63.5196 50.9999 63.2652 50.9999 63V28.53C53.2808 28.6098 55.5366 28.0337 57.4999 26.87C57.7151 26.7457 57.8762 26.5458 57.952 26.3092C58.0278 26.0725 58.0128 25.8162 57.9099 25.59ZM15.9999 2H47.9999V16.6C45.5999 17.43 45.9999 17.45 45.9999 17C45.9999 16.7348 45.8946 16.4804 45.707 16.2929C45.5195 16.1054 45.2651 16 44.9999 16H38.9999C38.7347 16 38.4804 16.1054 38.2928 16.2929C38.1053 16.4804 37.9999 16.7348 37.9999 17V20.41L35.9999 21.2V17C35.9999 16.7348 35.8946 16.4804 35.707 16.2929C35.5195 16.1054 35.2651 16 34.9999 16H28.9999C28.7347 16 28.4804 16.1054 28.2928 16.2929C28.1053 16.4804 27.9999 16.7348 27.9999 17V24.33C25.6399 25.23 25.9999 25.12 25.9999 25V17C25.9999 16.7348 25.8946 16.4804 25.707 16.2929C25.5195 16.1054 25.2651 16 24.9999 16H18.9999C18.7347 16 18.4804 16.1054 18.2928 16.2929C18.1053 16.4804 17.9999 16.7348 17.9999 17V25C17.9999 25.2652 18.1053 25.5196 18.2928 25.7071C18.4804 25.8946 18.7347 26 18.9999 26H23.5299C20.7699 27 18.1699 27.87 15.9999 28.47V2ZM43.9999 18.06L39.9999 19.62V18C44.4499 18 43.9999 18 43.9999 18.06ZM29.9999 23.56V18H33.9999V22L29.9999 23.56ZM23.9999 24H19.9999V18H23.9999V24ZM14.9999 62V39.15C16.2039 37.7603 17.511 36.4633 18.9099 35.27C19.2489 35.5479 19.6139 35.7924 19.9999 36V55C19.9999 55.2652 20.1053 55.5196 20.2928 55.7071C20.4804 55.8946 20.7347 56 20.9999 56H42.9999C43.2651 56 43.5195 55.8946 43.707 55.7071C43.8946 55.5196 43.9999 55.2652 43.9999 55C43.9999 24.1 43.8799 26.35 44.2499 26.16C45.6786 27.1676 47.2931 27.8815 48.9999 28.26V62H14.9999ZM28.1099 32.13C31.5699 37.3 35.9999 38 35.9999 36C35.9999 32.07 39.4299 29.11 41.9999 27.45V54H21.9999V36.69C24.7399 36.93 26.7899 34.56 28.1099 32.13ZM44.9999 24.25C44.8635 24.1351 44.6989 24.0587 44.5231 24.0288C44.3472 23.9989 44.1666 24.0166 43.9999 24.08C43.6099 24.25 34.9999 28.01 34.0899 34.86C31.6999 34.14 29.5899 30.86 28.9099 29.55C28.8224 29.3763 28.6862 29.2318 28.5179 29.1344C28.3495 29.0369 28.1564 28.9906 27.9622 29.0012C27.768 29.0118 27.5811 29.0789 27.4244 29.1941C27.2677 29.3093 27.148 29.4678 27.0799 29.65C26.6299 30.89 24.9899 34.2 22.8899 34.65C22.377 34.7525 21.8448 34.6894 21.3699 34.47C19.8399 33.81 19.5399 32.47 18.4999 33.13C15.5899 34.89 12.7699 39.32 10.2599 40.64L11.5199 33.11C11.6169 32.5218 11.9193 31.987 12.3734 31.6007C12.8274 31.2143 13.4038 31.0015 13.9999 31C17.7399 31 44.5299 19.72 50.1399 18C50.7901 18.0304 51.421 18.2303 51.9699 18.58C53.1699 19.36 53.1799 19.85 55.7099 25.58C53.9845 26.4059 52.0584 26.7196 50.1601 26.4838C48.2618 26.2481 46.4709 25.4728 44.9999 24.25V24.25Z" fill="#FF0000"/>
</g>
<defs>
<clipPath id="clip0_510_12395">
<rect width="64" height="64" fill="white"/>
</clipPath>
</defs>
</svg>
