<svg width="64" height="64" viewBox="0 0 64 64" fill="none" xmlns="http://www.w3.org/2000/svg">
<g clip-path="url(#clip0_510_12401)">
<path d="M25.7199 15.3C27.5099 13.87 28.7199 13.03 28.7199 13.02C28.8406 12.9368 28.9415 12.8281 29.0155 12.7016C29.0896 12.575 29.1348 12.4338 29.1482 12.2878C29.1616 12.1418 29.1427 11.9947 29.0928 11.8568C29.043 11.719 28.9635 11.5937 28.8599 11.49C19.6299 2.27002 20.2299 2.66002 19.5799 2.72002C18.9299 2.78002 19.0999 3.13002 15.7699 7.15002L7.35991 0.230022C7.16021 0.0739573 6.90871 -0.000459601 6.65625 0.0218167C6.40378 0.0440929 6.16919 0.1614 5.99991 0.350022L3.75991 3.00002C3.58941 3.19976 3.50432 3.45856 3.52303 3.72051C3.54174 3.98246 3.66275 4.22654 3.85991 4.40002L11.9999 11.44L11.2099 12.24C11.1099 12.34 11.4199 12.53 4.33991 4.75002C4.16231 4.55716 3.91608 4.44176 3.65423 4.42866C3.39238 4.41557 3.13586 4.50584 2.93991 4.68002L0.33991 6.94002C0.142748 7.1135 0.0217423 7.35758 0.00303156 7.61953C-0.0156792 7.88148 0.0694068 8.14028 0.23991 8.34002L6.91991 16.14C2.24991 20.14 1.79991 19.75 1.71991 20.6C1.65991 21.27 1.34991 20.73 10.4899 29.88C10.5937 29.9842 10.7192 30.0642 10.8575 30.1144C10.9958 30.1645 11.1434 30.1835 11.2899 30.17C12.0899 30.09 11.7599 29.77 15.1199 25.72C49.0199 65.32 47.8999 64.72 49.0099 63.72C53.6799 59.59 53.5799 59.82 53.6099 59.26C53.6399 58.7 55.8599 61.26 19.2399 21.12C19.4299 20.93 19.8199 20.51 21.0399 19.35C61.3199 54.62 58.7599 52.54 59.3199 52.54C59.4643 52.54 59.6071 52.5087 59.7383 52.4483C59.8695 52.3879 59.986 52.2998 60.0799 52.19C64.0799 47.43 64.0799 47.68 63.9999 47.11C63.9199 46.54 66.3099 48.63 25.7199 15.3ZM19.8099 5.30002L26.6299 12.12C26.0299 12.56 25.1699 13.22 24.1399 14.05L17.3299 8.45002C18.4199 7.10002 19.2699 6.00002 19.8099 5.26002V5.30002ZM11.0799 27.63L4.25991 20.82C5.13991 20.17 6.54991 19.09 8.25991 17.66L13.8399 24.18C12.5999 25.62 11.6499 26.85 11.0799 27.63ZM48.4499 61.63L2.39991 7.79002L3.47991 6.79002L51.1899 59.16L48.4499 61.63ZM17.8899 19.67L12.4899 13.74C12.9899 13.25 12.9799 13.24 13.4899 12.74L19.5499 18.05C18.3799 19.15 17.9999 19.53 17.8899 19.67ZM59.2199 50.12C5.82991 3.42002 120.86 104.05 5.91991 3.50002L6.84991 2.40002L61.5799 47.33L59.2199 50.12Z" fill="#FF0000"/>
</g>
<defs>
<clipPath id="clip0_510_12401">
<rect width="64" height="64" fill="white"/>
</clipPath>
</defs>
</svg>
