<svg width="64" height="64" viewBox="0 0 64 64" fill="none" xmlns="http://www.w3.org/2000/svg">
<g clip-path="url(#clip0_510_12404)">
<path d="M48.41 6.99994L53.71 1.70994C53.8983 1.52164 54.0041 1.26624 54.0041 0.999941C54.0041 0.73364 53.8983 0.478245 53.71 0.289941C53.5217 0.101638 53.2663 -0.00415039 53 -0.00415039C52.7337 -0.00415039 52.4783 0.101638 52.29 0.289941L45.59 6.99994H11C10.8108 6.9993 10.6252 7.05236 10.4649 7.15296C10.3047 7.25357 10.1762 7.39759 10.0945 7.56828C10.0129 7.73898 9.98129 7.92935 10.0035 8.11728C10.0257 8.30521 10.1008 8.48298 10.22 8.62994L31 34.3499V59.9999C31 60.5304 30.7893 61.0391 30.4142 61.4142C30.0391 61.7892 29.5304 61.9999 29 61.9999H20C19.7348 61.9999 19.4804 62.1053 19.2929 62.2928C19.1053 62.4804 19 62.7347 19 62.9999C19 63.2652 19.1053 63.5195 19.2929 63.7071C19.4804 63.8946 19.7348 63.9999 20 63.9999H44C44.2652 63.9999 44.5196 63.8946 44.7071 63.7071C44.8946 63.5195 45 63.2652 45 62.9999C45 62.7347 44.8946 62.4804 44.7071 62.2928C44.5196 62.1053 44.2652 61.9999 44 61.9999H35C34.4696 61.9999 33.9609 61.7892 33.5858 61.4142C33.2107 61.0391 33 60.5304 33 59.9999V34.3499C55.43 6.57994 54.29 8.38994 53.9 7.56994C53.51 6.74994 53.21 6.99994 48.41 6.99994ZM32 32.4099L13.09 8.99994H43.59L36 16.5699C35.2412 16.1542 34.368 15.9957 33.5115 16.1182C32.655 16.2407 31.8613 16.6377 31.2495 17.2495C30.6377 17.8613 30.2408 18.655 30.1183 19.5115C29.9957 20.368 30.1542 21.2411 30.57 21.9999L28.29 24.2699C28.1017 24.4582 27.9959 24.7136 27.9959 24.9799C27.9959 25.2462 28.1017 25.5016 28.29 25.6899C28.4783 25.8782 28.7337 25.984 29 25.984C29.2663 25.984 29.5217 25.8782 29.71 25.6899L32 23.4299C32.7588 23.8457 33.6319 24.0042 34.4884 23.8817C35.345 23.7592 36.1387 23.3622 36.7505 22.7504C37.3623 22.1386 37.7592 21.3449 37.8817 20.4884C38.0043 19.6319 37.8457 18.7587 37.43 17.9999L46.43 8.99994H50.93L32 32.4099ZM36 19.9999C36 20.3955 35.8827 20.7822 35.6629 21.1111C35.4432 21.44 35.1308 21.6963 34.7654 21.8477C34.3999 21.9991 33.9978 22.0387 33.6098 21.9615C33.2218 21.8843 32.8655 21.6939 32.5858 21.4142C32.3061 21.1344 32.1156 20.7781 32.0384 20.3901C31.9613 20.0022 32.0009 19.6 32.1522 19.2346C32.3036 18.8691 32.56 18.5568 32.8889 18.337C33.2177 18.1172 33.6044 17.9999 34 17.9999C34.5304 17.9999 35.0391 18.2107 35.4142 18.5857C35.7893 18.9608 36 19.4695 36 19.9999Z" fill="#FF0000"/>
</g>
<defs>
<clipPath id="clip0_510_12404">
<rect width="64" height="64" fill="white"/>
</clipPath>
</defs>
</svg>
