<svg width="64" height="64" viewBox="0 0 64 64" fill="none" xmlns="http://www.w3.org/2000/svg">
<g clip-path="url(#clip0_510_12406)">
<path d="M32 45C33.9778 45 35.9112 44.4135 37.5557 43.3147C39.2002 42.2159 40.4819 40.6541 41.2388 38.8268C41.9957 36.9996 42.1937 34.9889 41.8079 33.0491C41.422 31.1093 40.4696 29.3275 39.0711 27.9289C37.6725 26.5304 35.8907 25.578 33.9509 25.1922C32.0111 24.8063 30.0004 25.0043 28.1732 25.7612C26.3459 26.5181 24.7841 27.7998 23.6853 29.4443C22.5865 31.0888 22 33.0222 22 35C22 37.6522 23.0536 40.1957 24.9289 42.0711C26.8043 43.9464 29.3478 45 32 45ZM32 27C33.5823 27 35.129 27.4692 36.4446 28.3482C37.7602 29.2273 38.7855 30.4767 39.391 31.9385C39.9965 33.4003 40.155 35.0089 39.8463 36.5607C39.5376 38.1126 38.7757 39.538 37.6569 40.6569C36.538 41.7757 35.1126 42.5376 33.5607 42.8463C32.0089 43.155 30.4003 42.9965 28.9385 42.391C27.4767 41.7855 26.2273 40.7602 25.3482 39.4446C24.4692 38.129 24 36.5823 24 35C24 32.8783 24.8429 30.8434 26.3431 29.3432C27.8434 27.8429 29.8783 27 32 27V27Z" fill="#FF0000"/>
<path d="M51 6.00002C50.6 6.00002 51 6.75002 49 0.680017C48.9304 0.473036 48.795 0.294519 48.6144 0.171731C48.4339 0.0489436 48.2181 -0.0113649 48 1.71841e-05H16C15.7904 -0.000523978 15.5859 0.0648361 15.4154 0.186859C15.2449 0.308882 15.1171 0.481396 15.05 0.680017L13.28 6.00002C12.6002 5.96189 11.9198 6.063 11.2805 6.29714C10.6412 6.53129 10.0564 6.89354 9.56204 7.36168C9.06768 7.82983 8.67413 8.39401 8.40553 9.01964C8.13693 9.64527 7.99894 10.3192 8.00001 11V13C8.00001 13.2652 8.10536 13.5196 8.2929 13.7071C8.48044 13.8947 8.73479 14 9.00001 14H10.09L10.8 21C10.5381 21.0254 10.2967 21.153 10.1282 21.3552C9.95972 21.5573 9.87773 21.8178 9.90001 22.08L12.5 48.08C12.5249 48.3275 12.6411 48.5569 12.826 48.7233C13.0109 48.8897 13.2512 48.9813 13.5 48.98C13.64 48.98 13.44 47.48 15 63.08C15.0249 63.3275 15.1411 63.5569 15.326 63.7233C15.5109 63.8897 15.7512 63.9813 16 63.98H48C48.2488 63.9813 48.4891 63.8897 48.674 63.7233C48.8589 63.5569 48.9751 63.3275 49 63.08L50.41 49C50.6739 49.0251 50.9369 48.9444 51.1413 48.7756C51.3457 48.6069 51.4747 48.3639 51.5 48.1C54.33 19.78 54.27 21.8 53.84 21.33C53 20.44 53 23 53.91 14H55C55.2652 14 55.5196 13.8947 55.7071 13.7071C55.8947 13.5196 56 13.2652 56 13V11C56 9.67393 55.4732 8.40217 54.5355 7.46448C53.5979 6.5268 52.3261 6.00002 51 6.00002V6.00002ZM16.72 2.00002H47.28L48.61 6.00002H15.39L16.72 2.00002ZM47.1 62H16.9L15.61 49H48.39L47.1 62ZM49.6 47H14.4L12 23H52L49.6 47ZM51.2 21H12.8L12.1 14H51.9L51.2 21ZM54 12H10V11C10 10.2044 10.3161 9.44131 10.8787 8.8787C11.4413 8.31609 12.2044 8.00002 13 8.00002H51C51.7957 8.00002 52.5587 8.31609 53.1213 8.8787C53.6839 9.44131 54 10.2044 54 11V12Z" fill="#FF0000"/>
</g>
<defs>
<clipPath id="clip0_510_12406">
<rect width="64" height="64" fill="white"/>
</clipPath>
</defs>
</svg>
