<svg width="64" height="64" viewBox="0 0 64 64" fill="none" xmlns="http://www.w3.org/2000/svg">
<g clip-path="url(#clip0_510_12410)">
<path d="M50.9999 12C50.9999 11.61 50.9999 11.75 47.4899 5.59C48.0572 5.25849 48.4999 4.74992 48.7501 4.14243C49.0003 3.53493 49.0442 2.86209 48.875 2.22724C48.7058 1.5924 48.3328 1.03065 47.8134 0.628293C47.294 0.225931 46.6569 0.00519947 45.9999 0L17.9999 0C17.3429 0.00519947 16.7058 0.225931 16.1864 0.628293C15.667 1.03065 15.2941 1.5924 15.1249 2.22724C14.9557 2.86209 14.9995 3.53493 15.2497 4.14243C15.5 4.74992 15.9427 5.25849 16.5099 5.59C12.9999 11.79 12.9999 11.62 12.9999 12C12.9999 12.1 12.9099 57.17 13.1699 57.56C17.3799 63.87 17.2599 64 17.9999 64C48.1999 64 46.3999 64.21 46.8299 63.55C51.0699 57.19 50.9999 57.43 50.9999 57C51.0499 54 50.9999 70.54 50.9999 12ZM14.9999 56V13H34.6099C33.2199 16 30.6099 23.09 33.0499 30.32C36.9999 42.06 36.8599 49.56 32.6599 56H14.9999ZM34.9999 29.68C32.5199 22.4 35.8399 15 36.8299 13H43.1599C40.9558 15.0206 39.2518 17.5261 38.1827 20.3187C37.1136 23.1112 36.7087 26.1141 36.9999 29.09C37.9999 40.14 43.7199 43.91 41.1999 56H34.9999C38.9199 49.25 38.8699 41.45 34.9999 29.68ZM38.9999 28.91C38.7128 25.8506 39.2363 22.7696 40.5177 19.9767C41.7992 17.1838 43.7934 14.7776 46.2999 13H48.9999V56H43.2299C45.6699 43.62 39.9999 39.36 38.9999 28.91ZM17.9999 2H45.9999C46.2651 2 46.5195 2.10536 46.707 2.29289C46.8946 2.48043 46.9999 2.73478 46.9999 3C46.9999 3.26522 46.8946 3.51957 46.707 3.70711C46.5195 3.89464 46.2651 4 45.9999 4H17.9999C17.7347 4 17.4804 3.89464 17.2928 3.70711C17.1053 3.51957 16.9999 3.26522 16.9999 3C16.9999 2.73478 17.1053 2.48043 17.2928 2.29289C17.4804 2.10536 17.7347 2 17.9999 2ZM18.5799 6H45.4199L48.2799 11H15.7199L18.5799 6ZM45.4599 62H18.5399L15.8699 58H48.1299L45.4599 62Z" fill="#FF0000"/>
</g>
<defs>
<clipPath id="clip0_510_12410">
<rect width="64" height="64" fill="white"/>
</clipPath>
</defs>
</svg>
