<svg width="64" height="64" viewBox="0 0 64 64" fill="none" xmlns="http://www.w3.org/2000/svg">
<g clip-path="url(#clip0_510_12413)">
<path d="M64.0002 22.0001C64.0002 2.48005 40.2602 -7.37994 26.4402 6.44005C22.7474 10.0667 20.4949 14.9093 20.1002 20.0701C14.9309 20.4887 10.0836 22.7491 6.4402 26.4401C-7.3098 40.2001 2.35019 64.0001 22.0002 64.0001C27.5079 63.9977 32.8143 61.9295 36.871 58.2042C40.9277 54.479 43.4395 49.3676 43.9102 43.8801C49.394 43.4206 54.5045 40.9153 58.2264 36.8618C61.9483 32.8083 64.0094 27.5031 64.0002 22.0001V22.0001ZM22.0002 62.0001C4.17019 62.0001 -4.6698 40.3801 7.8602 27.8601C20.3902 15.3401 42.0002 24.2301 42.0002 42.0001C42.0002 47.3044 39.8931 52.3915 36.1423 56.1422C32.3916 59.8929 27.3045 62.0001 22.0002 62.0001ZM44.0002 41.8701C43.966 36.0768 41.6482 30.5309 37.5498 26.4363C33.4515 22.3417 27.9034 20.0289 22.1102 20.0001C22.4097 16.8951 23.4353 13.9042 25.1041 11.2688C26.773 8.63346 29.0382 6.42754 31.717 4.82925C34.3957 3.23096 37.4128 2.28512 40.5246 2.06812C43.6364 1.85111 46.7555 2.36904 49.6302 3.58005C68.8902 11.5501 64.5502 39.8501 44.0002 41.8701Z" fill="#FF0000"/>
<path d="M34 37C33.0111 37 32.0444 37.2932 31.2222 37.8427C30.3999 38.3921 29.759 39.173 29.3806 40.0866C29.0022 41.0002 28.9031 42.0055 29.0961 42.9755C29.289 43.9454 29.7652 44.8363 30.4645 45.5355C31.1637 46.2348 32.0546 46.711 33.0246 46.9039C33.9945 47.0969 34.9998 46.9978 35.9134 46.6194C36.8271 46.241 37.6079 45.6001 38.1574 44.7779C38.7068 43.9556 39 42.9889 39 42C39 40.6739 38.4732 39.4021 37.5355 38.4645C36.5979 37.5268 35.3261 37 34 37ZM34 45C33.4067 45 32.8266 44.8241 32.3333 44.4944C31.8399 44.1648 31.4554 43.6962 31.2284 43.148C31.0013 42.5999 30.9419 41.9967 31.0576 41.4147C31.1734 40.8328 31.4591 40.2982 31.8787 39.8787C32.2982 39.4591 32.8328 39.1734 33.4147 39.0576C33.9967 38.9419 34.5999 39.0013 35.1481 39.2284C35.6962 39.4554 36.1648 39.8399 36.4944 40.3333C36.8241 40.8266 37 41.4067 37 42C37 42.7956 36.6839 43.5587 36.1213 44.1213C35.5587 44.6839 34.7957 45 34 45Z" fill="#FF0000"/>
<path d="M11 45C10.2089 45 9.43552 45.2346 8.77772 45.6741C8.11992 46.1136 7.60723 46.7384 7.30448 47.4693C7.00173 48.2002 6.92252 49.0044 7.07686 49.7804C7.2312 50.5563 7.61216 51.269 8.17157 51.8284C8.73098 52.3878 9.44372 52.7688 10.2196 52.9231C10.9956 53.0775 11.7998 52.9983 12.5307 52.6955C13.2616 52.3928 13.8864 51.8801 14.3259 51.2223C14.7654 50.5645 15 49.7911 15 49C15 47.9391 14.5786 46.9217 13.8284 46.1716C13.0783 45.4214 12.0609 45 11 45ZM11 51C10.6044 51 10.2178 50.8827 9.88886 50.6629C9.55996 50.4432 9.30362 50.1308 9.15224 49.7654C9.00087 49.3999 8.96126 48.9978 9.03843 48.6098C9.1156 48.2219 9.30608 47.8655 9.58579 47.5858C9.86549 47.3061 10.2219 47.1156 10.6098 47.0384C10.9978 46.9613 11.3999 47.0009 11.7654 47.1522C12.1308 47.3036 12.4432 47.56 12.6629 47.8889C12.8827 48.2178 13 48.6044 13 49C13 49.5304 12.7893 50.0391 12.4142 50.4142C12.0391 50.7893 11.5304 51 11 51Z" fill="#FF0000"/>
<path d="M11.5 35C11.5 34.3078 11.2947 33.6311 10.9101 33.0555C10.5256 32.4799 9.97893 32.0313 9.33939 31.7664C8.69985 31.5015 7.99612 31.4322 7.31719 31.5673C6.63825 31.7023 6.01461 32.0356 5.52513 32.5251C5.03564 33.0146 4.7023 33.6383 4.56725 34.3172C4.4322 34.9961 4.50152 35.6999 4.76642 36.3394C5.03133 36.9789 5.47993 37.5256 6.05551 37.9101C6.63108 38.2947 7.30777 38.5 8 38.5C8.92826 38.5 9.8185 38.1313 10.4749 37.4749C11.1313 36.8185 11.5 35.9283 11.5 35V35ZM6.5 35C6.5 34.6022 6.65804 34.2206 6.93934 33.9393C7.22065 33.658 7.60218 33.5 8 33.5C8.39783 33.5 8.77936 33.658 9.06066 33.9393C9.34197 34.2206 9.5 34.6022 9.5 35C9.5 35.3978 9.34197 35.7794 9.06066 36.0607C8.77936 36.342 8.39783 36.5 8 36.5C7.60218 36.5 7.22065 36.342 6.93934 36.0607C6.65804 35.7794 6.5 35.3978 6.5 35Z" fill="#FF0000"/>
<path d="M24.5 40C24.5 39.3078 24.2947 38.6311 23.9101 38.0555C23.5256 37.4799 22.9789 37.0313 22.3394 36.7664C21.6999 36.5015 20.9961 36.4322 20.3172 36.5673C19.6383 36.7023 19.0146 37.0356 18.5251 37.5251C18.0356 38.0146 17.7023 38.6383 17.5673 39.3172C17.4322 39.9961 17.5015 40.6999 17.7664 41.3394C18.0313 41.9789 18.4799 42.5256 19.0555 42.9101C19.6311 43.2947 20.3078 43.5 21 43.5C21.9283 43.5 22.8185 43.1312 23.4749 42.4749C24.1313 41.8185 24.5 40.9283 24.5 40V40ZM19.5 40C19.5 39.6022 19.658 39.2206 19.9393 38.9393C20.2206 38.658 20.6022 38.5 21 38.5C21.3978 38.5 21.7794 38.658 22.0607 38.9393C22.342 39.2206 22.5 39.6022 22.5 40C22.5 40.3978 22.342 40.7794 22.0607 41.0607C21.7794 41.342 21.3978 41.5 21 41.5C20.6022 41.5 20.2206 41.342 19.9393 41.0607C19.658 40.7794 19.5 40.3978 19.5 40Z" fill="#FF0000"/>
<path d="M22 26C22 25.4067 21.8241 24.8266 21.4944 24.3333C21.1648 23.8399 20.6962 23.4554 20.1481 23.2284C19.5999 23.0013 18.9967 22.9419 18.4147 23.0576C17.8328 23.1734 17.2982 23.4591 16.8787 23.8787C16.4591 24.2982 16.1734 24.8328 16.0576 25.4147C15.9419 25.9967 16.0013 26.5999 16.2284 27.1481C16.4554 27.6962 16.8399 28.1648 17.3333 28.4944C17.8266 28.8241 18.4067 29 19 29C19.7957 29 20.5587 28.6839 21.1213 28.1213C21.6839 27.5587 22 26.7957 22 26ZM18 26C18 25.7348 18.1054 25.4804 18.2929 25.2929C18.4804 25.1054 18.7348 25 19 25C19.2652 25 19.5196 25.1054 19.7071 25.2929C19.8946 25.4804 20 25.7348 20 26C20 26.2652 19.8946 26.5196 19.7071 26.7071C19.5196 26.8946 19.2652 27 19 27C18.7348 27 18.4804 26.8946 18.2929 26.7071C18.1054 26.5196 18 26.2652 18 26Z" fill="#FF0000"/>
<path d="M24 52C23.4067 52 22.8266 52.1759 22.3333 52.5056C21.8399 52.8352 21.4554 53.3038 21.2284 53.852C21.0013 54.4001 20.9419 55.0033 21.0576 55.5853C21.1734 56.1672 21.4591 56.7018 21.8787 57.1213C22.2982 57.5409 22.8328 57.8266 23.4147 57.9424C23.9967 58.0581 24.5999 57.9987 25.1481 57.7716C25.6962 57.5446 26.1648 57.1601 26.4944 56.6667C26.8241 56.1734 27 55.5933 27 55C27 54.2044 26.6839 53.4413 26.1213 52.8787C25.5587 52.3161 24.7957 52 24 52ZM24 56C23.7348 56 23.4804 55.8946 23.2929 55.7071C23.1054 55.5196 23 55.2652 23 55C23 54.7348 23.1054 54.4804 23.2929 54.2929C23.4804 54.1054 23.7348 54 24 54C24.2652 54 24.5196 54.1054 24.7071 54.2929C24.8946 54.4804 25 54.7348 25 55C25 55.2652 24.8946 55.5196 24.7071 55.7071C24.5196 55.8946 24.2652 56 24 56Z" fill="#FF0000"/>
<path d="M42 15C41.0111 15 40.0444 15.2932 39.2222 15.8427C38.3999 16.3921 37.759 17.173 37.3806 18.0866C37.0022 19.0002 36.9031 20.0055 37.0961 20.9755C37.289 21.9454 37.7652 22.8363 38.4645 23.5355C39.1637 24.2348 40.0546 24.711 41.0245 24.9039C41.9945 25.0969 42.9998 24.9978 43.9134 24.6194C44.8271 24.241 45.6079 23.6001 46.1574 22.7779C46.7068 21.9556 47 20.9889 47 20C47 18.6739 46.4732 17.4021 45.5355 16.4645C44.5979 15.5268 43.3261 15 42 15ZM42 23C41.4067 23 40.8266 22.8241 40.3333 22.4944C39.8399 22.1648 39.4554 21.6962 39.2284 21.1481C39.0013 20.5999 38.9419 19.9967 39.0576 19.4147C39.1734 18.8328 39.4591 18.2982 39.8787 17.8787C40.2982 17.4591 40.8328 17.1734 41.4147 17.0576C41.9967 16.9419 42.5999 17.0013 43.1481 17.2284C43.6962 17.4554 44.1648 17.8399 44.4944 18.3333C44.8241 18.8266 45 19.4067 45 20C45 20.7956 44.6839 21.5587 44.1213 22.1213C43.5587 22.6839 42.7957 23 42 23Z" fill="#FF0000"/>
<path d="M44 12C44.7911 12 45.5645 11.7654 46.2223 11.3259C46.8801 10.8864 47.3928 10.2616 47.6955 9.53074C47.9983 8.79983 48.0775 7.99556 47.9231 7.21964C47.7688 6.44372 47.3878 5.73098 46.8284 5.17157C46.269 4.61216 45.5563 4.2312 44.7804 4.07686C44.0044 3.92252 43.2002 4.00173 42.4693 4.30448C41.7384 4.60723 41.1136 5.11992 40.6741 5.77772C40.2346 6.43552 40 7.20888 40 8C40 9.06087 40.4214 10.0783 41.1716 10.8284C41.9217 11.5786 42.9391 12 44 12ZM44 6C44.3956 6 44.7822 6.1173 45.1111 6.33706C45.44 6.55683 45.6964 6.86918 45.8478 7.23463C45.9991 7.60009 46.0387 8.00222 45.9616 8.39018C45.8844 8.77814 45.6939 9.13451 45.4142 9.41422C45.1345 9.69392 44.7781 9.8844 44.3902 9.96157C44.0022 10.0387 43.6001 9.99914 43.2346 9.84776C42.8692 9.69639 42.5568 9.44004 42.3371 9.11114C42.1173 8.78224 42 8.39556 42 8C42 7.46957 42.2107 6.96086 42.5858 6.58579C42.9609 6.21072 43.4696 6 44 6Z" fill="#FF0000"/>
<path d="M31 9C30.4067 9 29.8266 9.17595 29.3333 9.50559C28.8399 9.83524 28.4554 10.3038 28.2284 10.8519C28.0013 11.4001 27.9419 12.0033 28.0576 12.5853C28.1734 13.1672 28.4591 13.7018 28.8787 14.1213C29.2982 14.5409 29.8328 14.8266 30.4147 14.9424C30.9967 15.0581 31.5999 14.9987 32.148 14.7716C32.6962 14.5446 33.1648 14.1601 33.4944 13.6667C33.8241 13.1734 34 12.5933 34 12C34 11.2044 33.6839 10.4413 33.1213 9.87868C32.5587 9.31607 31.7957 9 31 9V9ZM31 13C30.7348 13 30.4804 12.8946 30.2929 12.7071C30.1054 12.5196 30 12.2652 30 12C30 11.7348 30.1054 11.4804 30.2929 11.2929C30.4804 11.1054 30.7348 11 31 11C31.2652 11 31.5196 11.1054 31.7071 11.2929C31.8946 11.4804 32 11.7348 32 12C32 12.2652 31.8946 12.5196 31.7071 12.7071C31.5196 12.8946 31.2652 13 31 13Z" fill="#FF0000"/>
<path d="M51.5 28C50.8078 28 50.1311 28.2053 49.5555 28.5899C48.9799 28.9744 48.5313 29.5211 48.2664 30.1606C48.0015 30.8001 47.9322 31.5039 48.0673 32.1828C48.2023 32.8617 48.5356 33.4854 49.0251 33.9749C49.5146 34.4644 50.1383 34.7977 50.8172 34.9327C51.4961 35.0678 52.1999 34.9985 52.8394 34.7336C53.4789 34.4687 54.0256 34.0201 54.4101 33.4445C54.7947 32.8689 55 32.1922 55 31.5C55 30.5717 54.6312 29.6815 53.9749 29.0251C53.3185 28.3687 52.4283 28 51.5 28V28ZM51.5 33C51.1022 33 50.7206 32.842 50.4393 32.5607C50.158 32.2794 50 31.8978 50 31.5C50 31.1022 50.158 30.7206 50.4393 30.4393C50.7206 30.158 51.1022 30 51.5 30C51.8978 30 52.2794 30.158 52.5607 30.4393C52.842 30.7206 53 31.1022 53 31.5C53 31.8978 52.842 32.2794 52.5607 32.5607C52.2794 32.842 51.8978 33 51.5 33V33Z" fill="#FF0000"/>
<path d="M56 14C55.4067 14 54.8266 14.1759 54.3333 14.5056C53.8399 14.8352 53.4554 15.3038 53.2284 15.8519C53.0013 16.4001 52.9419 17.0033 53.0576 17.5853C53.1734 18.1672 53.4591 18.7018 53.8787 19.1213C54.2982 19.5409 54.8328 19.8266 55.4147 19.9424C55.9967 20.0581 56.5999 19.9987 57.148 19.7716C57.6962 19.5446 58.1648 19.1601 58.4944 18.6667C58.8241 18.1734 59 17.5933 59 17C59 16.2044 58.6839 15.4413 58.1213 14.8787C57.5587 14.3161 56.7957 14 56 14V14ZM56 18C55.7348 18 55.4804 17.8946 55.2929 17.7071C55.1054 17.5196 55 17.2652 55 17C55 16.7348 55.1054 16.4804 55.2929 16.2929C55.4804 16.1054 55.7348 16 56 16C56.2652 16 56.5196 16.1054 56.7071 16.2929C56.8946 16.4804 57 16.7348 57 17C57 17.2652 56.8946 17.5196 56.7071 17.7071C56.5196 17.8946 56.2652 18 56 18Z" fill="#FF0000"/>
</g>
<defs>
<clipPath id="clip0_510_12413">
<rect width="64" height="64" fill="white"/>
</clipPath>
</defs>
</svg>
