<svg width="64" height="64" viewBox="0 0 64 64" fill="none" xmlns="http://www.w3.org/2000/svg">
<path d="M57 30.47C56.58 25.02 49.92 22.75 47.86 22.18C46 15.78 38 15 32 15C26 15 18 15.78 16.19 22.18C14.13 22.75 7.47 25.02 7.05 30.47C5.54 31.67 0 36.57 0 44C0 48.65 1.35 51 4 51C7.55 51 10.2 45.2 16.7 45C17.6737 45.659 18.8242 46.0077 20 46C24.67 46 26.61 44.7 27.42 43.58C28.7679 44.5058 30.3648 45.0013 32 45.0013C33.6352 45.0013 35.2321 44.5058 36.58 43.58C37.39 44.7 39.33 46 44 46C45.1758 46.0077 46.3263 45.659 47.3 45C53.78 45.18 56.46 51 60 51C62.65 51 64 48.65 64 44C64 36.57 58.46 31.67 57 30.47ZM7.19 47.14C5.93 48.14 4.84 49 4 49C2.67 49 2 47.32 2 44C2 37.68 6.78 33.28 8.19 32.12C10.83 33.23 11.98 39.57 14.8 43.21C11.9695 43.8491 9.34969 45.202 7.19 47.14V47.14ZM20 44C14.16 44 13.9 32.41 9.05 30.29C9.66 26.29 15.27 24.51 16.82 24.08C19.9 26.21 24.65 38.37 25.97 42.08C25.8 42.53 24.88 44 20 44ZM27.86 41.43C26.28 37 21.8 25.49 18.14 22.56C19.29 18.72 23.61 17 32 17C40.39 17 44.71 18.72 45.86 22.56C42.2 25.49 37.71 37 36.14 41.43C34.9975 42.4402 33.5251 42.9978 32 42.9978C30.4749 42.9978 29.0025 42.4402 27.86 41.43V41.43ZM38 42.09C39.27 38.53 44 26.23 47.15 24.09C48.7 24.52 54.31 26.33 54.92 30.3C50.09 32.42 49.83 44 44 44C39.06 44 38.18 42.49 38 42.09ZM60 49C59.16 49 58.07 48.14 56.81 47.14C54.6503 45.202 52.0305 43.8491 49.2 43.21C52.02 39.58 53.2 33.21 55.81 32.12C57.22 33.28 62 37.68 62 44C62 47.32 61.33 49 60 49Z" fill="#FF0000"/>
</svg>
