<svg width="64" height="64" viewBox="0 0 64 64" fill="none" xmlns="http://www.w3.org/2000/svg">
<g clip-path="url(#clip0_510_12430)">
<path d="M53 21C47 21 43.69 35.55 52 36.91V42C52 47.67 50 56 50 59C50 63.64 52.3 64 53 64C53.7 64 56 63.64 56 59C56 55.91 54 47.87 54 42V36.91C62.32 35.55 59 21 53 21ZM53 23C56.89 23 59.59 35 53 35C46.41 35 49.06 23 53 23ZM53.27 53.36C53.6293 55.2232 53.8731 57.1068 54 59C54 63 52 63 52 59C52.1269 57.1068 52.3707 55.2232 52.73 53.36C53.09 51.15 52.91 51.15 53.27 53.36Z" fill="#FF0000"/>
<path d="M37.0001 4C29.1801 4 24.6301 23.34 35.2001 25.79C36.3501 26.57 36.0001 28.95 36.0001 37C36.0001 50 30.8101 64 37.0001 64C43.1901 64 38.0001 50 38.0001 37C38.0001 28.68 37.7101 26.53 38.8001 25.79C49.3801 23.34 44.8101 4 37.0001 4ZM37.2601 51C37.6397 53.3174 37.8867 55.6545 38.0001 58C38.0001 61.36 37.8401 62 37.0001 62C36.1601 62 36.0001 61.36 36.0001 58C36.1135 55.6545 36.3606 53.3174 36.7401 51C37.0901 48.41 36.9101 48.41 37.2601 51ZM37.0001 24C27.2501 24 31.0001 6 37.0001 6C43.0001 6 46.6701 24 37.0001 24Z" fill="#FF0000"/>
<path d="M17 29.72C16.9972 30.583 17.2342 31.4299 17.6844 32.1662C18.1347 32.9025 18.7805 33.4992 19.55 33.89C19.9889 34.1103 20.3573 34.4491 20.6135 34.8679C20.8698 35.2868 21.0037 35.769 21 36.26C20.85 53.26 19 53.87 19 58C19 65.48 26 65.74 26 60C26 32.68 25.8 32.62 27 1.00001C27.09 -1.43999 17.23 -2.47999 17 29.72ZM24 60C24 63.33 21 62.39 21 58C21 54.2 22.84 53.32 23 36.28C23.0058 35.4151 22.7702 34.5656 22.3198 33.8272C21.8693 33.0888 21.2218 32.4906 20.45 32.1C20.0112 31.8797 19.6428 31.541 19.3865 31.1221C19.1303 30.7033 18.9964 30.221 19 29.73C19 24.22 20.13 4.90001 25 2.28001C23.78 34.46 24 30.61 24 60Z" fill="#FF0000"/>
<path d="M13.0002 5C13.0002 20.32 13.0502 19.19 12.8702 19.5C12.7611 19.6926 12.591 19.8436 12.3868 19.9292C12.1826 20.0148 11.9558 20.0302 11.7419 19.9731C11.528 19.9159 11.3391 19.7893 11.2049 19.6132C11.0707 19.4371 10.9987 19.2214 11.0002 19V5C11.0002 4.73478 10.8949 4.48043 10.7073 4.29289C10.5198 4.10536 10.2654 4 10.0002 4C9.735 4 9.48065 4.10536 9.29311 4.29289C9.10558 4.48043 9.00022 4.73478 9.00022 5V19C8.99955 19.2206 8.92598 19.4347 8.79096 19.6091C8.65594 19.7835 8.46705 19.9084 8.2537 19.9643C8.04034 20.0202 7.81449 20.004 7.61129 19.9182C7.4081 19.8324 7.23896 19.6819 7.13022 19.49C7.00022 19.19 7.00022 20.29 7.00022 5C7.00022 4.73478 6.89486 4.48043 6.70733 4.29289C6.51979 4.10536 6.26544 4 6.00022 4C5.735 4 5.48065 4.10536 5.29311 4.29289C5.10558 4.48043 5.00022 4.73478 5.00022 5C5.00022 22.66 4.59022 22.64 6.47022 24.54C6.86825 24.9266 7.32787 25.2443 7.83022 25.48C7.91141 25.5901 8.01768 25.6792 8.14022 25.74C9.34022 26.38 9.00022 28.74 9.00022 37C9.00022 50 3.81022 64 10.0002 64C16.1902 64 11.0002 50 11.0002 37C11.0002 28.45 10.7102 26.35 11.8602 25.74C11.9828 25.6792 12.089 25.5901 12.1702 25.48C13.0143 25.0734 13.7271 24.4378 14.2275 23.6457C14.7279 22.8536 14.9956 21.9369 15.0002 21V5C15.0002 4.73478 14.8949 4.48043 14.7073 4.29289C14.5198 4.10536 14.2654 4 14.0002 4C13.735 4 13.4806 4.10536 13.2931 4.29289C13.1056 4.48043 13.0002 4.73478 13.0002 5ZM10.0002 21.22C10.3783 21.5692 10.8415 21.813 11.3434 21.9271C11.8453 22.0412 12.3683 22.0215 12.8602 21.87C12.6678 22.4776 12.2868 23.0082 11.7726 23.3847C11.2584 23.7613 10.6376 23.9642 10.0002 23.9642C9.36286 23.9642 8.74206 23.7613 8.22783 23.3847C7.7136 23.0082 7.33265 22.4776 7.14022 21.87C7.63271 22.0155 8.1543 22.0321 8.65507 21.9183C9.15583 21.8045 9.61899 21.5641 10.0002 21.22V21.22ZM10.2602 51C10.6398 53.3174 10.8868 55.6545 11.0002 58C11.0002 61.36 10.8402 62 10.0002 62C9.16022 62 9.00022 61.36 9.00022 58C9.11361 55.6545 9.36068 53.3174 9.74022 51C10.0902 48.41 9.91022 48.41 10.2602 51Z" fill="#FF0000"/>
</g>
<defs>
<clipPath id="clip0_510_12430">
<rect width="64" height="64" fill="white"/>
</clipPath>
</defs>
</svg>
