<svg width="64" height="64" viewBox="0 0 64 64" fill="none" xmlns="http://www.w3.org/2000/svg">
<g clip-path="url(#clip0_510_12436)">
<path d="M63 34H62V29C62 28.7348 61.8946 28.4804 61.7071 28.2929C61.5196 28.1054 61.2652 28 61 28H58.83C59.83 21.59 55.55 16.76 50.09 13.65C47.44 12.14 47.73 10 46.18 10C45.7763 10.0086 45.3864 10.1491 45.07 10.4C44.7733 10.1418 44.3933 9.99963 44 9.99963C43.6067 9.99963 43.2267 10.1418 42.93 10.4C42.6136 10.1491 42.2237 10.0086 41.82 10C40.21 10 40.69 12 38 13.59C35.35 12 35.76 10 34.18 10C33.7763 10.0086 33.3864 10.1491 33.07 10.4C32.7733 10.1418 32.3933 9.99963 32 9.99963C31.6067 9.99963 31.2267 10.1418 30.93 10.4C30.6136 10.1491 30.2237 10.0086 29.82 10C28.21 10 28.69 12 26 13.59C23.35 12 23.76 10 22.18 10C21.7763 10.0086 21.3864 10.1491 21.07 10.4C20.7733 10.1418 20.3933 9.99963 20 9.99963C19.6067 9.99963 19.2267 10.1418 18.93 10.4C18.6136 10.1491 18.2237 10.0086 17.82 10C16.23 10 16.65 12.09 13.91 13.65C8.58 16.69 4.15 21.5 5.17 28H3C2.73478 28 2.48043 28.1054 2.29289 28.2929C2.10536 28.4804 2 28.7348 2 29V34H1C0.734784 34 0.48043 34.1054 0.292893 34.2929C0.105357 34.4804 0 34.7348 0 35L0 53C0 53.2652 0.105357 53.5196 0.292893 53.7071C0.48043 53.8946 0.734784 54 1 54H63C63.2652 54 63.5196 53.8946 63.7071 53.7071C63.8946 53.5196 64 53.2652 64 53V35C64 34.7348 63.8946 34.4804 63.7071 34.2929C63.5196 34.1054 63.2652 34 63 34ZM42 12.27C42.18 12.49 42.42 13.06 43.12 12.99C43.3224 12.9736 43.5151 12.8959 43.6723 12.7672C43.8295 12.6386 43.9438 12.4652 44 12.27C44.0539 12.4656 44.1659 12.6401 44.3213 12.7705C44.4767 12.9009 44.6681 12.9809 44.87 13C45.57 13.06 45.87 12.49 46 12.27C46.7158 13.5835 47.7912 14.6657 49.1 15.39C53.86 18.09 57.9 22.3 56.81 28H46.81C47.71 22.3 44.61 18.07 39.81 14.76C40.7086 14.095 41.4551 13.2461 42 12.27V12.27ZM30 12.27C30.17 12.49 30.43 13.06 31.12 12.99C31.3224 12.9736 31.5151 12.8959 31.6723 12.7672C31.8295 12.6386 31.9438 12.4652 32 12.27C32.0539 12.4656 32.1659 12.6401 32.3213 12.7705C32.4767 12.9009 32.6681 12.9809 32.87 13C33.57 13.06 33.87 12.49 34 12.27C34.7939 13.7109 36.0077 14.8759 37.48 15.61C42.13 18.4 45.86 22.53 44.81 28H19.19C19.0545 27.2612 18.9909 26.5111 19 25.76C19 21.4 23.26 17.4 26.89 15.39C28.2036 14.6686 29.2828 13.5859 30 12.27V12.27ZM14.89 15.39C16.2036 14.6686 17.2828 13.5859 18 12.27C18.18 12.49 18.42 13.06 19.12 12.99C19.3224 12.9736 19.5151 12.8959 19.6723 12.7672C19.8295 12.6386 19.9438 12.4652 20 12.27C20.0539 12.4656 20.1659 12.6401 20.3213 12.7705C20.4767 12.9009 20.6681 12.9809 20.87 13C21.57 13.06 21.82 12.49 22 12.27C22.5333 13.2422 23.2659 14.0907 24.15 14.76C19.39 18.05 16.27 22.28 17.15 28H7.15C6.09 22.25 10.23 18.05 14.89 15.39ZM4 30H60V34H4V30ZM2 36H7.18C6.92 36.74 7 37.14 7 39H6C5.73478 39 5.48043 39.1054 5.29289 39.2929C5.10536 39.4804 5 39.7348 5 40C5 40.2652 5.10536 40.5196 5.29289 40.7071C5.48043 40.8946 5.73478 41 6 41H7V47H6C5.73478 47 5.48043 47.1054 5.29289 47.2929C5.10536 47.4804 5 47.7348 5 48C5 48.2652 5.10536 48.5196 5.29289 48.7071C5.48043 48.8946 5.73478 49 6 49H7C7 51.1 6.94 51.32 7.18 52H2V36ZM62 52H10C9.73478 52 9.48043 51.8946 9.29289 51.7071C9.10536 51.5196 9 51.2652 9 51V49H10C10.2652 49 10.5196 48.8946 10.7071 48.7071C10.8946 48.5196 11 48.2652 11 48C11 47.7348 10.8946 47.4804 10.7071 47.2929C10.5196 47.1054 10.2652 47 10 47H9V41H10C10.2652 41 10.5196 40.8946 10.7071 40.7071C10.8946 40.5196 11 40.2652 11 40C11 39.7348 10.8946 39.4804 10.7071 39.2929C10.5196 39.1054 10.2652 39 10 39H9V37C9 36.7348 9.10536 36.4804 9.29289 36.2929C9.48043 36.1054 9.73478 36 10 36H62V52Z" fill="#FF0000"/>
</g>
<defs>
<clipPath id="clip0_510_12436">
<rect width="64" height="64" fill="white"/>
</clipPath>
</defs>
</svg>
