<svg width="64" height="64" viewBox="0 0 64 64" fill="none" xmlns="http://www.w3.org/2000/svg">
<g clip-path="url(#clip0_510_12439)">
<path d="M45.74 3.10995C24.33 -7.08005 1.57576e-06 8.71995 1.57576e-06 32C-0.00179506 37.7258 1.53279 43.3473 4.44369 48.2781C7.3546 53.2088 11.5352 57.2682 16.5494 60.0328C21.5636 62.7975 27.2278 64.1661 32.9512 63.9959C38.6745 63.8257 44.2474 62.1229 49.0884 59.0652C53.9295 56.0075 57.8615 51.7069 60.4743 46.6119C63.0871 41.5169 64.2849 35.8141 63.9429 30.0985C63.6008 24.3828 61.7315 18.8637 58.5297 14.1166C55.328 9.36953 50.9112 5.5685 45.74 3.10995V3.10995ZM46 46C45.2044 46 44.4413 46.316 43.8787 46.8786C43.3161 47.4412 43 48.2043 43 49V54C43 54.2652 42.8946 54.5195 42.7071 54.7071C42.5196 54.8946 42.2652 55 42 55C41.7348 55 41.4804 54.8946 41.2929 54.7071C41.1054 54.5195 41 54.2652 41 54C41.0014 53.5891 40.9039 53.1839 40.7157 52.8186C40.5275 52.4534 40.2541 52.1388 39.9187 51.9014C39.5833 51.6641 39.1957 51.511 38.7886 51.455C38.3816 51.3991 37.967 51.4419 37.58 51.58C33.27 53.07 31.99 53.26 30.08 52.7C29.7221 52.5942 29.3446 52.5734 28.9772 52.6391C28.6099 52.7049 28.263 52.8553 27.964 53.0786C27.665 53.3019 27.4222 53.5918 27.2549 53.9253C27.0875 54.2589 27.0003 54.6268 27 55C26.9972 55.1969 26.9364 55.3886 26.8251 55.5511C26.7137 55.7135 26.5569 55.8395 26.3743 55.9132C26.1917 55.9869 25.9913 56.005 25.7984 55.9653C25.6055 55.9256 25.4287 55.8298 25.29 55.69C24.9 55.32 25 55 25 53.47C25 51.72 23.73 51.1 22.76 50.62C22.3647 50.4183 21.9239 50.3224 21.4805 50.3417C21.0371 50.361 20.6063 50.4947 20.23 50.73C18.9 51.55 19 52.73 19 53.89C19.0209 54.0963 18.9772 54.304 18.8749 54.4844C18.7726 54.6647 18.6167 54.8088 18.4289 54.8967C18.241 54.9846 18.0305 55.0119 17.8265 54.9749C17.6224 54.9378 17.435 54.8383 17.29 54.69C16.9 54.32 17 54.19 17 50.95C16.99 48.5791 16.0449 46.308 14.37 44.63C13.7343 44.0247 13.0667 43.4539 12.37 42.92C7.03 38.66 9.74 37.92 7.05 31.06C4.54 24.63 7.27 25.29 8.4 18C8.98 14.22 9.4 13.53 12.4 11.12C14 9.82995 16.66 7.27995 17.45 5.79995C17.74 5.24995 31.8 -2.41005 46.56 5.79995C47.56 6.90995 48.49 8.25995 49.63 9.40995C51.28 11 53.48 12.21 54.52 14C55.56 15.79 55.52 18.27 56.09 20.54C56.66 22.81 58 24.87 58 27C58 29.13 56.68 31.27 56.09 33.46C55.5 35.65 55.55 38.23 54.51 40.02C53.82 41.28 51 44.26 51 50C51 50.2652 50.8946 50.5195 50.7071 50.7071C50.5196 50.8946 50.2652 51 50 51C49.7348 51 49.4804 50.8946 49.2929 50.7071C49.1054 50.5195 49 50.2652 49 50V49C49 48.2043 48.6839 47.4412 48.1213 46.8786C47.5587 46.316 46.7956 46 46 46ZM32 62C8.39 62 -6 35.81 6.74 15.86C6.4 17.49 6.31 18.77 6 20C5.42 22.16 4 24.37 4 27C4 29.63 5.39 31.8 6 34C6.61 36.2 6.51 38.83 7.78 41C9.05 43.17 11.34 44.4 13.01 46.08C15.35 48.44 15 51 15 54C14.9983 54.4177 15.0839 54.8312 15.2512 55.214C15.4186 55.5967 15.6641 55.9403 15.9719 56.2228C16.2797 56.5052 16.6431 56.7202 17.0389 56.854C17.4346 56.9878 17.8539 57.0376 18.27 57C19.0291 56.911 19.7283 56.5438 20.2325 55.9694C20.7367 55.3951 21.0101 54.6542 21 53.89V52.89C20.9981 52.7869 21.0233 52.6852 21.0729 52.595C21.1225 52.5047 21.195 52.429 21.283 52.3754C21.3709 52.3218 21.4714 52.2921 21.5744 52.2894C21.6774 52.2867 21.7793 52.311 21.87 52.36C22.67 52.75 23 52.85 23 53.42C23 54.92 22.83 56.04 23.87 57.06C24.4325 57.6218 25.195 57.9373 25.99 57.9373C26.785 57.9373 27.5475 57.6218 28.11 57.06C29.28 55.91 28.78 54.9 29.16 54.62C29.54 54.34 30.16 54.93 32 54.93C34.1414 54.7086 36.2415 54.1903 38.24 53.39C38.332 53.3594 38.4301 53.3523 38.5255 53.3694C38.6209 53.3866 38.7105 53.4273 38.7861 53.488C38.8617 53.5487 38.9209 53.6273 38.9583 53.7167C38.9956 53.8062 39.01 53.9035 39 54C39 54.7956 39.3161 55.5587 39.8787 56.1213C40.4413 56.6839 41.2044 57 42 57C42.7956 57 43.5587 56.6839 44.1213 56.1213C44.6839 55.5587 45 54.7956 45 54V49C45 48.7347 45.1054 48.4804 45.2929 48.2928C45.4804 48.1053 45.7348 48 46 48C46.2652 48 46.5196 48.1053 46.7071 48.2928C46.8946 48.4804 47 48.7347 47 49V50C47 53.86 53 54.26 53 49.62C53 44.98 55.77 41.88 56.26 41C57.51 38.82 57.45 36.16 58.03 34C58.61 31.84 60.03 29.63 60.03 27C60.03 24.37 58.64 22.2 58.03 20C57.7 18.79 57.6 17.46 57.26 15.84C70 35.77 55.66 62 32 62Z" fill="#FF0000"/>
<path d="M32 20C29.6266 20 27.3066 20.7038 25.3332 22.0224C23.3598 23.3409 21.8217 25.2151 20.9135 27.4078C20.0052 29.6005 19.7676 32.0133 20.2306 34.3411C20.6936 36.6689 21.8365 38.8071 23.5147 40.4853C25.193 42.1635 27.3311 43.3064 29.6589 43.7694C31.9867 44.2324 34.3995 43.9948 36.5922 43.0866C38.7849 42.1783 40.6591 40.6402 41.9776 38.6668C43.2962 36.6935 44 34.3734 44 32C44 28.8174 42.7357 25.7652 40.4853 23.5147C38.2349 21.2643 35.1826 20 32 20ZM32 42C30.0222 42 28.0888 41.4135 26.4443 40.3147C24.7998 39.2159 23.5181 37.6541 22.7612 35.8268C22.0043 33.9996 21.8063 31.9889 22.1922 30.0491C22.578 28.1093 23.5304 26.3275 24.9289 24.9289C26.3275 23.5304 28.1093 22.578 30.0491 22.1921C31.9889 21.8063 33.9996 22.0043 35.8268 22.7612C37.6541 23.5181 39.2159 24.7998 40.3147 26.4443C41.4135 28.0888 42 30.0222 42 32C42 34.6522 40.9464 37.1957 39.0711 39.0711C37.1957 40.9464 34.6522 42 32 42Z" fill="#FF0000"/>
<path d="M34 14H36C36.2652 14 36.5196 13.8946 36.7071 13.7071C36.8946 13.5196 37 13.2652 37 13C37 12.7348 36.8946 12.4804 36.7071 12.2929C36.5196 12.1054 36.2652 12 36 12H34C33.7348 12 33.4804 12.1054 33.2929 12.2929C33.1054 12.4804 33 12.7348 33 13C33 13.2652 33.1054 13.5196 33.2929 13.7071C33.4804 13.8946 33.7348 14 34 14Z" fill="#FF0000"/>
<path d="M40.5499 18.8899C42.7499 19.9999 42.6799 19.9999 42.9999 19.9999C43.2238 19.9986 43.4408 19.9222 43.6161 19.7828C43.7914 19.6435 43.9149 19.4494 43.9667 19.2316C44.0186 19.0137 43.9958 18.7848 43.9021 18.5814C43.8084 18.378 43.6491 18.212 43.4499 18.1099L41.4499 17.1099C41.2168 17.0129 40.9556 17.0076 40.7187 17.0951C40.4819 17.1826 40.2869 17.3565 40.173 17.5819C40.0591 17.8072 40.0346 18.0673 40.1045 18.3099C40.1744 18.5525 40.3335 18.7597 40.5499 18.8899Z" fill="#FF0000"/>
<path d="M48.9999 25.9999C49.2238 25.9986 49.4408 25.9222 49.6161 25.7828C49.7914 25.6435 49.9149 25.4494 49.9667 25.2316C50.0186 25.0137 49.9958 24.7848 49.9021 24.5814C49.8084 24.378 49.6491 24.212 49.4499 24.1099L47.4499 23.1099C47.2168 23.0129 46.9556 23.0076 46.7187 23.0951C46.4819 23.1826 46.2869 23.3565 46.173 23.5819C46.0591 23.8072 46.0346 24.0673 46.1045 24.3099C46.1744 24.5525 46.3335 24.7597 46.5499 24.8899C48.7499 25.9999 48.6799 25.9999 48.9999 25.9999Z" fill="#FF0000"/>
<path d="M49 33H51C51.2652 33 51.5196 32.8946 51.7071 32.7071C51.8946 32.5196 52 32.2652 52 32C52 31.7348 51.8946 31.4804 51.7071 31.2929C51.5196 31.1054 51.2652 31 51 31H49C48.7348 31 48.4804 31.1054 48.2929 31.2929C48.1054 31.4804 48 31.7348 48 32C48 32.2652 48.1054 32.5196 48.2929 32.7071C48.4804 32.8946 48.7348 33 49 33Z" fill="#FF0000"/>
<path d="M56 28V26C56 25.7348 55.8946 25.4804 55.7071 25.2929C55.5196 25.1054 55.2652 25 55 25C54.7348 25 54.4804 25.1054 54.2929 25.2929C54.1054 25.4804 54 25.7348 54 26V28C54 28.2652 54.1054 28.5196 54.2929 28.7071C54.4804 28.8946 54.7348 29 55 29C55.2652 29 55.5196 28.8946 55.7071 28.7071C55.8946 28.5196 56 28.2652 56 28Z" fill="#FF0000"/>
<path d="M50 18V16C50 15.7348 49.8946 15.4804 49.7071 15.2929C49.5196 15.1054 49.2652 15 49 15C48.7348 15 48.4804 15.1054 48.2929 15.2929C48.1054 15.4804 48 15.7348 48 16V18C48 18.2652 48.1054 18.5196 48.2929 18.7071C48.4804 18.8946 48.7348 19 49 19C49.2652 19 49.5196 18.8946 49.7071 18.7071C49.8946 18.5196 50 18.2652 50 18Z" fill="#FF0000"/>
<path d="M44 9H42C41.7348 9 41.4804 9.10536 41.2929 9.29289C41.1054 9.48043 41 9.73478 41 10C41 10.2652 41.1054 10.5196 41.2929 10.7071C41.4804 10.8946 41.7348 11 42 11H44C44.2652 11 44.5196 10.8946 44.7071 10.7071C44.8946 10.5196 45 10.2652 45 10C45 9.73478 44.8946 9.48043 44.7071 9.29289C44.5196 9.10536 44.2652 9 44 9Z" fill="#FF0000"/>
<path d="M19 24V22C19 21.7348 18.8946 21.4804 18.7071 21.2929C18.5196 21.1054 18.2652 21 18 21C17.7348 21 17.4804 21.1054 17.2929 21.2929C17.1054 21.4804 17 21.7348 17 22V24C17 24.2652 17.1054 24.5196 17.2929 24.7071C17.4804 24.8946 17.7348 25 18 25C18.2652 25 18.5196 24.8946 18.7071 24.7071C18.8946 24.5196 19 24.2652 19 24Z" fill="#FF0000"/>
<path d="M13 22V19C13 18.7348 12.8946 18.4804 12.7071 18.2929C12.5196 18.1054 12.2652 18 12 18C11.7348 18 11.4804 18.1054 11.2929 18.2929C11.1054 18.4804 11 18.7348 11 19V22C11 22.2652 11.1054 22.5196 11.2929 22.7071C11.4804 22.8946 11.7348 23 12 23C12.2652 23 12.5196 22.8946 12.7071 22.7071C12.8946 22.5196 13 22.2652 13 22Z" fill="#FF0000"/>
<path d="M19.6201 39.8599L16.6201 38.8599C16.4953 38.8186 16.3636 38.8022 16.2325 38.8117C16.1014 38.8212 15.9735 38.8565 15.856 38.9155C15.7386 38.9744 15.6339 39.0559 15.5479 39.1554C15.462 39.2548 15.3964 39.3702 15.3551 39.4949C15.3137 39.6197 15.2973 39.7514 15.3068 39.8825C15.3164 40.0136 15.3516 40.1415 15.4106 40.259C15.4695 40.3764 15.5511 40.4811 15.6505 40.5671C15.7499 40.653 15.8653 40.7186 15.9901 40.7599L18.9901 41.7599C19.1148 41.8013 19.2465 41.8177 19.3776 41.8082C19.5087 41.7987 19.6366 41.7634 19.7541 41.7044C19.8715 41.6455 19.9762 41.5639 20.0622 41.4645C20.1482 41.3651 20.2137 41.2497 20.2551 41.1249C20.2964 41.0002 20.3128 40.8685 20.3033 40.7374C20.2938 40.6063 20.2585 40.4784 20.1996 40.3609C20.1406 40.2435 20.0591 40.1388 19.9596 40.0528C19.8602 39.9668 19.7448 39.9013 19.6201 39.8599V39.8599Z" fill="#FF0000"/>
<path d="M26 45H23C22.7348 45 22.4804 45.1054 22.2929 45.2929C22.1054 45.4804 22 45.7348 22 46C22 46.2652 22.1054 46.5196 22.2929 46.7071C22.4804 46.8946 22.7348 47 23 47H26C26.2652 47 26.5196 46.8946 26.7071 46.7071C26.8946 46.5196 27 46.2652 27 46C27 45.7348 26.8946 45.4804 26.7071 45.2929C26.5196 45.1054 26.2652 45 26 45Z" fill="#FF0000"/>
<path d="M31.89 46.55C31.7599 46.3336 31.5527 46.1745 31.31 46.1046C31.0674 46.0347 30.8073 46.0592 30.582 46.1731C30.3567 46.2871 30.1828 46.482 30.0952 46.7189C30.0077 46.9557 30.013 47.2169 30.11 47.45C31.11 49.45 31.21 50 32 50C32.1705 49.9995 32.338 49.9554 32.4866 49.8719C32.6353 49.7884 32.7601 49.6684 32.8493 49.5231C32.9385 49.3778 32.989 49.2121 32.9961 49.0418C33.0033 48.8715 32.9668 48.7022 32.89 48.55L31.89 46.55Z" fill="#FF0000"/>
<path d="M41.68 45.05L38.68 46.05C38.4281 46.1349 38.2201 46.3164 38.102 46.5545C37.9838 46.7927 37.9651 47.0681 38.05 47.32C38.1349 47.572 38.3164 47.7799 38.5545 47.898C38.7927 48.0162 39.0681 48.0349 39.32 47.95L42.32 46.95C42.572 46.8651 42.7799 46.6837 42.898 46.4455C43.0162 46.2073 43.0349 45.932 42.95 45.68C42.8651 45.4281 42.6837 45.2201 42.4455 45.102C42.2073 44.9838 41.932 44.9651 41.68 45.05V45.05Z" fill="#FF0000"/>
<path d="M50.0002 40.9999C50.1988 41.0011 50.3933 40.9431 50.5588 40.8333C50.7243 40.7235 50.8534 40.5669 50.9296 40.3834C51.0057 40.2 51.0255 39.998 50.9865 39.8033C50.9474 39.6085 50.8512 39.4298 50.7102 39.2899L48.7102 37.2899C48.5219 37.1016 48.2665 36.9958 48.0002 36.9958C47.7339 36.9958 47.4785 37.1016 47.2902 37.2899C47.1019 37.4782 46.9961 37.7336 46.9961 37.9999C46.9961 38.2662 47.1019 38.5216 47.2902 38.7099C49.4702 40.8899 49.4602 40.9999 50.0002 40.9999Z" fill="#FF0000"/>
<path d="M25.0001 16.9999L27.0001 17.9999C27.2362 18.1084 27.5053 18.1207 27.7504 18.0342C27.9954 17.9476 28.1972 17.7691 28.3129 17.5364C28.4286 17.3037 28.4492 17.0351 28.3702 16.7875C28.2913 16.5399 28.1191 16.3327 27.8901 16.2099L25.8901 15.2099C25.6539 15.1015 25.3848 15.0892 25.1397 15.1757C24.8947 15.2622 24.6929 15.4407 24.5772 15.6734C24.4615 15.9061 24.441 16.1747 24.5199 16.4224C24.5988 16.67 24.771 16.8771 25.0001 16.9999Z" fill="#FF0000"/>
<path d="M15.5898 32.66L14.5898 30.66C14.467 30.4309 14.2598 30.2587 14.0122 30.1798C13.7646 30.1009 13.496 30.1214 13.2633 30.2371C13.0306 30.3528 12.8521 30.5546 12.7655 30.7996C12.679 31.0447 12.6913 31.3138 12.7998 31.55L13.7998 33.55C13.9226 33.779 14.1297 33.9512 14.3774 34.0301C14.625 34.1091 14.8936 34.0885 15.1263 33.9728C15.359 33.8571 15.5375 33.6553 15.624 33.4103C15.7105 33.1652 15.6982 32.8961 15.5898 32.66Z" fill="#FF0000"/>
<path d="M32 7V5C32 4.73478 31.8946 4.48043 31.7071 4.29289C31.5196 4.10536 31.2652 4 31 4C30.7348 4 30.4804 4.10536 30.2929 4.29289C30.1054 4.48043 30 4.73478 30 5V7C30 7.26522 30.1054 7.51957 30.2929 7.70711C30.4804 7.89464 30.7348 8 31 8C31.2652 8 31.5196 7.89464 31.7071 7.70711C31.8946 7.51957 32 7.26522 32 7Z" fill="#FF0000"/>
<path d="M21.73 9.44998C23.93 10.54 23.86 10.55 24.18 10.55C24.4039 10.5487 24.6209 10.4722 24.7962 10.3329C24.9715 10.1936 25.095 9.99946 25.1469 9.78162C25.1987 9.56379 25.176 9.33485 25.0823 9.13148C24.9885 8.92811 24.8293 8.76208 24.63 8.65998L22.63 7.65998C22.3926 7.54064 22.1176 7.52047 21.8653 7.60393C21.6131 7.68738 21.4043 7.86762 21.285 8.10498C21.1656 8.34235 21.1455 8.61741 21.2289 8.86965C21.3124 9.12188 21.4926 9.33064 21.73 9.44998Z" fill="#FF0000"/>
<path d="M18 16H20C20.2652 16 20.5196 15.8946 20.7071 15.7071C20.8946 15.5196 21 15.2652 21 15C21 14.7348 20.8946 14.4804 20.7071 14.2929C20.5196 14.1054 20.2652 14 20 14H18C17.7348 14 17.4804 14.1054 17.2929 14.2929C17.1054 14.4804 17 14.7348 17 15C17 15.2652 17.1054 15.5196 17.2929 15.7071C17.4804 15.8946 17.7348 16 18 16Z" fill="#FF0000"/>
</g>
<defs>
<clipPath id="clip0_510_12439">
<rect width="64" height="64" fill="white"/>
</clipPath>
</defs>
</svg>
