<svg width="64" height="64" viewBox="0 0 64 64" fill="none" xmlns="http://www.w3.org/2000/svg">
<g clip-path="url(#clip0_510_12462)">
<path d="M56.7602 22.35C56.4002 21.93 56.0902 22 54.8602 22C56.3902 8.48 56.4302 9.25 56.0602 8.79C55.6902 8.33 55.8002 8.46 51.0002 7.92V3C51.0002 2.73478 50.8948 2.48043 50.7073 2.29289C50.5198 2.10536 50.2654 2 50.0002 2H44.0002C43.735 2 43.4806 2.10536 43.2931 2.29289C43.1056 2.48043 43.0002 2.73478 43.0002 3V9H41.0002V4C41.0002 3.73478 40.8948 3.48043 40.7073 3.29289C40.5198 3.10536 40.2654 3 40.0002 3H34.0002C33.735 3 33.4806 3.10536 33.2931 3.29289C33.1056 3.48043 33.0002 3.73478 33.0002 4V12H32.0002V1C32.0002 0.734784 31.8948 0.48043 31.7073 0.292893C31.5198 0.105357 31.2654 0 31.0002 0L25.0002 0C24.735 0 24.4806 0.105357 24.2931 0.292893C24.1056 0.48043 24.0002 0.734784 24.0002 1V4H20.0002V1C20.0002 0.734784 19.8948 0.48043 19.7073 0.292893C19.5198 0.105357 19.2654 0 19.0002 0L13.0002 0C12.735 0 12.4806 0.105357 12.2931 0.292893C12.1056 0.48043 12.0002 0.734784 12.0002 1V9L8.7002 9.35C8.56951 9.36372 8.4428 9.40307 8.32733 9.46579C8.21185 9.52851 8.10987 9.61338 8.02722 9.71554C7.94456 9.8177 7.88285 9.93515 7.84561 10.0612C7.80837 10.1872 7.79634 10.3193 7.8102 10.45L9.0002 22H8.0002C7.85426 21.9981 7.70968 22.0282 7.57661 22.0881C7.44353 22.1481 7.32519 22.2364 7.22989 22.347C7.1346 22.4575 7.06465 22.5876 7.02497 22.728C6.98529 22.8685 6.97684 23.0159 7.0002 23.16C13.4302 62.73 13.0002 60.37 13.2902 60.71C16.4202 63.83 16.5302 64.21 17.2902 63.95C24.9902 61.38 38.9002 61.36 46.6502 63.95C46.823 64.0043 47.0073 64.0107 47.1834 63.9684C47.3595 63.9261 47.5209 63.8368 47.6502 63.71C51.0002 60.45 50.9202 60.6 51.0002 60.16C57.5002 20 57.2002 22.87 56.7602 22.35ZM52.8502 22C48.2502 22 49.1102 22 48.8502 22L50.1902 9.85L54.1902 10.29L52.8502 22ZM45.0002 4H49.0002V7.8C48.1302 8.08 48.4402 7.52 46.6002 23.8L46.0002 24.22V10C46.0002 9.73478 45.8948 9.48043 45.7073 9.29289C45.5198 9.10536 45.2654 9 45.0002 9V4ZM40.0002 11H44.0002V25.37C42.7198 26.0167 41.3804 26.5391 40.0002 26.93V11ZM35.0002 5H39.0002V9C38.735 9 38.4806 9.10536 38.2931 9.29289C38.1056 9.48043 38.0002 9.73478 38.0002 10V27.42C37.0087 27.6172 36.0072 27.7608 35.0002 27.85V5ZM33.0002 28C31.6658 28.0617 30.3286 28.0216 29.0002 27.88V14H33.0002V28ZM28.0002 11V12C27.735 12 27.4806 12.1054 27.2931 12.2929C27.1056 12.4804 27.0002 12.7348 27.0002 13V27.59C25.9879 27.43 24.9862 27.2096 24.0002 26.93V11H28.0002ZM26.0002 2H30.0002V10C30.0002 9.73478 29.8948 9.48043 29.7073 9.29289C29.5198 9.10536 29.2654 9 29.0002 9H26.0002V2ZM24.0002 6V9H23.0002C22.735 9 22.4806 9.10536 22.2931 9.29289C22.1056 9.48043 22.0002 9.73478 22.0002 10V26.27C21.3184 26.0048 20.6509 25.7044 20.0002 25.37V6H24.0002ZM14.0002 2H18.0002V24.21C17.7302 24.02 17.4802 23.85 17.2602 23.68C15.5802 7.92 16.2502 8.59 14.0002 8.83V2ZM9.9002 11.27L13.9002 10.85L15.0702 22C14.7402 22 15.5102 22 11.0702 22L9.9002 11.27ZM49.0602 59.52L46.7202 61.87C37.0642 59.3849 26.9362 59.3849 17.2802 61.87L14.9402 59.52L9.1702 24H14.5602C22.4102 32 41.5602 32 49.4402 24H54.8302L49.0602 59.52Z" fill="#FF0000"/>
<path d="M32 36C30.22 36 28.4799 36.5278 26.9999 37.5168C25.5198 38.5057 24.3663 39.9113 23.6851 41.5559C23.0039 43.2004 22.8257 45.01 23.1729 46.7558C23.5202 48.5016 24.3774 50.1053 25.636 51.364C26.8947 52.6226 28.4984 53.4798 30.2442 53.8271C31.99 54.1743 33.7996 53.9961 35.4442 53.3149C37.0887 52.6337 38.4943 51.4802 39.4832 50.0001C40.4722 48.5201 41 46.78 41 45C41 42.6131 40.0518 40.3239 38.364 38.636C36.6761 36.9482 34.387 36 32 36V36ZM32 52C30.6155 52 29.2622 51.5895 28.111 50.8203C26.9599 50.0511 26.0627 48.9579 25.5328 47.6788C25.003 46.3997 24.8644 44.9922 25.1345 43.6344C25.4046 42.2765 26.0713 41.0292 27.0503 40.0503C28.0292 39.0713 29.2765 38.4046 30.6344 38.1345C31.9922 37.8644 33.3997 38.003 34.6788 38.5328C35.9579 39.0627 37.0511 39.9599 37.8203 41.111C38.5895 42.2622 39 43.6155 39 45C39 46.8565 38.2625 48.637 36.9498 49.9497C35.637 51.2625 33.8565 52 32 52Z" fill="#FF0000"/>
</g>
<defs>
<clipPath id="clip0_510_12462">
<rect width="64" height="64" fill="white"/>
</clipPath>
</defs>
</svg>
