<svg width="64" height="64" viewBox="0 0 64 64" fill="none" xmlns="http://www.w3.org/2000/svg">
<g clip-path="url(#clip0_510_12466)">
<path d="M64 45C64 38.89 56.72 35.14 51.12 31.73C39.68 24.73 39.24 24.32 32.26 12.87C29.83 8.87004 27.53 5.10004 25.52 3.10004C21.13 -1.29996 16.17 -0.639959 13.4 2.58004C12.3263 2.56024 11.2609 2.77154 10.2761 3.19963C9.29121 3.62771 8.40992 4.26257 7.69196 5.06115C6.974 5.85972 6.43615 6.80335 6.11489 7.82803C5.79363 8.85272 5.69647 9.93451 5.82999 11C-1.41001 14 -5.38001 29.69 14.46 49.54C21.66 56.73 31.37 64 41.5 64C45.87 64 51.19 62.52 53 58.18C54.0653 58.3104 55.1462 58.2107 56.1696 57.8875C57.1931 57.5643 58.1352 57.0252 58.9325 56.3067C59.7297 55.5881 60.3634 54.7068 60.7908 53.7224C61.2182 52.7379 61.4294 51.6731 61.41 50.6C62.2112 49.9012 62.856 49.0412 63.3023 48.0763C63.7486 47.1113 63.9863 46.0631 64 45V45ZM24.11 4.52004C27.98 8.40004 33.66 20.52 38.58 25.42C43.5 30.32 55.63 36 59.48 39.89C62.53 42.89 62.54 45.89 60.95 48.14C59.87 45.21 57.79 44.3 55.8 43.23C37.64 33.4 30.62 26.39 20.8 8.23004C19.68 6.15004 18.8 4.15004 15.89 3.08004C17.89 1.59004 20.92 1.33004 24.11 4.52004ZM39.59 61.9C32.37 61.18 24.17 56.42 15.88 48.12C-4.37001 27.87 1.43999 12.46 8.53999 12.46C13.54 12.46 17.14 19.46 20.1 24.37C27.24 36.09 27.88 36.74 39.63 43.9C43.52 46.27 47.2 48.51 49.03 50.34C55 56.26 49.85 62.93 39.59 61.9ZM53.51 56.21C54.23 49.8 46.59 45.8 40.67 42.21C29.23 35.21 28.78 34.79 21.81 23.35C18.33 17.63 14.27 9.79004 7.80999 10.51C7.36999 4.71004 15.26 2.26004 18.11 7.51004C22.39 15.32 26.28 22.81 33.78 30.3C41 37.52 48.33 41.41 56.55 45.91C61.77 48.77 59.3 56.65 53.51 56.21V56.21Z" fill="#FF0000"/>
<path d="M55.2902 46.6401C53.0102 45.4301 52.8902 46.6401 50.7702 45.3701C49.9002 44.8501 49.0502 43.0001 47.4802 42.0001C46.0902 41.1001 44.1402 41.1601 43.0302 40.3801C41.9202 39.6001 41.3802 37.8201 40.0302 36.7601C38.6802 35.7001 36.7102 35.5901 35.7602 34.7601C34.8102 33.9301 34.3602 32.0001 33.1602 30.8401C31.9602 29.6801 30.0702 29.2301 29.2402 28.2701C28.4102 27.3101 28.3002 25.3801 27.2402 24.0001C26.1802 22.6201 24.3102 22.0001 23.6202 21.0001C22.9302 20.0001 22.9002 18.0001 22.0102 16.5601C21.0102 15.0201 19.1402 14.1201 18.6202 13.2601C17.3502 11.1401 18.5702 11.0401 17.3502 8.74007C17.2233 8.5118 17.0122 8.34221 16.7619 8.26756C16.5117 8.19291 16.2421 8.21912 16.0109 8.34059C15.7798 8.46206 15.6053 8.66915 15.5248 8.91759C15.4443 9.16603 15.4642 9.4361 15.5802 9.67007C16.4502 11.3001 15.3602 11.6701 16.9102 14.2901C17.7402 15.6801 19.5002 16.3601 20.3302 17.6501C20.9602 18.6501 20.9302 20.6501 21.9802 22.1501C23.0302 23.6501 24.8002 24.1501 25.6502 25.2501C26.5002 26.3501 26.5402 28.2501 27.7102 29.6001C28.8802 30.9501 30.7902 31.3401 31.7102 32.2801C32.6302 33.2201 33.0202 35.1301 34.3902 36.2801C35.7602 37.4301 37.6902 37.5401 38.7402 38.3501C39.7902 39.1601 40.4302 41.0001 41.8802 42.0001C43.3302 43.0001 45.4602 43.0601 46.3902 43.6601C47.6802 44.4901 48.3902 46.2501 49.7502 47.0801C52.3202 48.6101 52.7502 47.5401 54.3602 48.4001C54.59 48.4943 54.8468 48.4996 55.0804 48.415C55.3139 48.3303 55.5076 48.1617 55.6237 47.942C55.7398 47.7224 55.7699 47.4673 55.7083 47.2267C55.6466 46.986 55.4976 46.7769 55.2902 46.6401Z" fill="#FF0000"/>
</g>
<defs>
<clipPath id="clip0_510_12466">
<rect width="64" height="64" fill="white"/>
</clipPath>
</defs>
</svg>
