<svg width="64" height="64" viewBox="0 0 64 64" fill="none" xmlns="http://www.w3.org/2000/svg">
<g clip-path="url(#clip0_510_12470)">
<path d="M32 0C28.0218 0 24.2064 1.58035 21.3934 4.3934C18.5804 7.20644 17 11.0218 17 15V40C17 41.3261 17.5268 42.5979 18.4645 43.5355C19.4021 44.4732 20.6739 45 22 45H28V60C28 61.0609 28.4214 62.0783 29.1716 62.8284C29.9217 63.5786 30.9391 64 32 64C33.0609 64 34.0783 63.5786 34.8284 62.8284C35.5786 62.0783 36 61.0609 36 60V45H42C43.3261 45 44.5979 44.4732 45.5355 43.5355C46.4732 42.5979 47 41.3261 47 40V15C47 11.0218 45.4196 7.20644 42.6066 4.3934C39.7936 1.58035 35.9782 0 32 0V0ZM19 15C19 11.5522 20.3696 8.24558 22.8076 5.80761C25.2456 3.36964 28.5522 2 32 2C35.4478 2 38.7544 3.36964 41.1924 5.80761C43.6304 8.24558 45 11.5522 45 15V26.08C43.6012 26.3164 42.3315 27.0408 41.4162 28.1246C40.5008 29.2084 39.9991 30.5814 40 32V34C40 34.5304 39.7893 35.0391 39.4142 35.4142C39.0391 35.7893 38.5304 36 38 36C37.4696 36 36.9609 35.7893 36.5858 35.4142C36.2107 35.0391 36 34.5304 36 34V27C36 25.9391 35.5786 24.9217 34.8284 24.1716C34.0783 23.4214 33.0609 23 32 23C30.9391 23 29.9217 23.4214 29.1716 24.1716C28.4214 24.9217 28 25.9391 28 27V31C28 31.5304 27.7893 32.0391 27.4142 32.4142C27.0391 32.7893 26.5304 33 26 33C25.4696 33 24.9609 32.7893 24.5858 32.4142C24.2107 32.0391 24 31.5304 24 31V27C24.0009 25.5814 23.4992 24.2084 22.5838 23.1246C21.6685 22.0408 20.3988 21.3164 19 21.08V15ZM34 60C34 60.5304 33.7893 61.0391 33.4142 61.4142C33.0391 61.7893 32.5304 62 32 62C31.4696 62 30.9609 61.7893 30.5858 61.4142C30.2107 61.0391 30 60.5304 30 60V45H34V60ZM42 43H22C21.2044 43 20.4413 42.6839 19.8787 42.1213C19.3161 41.5587 19 40.7956 19 40V23.14C19.8565 23.3611 20.6155 23.8599 21.1583 24.5584C21.7011 25.2568 21.9971 26.1154 22 27V31C22 32.0609 22.4214 33.0783 23.1716 33.8284C23.9217 34.5786 24.9391 35 26 35C27.0609 35 28.0783 34.5786 28.8284 33.8284C29.5786 33.0783 30 32.0609 30 31V27C30 26.4696 30.2107 25.9609 30.5858 25.5858C30.9609 25.2107 31.4696 25 32 25C32.5304 25 33.0391 25.2107 33.4142 25.5858C33.7893 25.9609 34 26.4696 34 27V34C34 35.0609 34.4214 36.0783 35.1716 36.8284C35.9217 37.5786 36.9391 38 38 38C39.0609 38 40.0783 37.5786 40.8284 36.8284C41.5786 36.0783 42 35.0609 42 34V32C42.0029 31.1154 42.2989 30.2568 42.8417 29.5584C43.3845 28.8599 44.1435 28.3611 45 28.14V40C45 40.7956 44.6839 41.5587 44.1213 42.1213C43.5587 42.6839 42.7956 43 42 43Z" fill="#FF0000"/>
<path d="M24.11 17.45L25.11 19.45C25.2402 19.6663 25.4474 19.8254 25.6901 19.8953C25.9327 19.9652 26.1928 19.9407 26.4181 19.8268C26.6434 19.7129 26.8173 19.5179 26.9049 19.2811C26.9924 19.0443 26.9871 18.7831 26.89 18.55L25.89 16.55C25.7599 16.3336 25.5527 16.1745 25.31 16.1046C25.0674 16.0347 24.8073 16.0592 24.582 16.1731C24.3567 16.2871 24.1828 16.482 24.0952 16.7189C24.0077 16.9557 24.013 17.2169 24.11 17.45Z" fill="#FF0000"/>
<path d="M32 16H34C34.2652 16 34.5196 15.8946 34.7071 15.7071C34.8946 15.5196 35 15.2652 35 15C35 14.7348 34.8946 14.4804 34.7071 14.2929C34.5196 14.1054 34.2652 14 34 14H32C31.7348 14 31.4804 14.1054 31.2929 14.2929C31.1054 14.4804 31 14.7348 31 15C31 15.2652 31.1054 15.5196 31.2929 15.7071C31.4804 15.8946 31.7348 16 32 16Z" fill="#FF0000"/>
<path d="M38.5499 9.89005C40.7499 11 40.6799 11 40.9999 11C41.2238 10.9987 41.4408 10.9223 41.6161 10.783C41.7914 10.6436 41.9149 10.4495 41.9667 10.2317C42.0186 10.0138 41.9958 9.78491 41.9021 9.58154C41.8084 9.37817 41.6491 9.21214 41.4499 9.11005L39.4499 8.11005C39.2168 8.01298 38.9556 8.00769 38.7187 8.09522C38.4819 8.18276 38.2869 8.35665 38.173 8.58198C38.0591 8.80731 38.0346 9.0674 38.1045 9.31003C38.1744 9.55266 38.3335 9.75986 38.5499 9.89005V9.89005Z" fill="#FF0000"/>
<path d="M33 8V6C33 5.73478 32.8946 5.48043 32.7071 5.29289C32.5196 5.10536 32.2652 5 32 5C31.7348 5 31.4804 5.10536 31.2929 5.29289C31.1054 5.48043 31 5.73478 31 6V8C31 8.26522 31.1054 8.51957 31.2929 8.70711C31.4804 8.89464 31.7348 9 32 9C32.2652 9 32.5196 8.89464 32.7071 8.70711C32.8946 8.51957 33 8.26522 33 8V8Z" fill="#FF0000"/>
<path d="M37.5499 20.89C39.7499 22 39.6799 22 39.9999 22C40.2238 21.9987 40.4408 21.9223 40.6161 21.783C40.7914 21.6436 40.9149 21.4495 40.9667 21.2317C41.0186 21.0138 40.9958 20.7849 40.9021 20.5815C40.8084 20.3782 40.6491 20.2121 40.4499 20.11L38.4499 19.11C38.2168 19.013 37.9556 19.0077 37.7187 19.0952C37.4819 19.1828 37.2869 19.3567 37.173 19.582C37.0591 19.8073 37.0346 20.0674 37.1045 20.31C37.1744 20.5527 37.3335 20.7599 37.5499 20.89Z" fill="#FF0000"/>
<path d="M23.89 11.45L24.89 9.44997C24.9871 9.21688 24.9924 8.9557 24.9049 8.71886C24.8173 8.48203 24.6434 8.28707 24.4181 8.17314C24.1928 8.05921 23.9327 8.03474 23.6901 8.10463C23.4474 8.17453 23.2402 8.33363 23.11 8.54997L22.11 10.55C22.013 10.7831 22.0077 11.0443 22.0952 11.2811C22.1828 11.5179 22.3567 11.7129 22.582 11.8268C22.8073 11.9407 23.0674 11.9652 23.31 11.8953C23.5527 11.8254 23.7599 11.6663 23.89 11.45V11.45Z" fill="#FF0000"/>
</g>
<defs>
<clipPath id="clip0_510_12470">
<rect width="64" height="64" fill="white"/>
</clipPath>
</defs>
</svg>
