<svg width="64" height="64" viewBox="0 0 64 64" fill="none" xmlns="http://www.w3.org/2000/svg">
<g clip-path="url(#clip0_510_12479)">
<path d="M47.4499 28.39C48.3324 26.6794 48.5126 24.6921 47.9524 22.8507C47.3921 21.0093 46.1355 19.4591 44.4499 18.53C45.8399 15.53 44.6999 12.42 40.0199 11.2C39.5199 0.429968 29.6599 -3.10569e-05 28.9999 -3.10569e-05C28.7347 -0.015944 28.474 0.0741516 28.2752 0.250436C28.0765 0.42672 27.9558 0.674752 27.9399 0.939969C27.924 1.20519 28.0141 1.46586 28.1904 1.66465C28.3667 1.86344 28.6147 1.98406 28.8799 1.99997C30.1399 2.50997 31.7399 11 24.9699 11C18.8599 11 17.0199 16 19.0399 18.62C18.2004 19.0579 17.4635 19.6689 16.8777 20.4128C16.292 21.1567 15.8708 22.0165 15.6421 22.9353C15.4133 23.854 15.3822 24.8109 15.5508 25.7426C15.7193 26.6743 16.0838 27.5596 16.6199 28.34C16.0972 28.6145 15.6671 29.0371 15.3835 29.5549C15.0998 30.0727 14.9753 30.6627 15.0255 31.251C15.0757 31.8393 15.2983 32.3997 15.6656 32.862C16.0328 33.3243 16.5283 33.668 17.0899 33.85L18.9999 46.15C19.0361 46.3884 19.1572 46.6058 19.341 46.762C19.5247 46.9182 19.7588 47.0027 19.9999 47H20.6399L22.9999 63.15C23.0361 63.3884 23.1572 63.6058 23.341 63.762C23.5247 63.9182 23.7588 64.0027 23.9999 64H39.9999C40.2411 64.0027 40.4751 63.9182 40.6589 63.762C40.8426 63.6058 40.9638 63.3884 40.9999 63.15L43.3599 47H43.9999C44.2411 47.0027 44.4751 46.9182 44.6589 46.762C44.8426 46.6058 44.9638 46.3884 44.9999 46.15L46.8899 33.85C47.4431 33.6706 47.9322 33.3342 48.2977 32.882C48.6632 32.4297 48.8894 31.8809 48.9487 31.3024C49.008 30.7239 48.8979 30.1407 48.6319 29.6236C48.3658 29.1065 47.9551 28.6779 47.4499 28.39V28.39ZM21.9999 20H33.9999C34.2651 20 34.5195 19.8946 34.707 19.7071C34.8946 19.5195 34.9999 19.2652 34.9999 19C34.9999 18.7348 34.8946 18.4804 34.707 18.2929C34.5195 18.1053 34.2651 18 33.9999 18H21.9999C19.3099 18 19.4199 13 24.9999 13C27.5999 13 31.9999 11.53 31.9999 5.99997C32.0318 4.78139 31.8664 3.56568 31.5099 2.39997C33.9999 3.12997 37.5899 5.18997 37.9999 11H33.9999C33.7347 11 33.4804 11.1053 33.2928 11.2929C33.1053 11.4804 32.9999 11.7348 32.9999 12C32.9999 12.2652 33.1053 12.5195 33.2928 12.7071C33.4804 12.8946 33.7347 13 33.9999 13H38.8899C41.9599 13.64 43.9799 15.22 42.4399 18H37.9999C37.7347 18 37.4804 18.1053 37.2928 18.2929C37.1053 18.4804 36.9999 18.7348 36.9999 19C36.9999 19.2652 37.1053 19.5195 37.2928 19.7071C37.4804 19.8946 37.7347 20 37.9999 20H42.8099C45.6599 21.05 47.2999 24.37 45.4099 28H19.9999C16.3499 28 16.3099 20 21.9999 20ZM39.1399 62H24.8599L22.6599 47H41.3399L39.1399 62ZM43.1399 45H20.8599L19.1699 34H44.8299L43.1399 45ZM45.9999 32H17.9999C17.7347 32 17.4804 31.8946 17.2928 31.7071C17.1053 31.5195 16.9999 31.2652 16.9999 31C16.9999 30.7348 17.1053 30.4804 17.2928 30.2929C17.4804 30.1053 17.7347 30 17.9999 30H45.9999C46.2651 30 46.5195 30.1053 46.707 30.2929C46.8946 30.4804 46.9999 30.7348 46.9999 31C46.9999 31.2652 46.8946 31.5195 46.707 31.7071C46.5195 31.8946 46.2651 32 45.9999 32Z" fill="#FF0000"/>
</g>
<defs>
<clipPath id="clip0_510_12479">
<rect width="64" height="64" fill="white"/>
</clipPath>
</defs>
</svg>
