<svg width="64" height="64" viewBox="0 0 64 64" fill="none" xmlns="http://www.w3.org/2000/svg">
<g clip-path="url(#clip0_510_12482)">
<path d="M29.5 16.25C29.5769 15.9954 29.5495 15.7207 29.4239 15.4862C29.2982 15.2518 29.0846 15.0769 28.83 15C28.5754 14.9231 28.3006 14.9505 28.0662 15.0761C27.8318 15.2018 27.6569 15.4154 27.58 15.67C27.1546 17.0651 26.3933 18.3345 25.3629 19.3667C24.3324 20.3989 23.0644 21.1623 21.67 21.59C21.4316 21.6789 21.2361 21.8554 21.1232 22.0835C21.0104 22.3115 20.9887 22.574 21.0627 22.8175C21.1366 23.0609 21.3006 23.2671 21.5212 23.3939C21.7417 23.5207 22.0024 23.5586 22.25 23.5C23.9596 22.9773 25.5147 22.0429 26.7788 20.7788C28.0429 19.5147 28.9773 17.9596 29.5 16.25V16.25Z" fill="#FF0000"/>
<path d="M55 -1.63026e-05H44C43.7618 -0.00348002 43.5302 0.0782292 43.3468 0.230397C43.1635 0.382564 43.0405 0.59519 43 0.829984L41 12H30C29.8009 9.92342 29.0153 7.94631 27.735 6.2993C26.4548 4.65228 24.7325 3.40328 22.7693 2.69799C20.806 1.9927 18.6827 1.86021 16.647 2.31598C14.6113 2.77174 12.7472 3.79697 11.2721 5.27206C9.79703 6.74715 8.7718 8.61128 8.31604 10.647C7.86027 12.6827 7.99276 14.806 8.69805 16.7692C9.40333 18.7325 10.6523 20.4547 12.2994 21.735C13.9464 23.0153 15.9235 23.8008 18 24V61C18 61.7956 18.3161 62.5587 18.8787 63.1213C19.4413 63.6839 20.2044 64 21 64H45C45.7957 64 46.5588 63.6839 47.1214 63.1213C47.684 62.5587 48 61.7956 48 61V13C48 12.7348 47.8947 12.4804 47.7071 12.2929C47.5196 12.1053 47.2653 12 47 12H43.07L44.84 1.99998H55C55.2653 1.99998 55.5196 1.89463 55.7071 1.70709C55.8947 1.51955 56 1.2652 56 0.999984C56 0.734767 55.8947 0.480413 55.7071 0.292877C55.5196 0.105341 55.2653 -1.63026e-05 55 -1.63026e-05ZM10 13C10 10.613 10.9483 8.32385 12.6361 6.63602C14.3239 4.9482 16.6131 3.99998 19 3.99998C21.2147 3.98818 23.3545 4.80064 25.0032 6.27932C26.652 7.75799 27.6917 9.79712 27.92 12H19C18.7348 12 18.4805 12.1053 18.2929 12.2929C18.1054 12.4804 18 12.7348 18 13V21.92C15.7972 21.6916 13.7581 20.6519 12.2794 19.0032C10.8007 17.3545 9.98823 15.2146 10 13ZM46 14V61C46 61.2652 45.8947 61.5196 45.7071 61.7071C45.5196 61.8946 45.2653 62 45 62H21C20.7348 62 20.4805 61.8946 20.2929 61.7071C20.1054 61.5196 20 61.2652 20 61V14H40.69L38.75 25H23C22.7348 25 22.4805 25.1053 22.2929 25.2929C22.1054 25.4804 22 25.7348 22 26V56C22 56.7956 22.3161 57.5587 22.8787 58.1213C23.4413 58.6839 24.2044 59 25 59H41C41.7957 59 42.5588 58.6839 43.1214 58.1213C43.684 57.5587 44 56.7956 44 56V26C44 25.7348 43.8947 25.4804 43.7071 25.2929C43.5196 25.1053 43.2653 25 43 25H40.78L42.72 14H46ZM36 52.17L40.43 27H42V56C42 56.2652 41.8947 56.5196 41.7071 56.7071C41.5196 56.8946 41.2653 57 41 57H25C24.7348 57 24.4805 56.8946 24.2929 56.7071C24.1054 56.5196 24 56.2652 24 56V27H38.4L34 51.83C33.9777 51.9613 33.9815 52.0957 34.0111 52.2256C34.0407 52.3555 34.0957 52.4782 34.1727 52.5869C34.2498 52.6955 34.3475 52.7879 34.4603 52.8588C34.5731 52.9297 34.6987 52.9777 34.83 53C34.9614 53.0223 35.0958 53.0186 35.2257 52.9889C35.3555 52.9593 35.4783 52.9044 35.5869 52.8273C35.6956 52.7502 35.788 52.6525 35.8589 52.5397C35.9297 52.4269 35.9777 52.3013 36 52.17Z" fill="#FF0000"/>
<path d="M55 -1.63026e-05H44C43.7618 -0.00348002 43.5302 0.0782292 43.3468 0.230397C43.1635 0.382564 43.0405 0.59519 43 0.829984L41 12H30C29.8009 9.92342 29.0153 7.94631 27.735 6.2993C26.4548 4.65228 24.7325 3.40328 22.7693 2.69799C20.806 1.9927 18.6827 1.86021 16.647 2.31598C14.6113 2.77174 12.7472 3.79697 11.2721 5.27206C9.79703 6.74715 8.7718 8.61128 8.31604 10.647C7.86027 12.6827 7.99276 14.806 8.69805 16.7692C9.40333 18.7325 10.6523 20.4547 12.2994 21.735C13.9464 23.0153 15.9235 23.8008 18 24V61C18 61.7956 18.3161 62.5587 18.8787 63.1213C19.4413 63.6839 20.2044 64 21 64H45C45.7957 64 46.5588 63.6839 47.1214 63.1213C47.684 62.5587 48 61.7956 48 61V13C48 12.7348 47.8947 12.4804 47.7071 12.2929C47.5196 12.1053 47.2653 12 47 12H43.07L44.84 1.99998H55C55.2653 1.99998 55.5196 1.89463 55.7071 1.70709C55.8947 1.51955 56 1.2652 56 0.999984C56 0.734767 55.8947 0.480413 55.7071 0.292877C55.5196 0.105341 55.2653 -1.63026e-05 55 -1.63026e-05ZM10 13C10 10.613 10.9483 8.32385 12.6361 6.63602C14.3239 4.9482 16.6131 3.99998 19 3.99998C21.2147 3.98818 23.3545 4.80064 25.0032 6.27932C26.652 7.75799 27.6917 9.79712 27.92 12H19C18.7348 12 18.4805 12.1053 18.2929 12.2929C18.1054 12.4804 18 12.7348 18 13V21.92C15.7972 21.6916 13.7581 20.6519 12.2794 19.0032C10.8007 17.3545 9.98823 15.2146 10 13ZM46 14V61C46 61.2652 45.8947 61.5196 45.7071 61.7071C45.5196 61.8946 45.2653 62 45 62H21C20.7348 62 20.4805 61.8946 20.2929 61.7071C20.1054 61.5196 20 61.2652 20 61V14H40.69L38.75 25H23C22.7348 25 22.4805 25.1053 22.2929 25.2929C22.1054 25.4804 22 25.7348 22 26V56C22 56.7956 22.3161 57.5587 22.8787 58.1213C23.4413 58.6839 24.2044 59 25 59H41C41.7957 59 42.5588 58.6839 43.1214 58.1213C43.684 57.5587 44 56.7956 44 56V26C44 25.7348 43.8947 25.4804 43.7071 25.2929C43.5196 25.1053 43.2653 25 43 25H40.78L42.72 14H46ZM36 52.17L40.43 27H42V56C42 56.2652 41.8947 56.5196 41.7071 56.7071C41.5196 56.8946 41.2653 57 41 57H25C24.7348 57 24.4805 56.8946 24.2929 56.7071C24.1054 56.5196 24 56.2652 24 56V27H38.4L34 51.83C33.9777 51.9613 33.9815 52.0957 34.0111 52.2256C34.0407 52.3555 34.0957 52.4782 34.1727 52.5869C34.2498 52.6955 34.3475 52.7879 34.4603 52.8588C34.5731 52.9297 34.6987 52.9777 34.83 53C34.9614 53.0223 35.0958 53.0186 35.2257 52.9889C35.3555 52.9593 35.4783 52.9044 35.5869 52.8273C35.6956 52.7502 35.788 52.6525 35.8589 52.5397C35.9297 52.4269 35.9777 52.3013 36 52.17Z" stroke="#FF0000"/>
</g>
<defs>
<clipPath id="clip0_510_12482">
<rect width="64" height="64" fill="white"/>
</clipPath>
</defs>
</svg>
