<svg width="64" height="64" viewBox="0 0 64 64" fill="none" xmlns="http://www.w3.org/2000/svg">
<path d="M48 28V20C48 12 16 12 16 20V28C8 28.08 0 30.13 0 34V52C0 59.11 26.4 60 32 54.19C37.63 60 64 59.07 64 52V34C64 30.14 56 28.09 48 28ZM62 34C62 35.63 56.35 38 47.5 38C38.65 38 33 35.63 33 34C33 32.37 38.22 30.19 46.49 30C43.84 30.08 38 30.53 38 33C38 35.86 45.91 36 47.5 36C49.09 36 57 35.86 57 33C57 30.55 51.16 30.1 48.51 30C56.78 30.19 62 32.43 62 34ZM23.67 33C20.76 34.33 12.24 34.33 9.33 33C12.24 31.67 20.76 31.67 23.67 33ZM54.67 33C51.76 34.33 43.24 34.33 40.33 33C43.24 31.67 51.76 31.67 54.67 33ZM32 31.81C29.75 29.5 24 28.21 18 28.02V23.02C23.82 26.94 40.18 26.94 46 23.02V28.02C40 28.21 34.25 29.5 32 31.81ZM38.93 19C36.16 20.33 27.86 20.34 25.07 19C27.84 17.67 36.14 17.66 38.93 19ZM31 16C28.42 16.08 22.76 16.53 22.76 19C22.76 21.86 30.45 22 31.99 22C33.53 22 41.22 21.86 41.22 19C41.22 16.55 35.56 16.1 32.98 16C40.98 16.17 45.98 18.41 45.98 20C45.98 21.59 40.53 24 31.98 24C23.43 24 17.98 21.63 17.98 20C17.98 18.37 23 16.19 31 16ZM15.49 30C12.84 30.1 7 30.55 7 33C7 35.86 14.91 36 16.5 36C18.09 36 26 35.86 26 33C26 30.55 20.16 30.1 17.51 30C25.78 30.19 31 32.43 31 34C31 35.57 25.35 38 16.5 38C7.65 38 2 35.63 2 34C2 32.37 7.22 30.19 15.49 30ZM16.49 56C7.65 56 2 53.63 2 52V37C8 41 25 41 31 37V52C31 53.63 25.35 56 16.5 56H16.49ZM47.49 56C38.65 56 33 53.63 33 52V37C39 41 56 41 62 37V52C62 53.63 56.35 56 47.5 56H47.49Z" fill="#FF0000"/>
<path d="M9 52C8.73478 52 8.48043 52.1054 8.29289 52.2929C8.10536 52.4804 8 52.7348 8 53C8 53.2652 8.10536 53.5196 8.29289 53.7071C8.48043 53.8946 8.73478 54 9 54C9.26522 54 9.51957 53.8946 9.70711 53.7071C9.89464 53.5196 10 53.2652 10 53C10 52.7348 9.89464 52.4804 9.70711 52.2929C9.51957 52.1054 9.26522 52 9 52Z" fill="#FF0000"/>
<path d="M5 49C4.73478 49 4.48043 49.1054 4.29289 49.2929C4.10536 49.4804 4 49.7348 4 50C4 50.2652 4.10536 50.5196 4.29289 50.7071C4.48043 50.8946 4.73478 51 5 51C5.26522 51 5.51957 50.8946 5.70711 50.7071C5.89464 50.5196 6 50.2652 6 50C6 49.7348 5.89464 49.4804 5.70711 49.2929C5.51957 49.1054 5.26522 49 5 49Z" fill="#FF0000"/>
<path d="M10 47C9.73478 47 9.48043 47.1054 9.29289 47.2929C9.10536 47.4804 9 47.7348 9 48C9 48.2652 9.10536 48.5196 9.29289 48.7071C9.48043 48.8946 9.73478 49 10 49C10.2652 49 10.5196 48.8946 10.7071 48.7071C10.8946 48.5196 11 48.2652 11 48C11 47.7348 10.8946 47.4804 10.7071 47.2929C10.5196 47.1054 10.2652 47 10 47Z" fill="#FF0000"/>
<path d="M40 51C39.7348 51 39.4804 51.1054 39.2929 51.2929C39.1054 51.4804 39 51.7348 39 52C39 52.2652 39.1054 52.5196 39.2929 52.7071C39.4804 52.8946 39.7348 53 40 53C40.2652 53 40.5196 52.8946 40.7071 52.7071C40.8946 52.5196 41 52.2652 41 52C41 51.7348 40.8946 51.4804 40.7071 51.2929C40.5196 51.1054 40.2652 51 40 51Z" fill="#FF0000"/>
<path d="M36 48C35.7348 48 35.4804 48.1054 35.2929 48.2929C35.1054 48.4804 35 48.7348 35 49C35 49.2652 35.1054 49.5196 35.2929 49.7071C35.4804 49.8946 35.7348 50 36 50C36.2652 50 36.5196 49.8946 36.7071 49.7071C36.8946 49.5196 37 49.2652 37 49C37 48.7348 36.8946 48.4804 36.7071 48.2929C36.5196 48.1054 36.2652 48 36 48Z" fill="#FF0000"/>
<path d="M41 46C40.7348 46 40.4804 46.1054 40.2929 46.2929C40.1054 46.4804 40 46.7348 40 47C40 47.2652 40.1054 47.5196 40.2929 47.7071C40.4804 47.8946 40.7348 48 41 48C41.2652 48 41.5196 47.8946 41.7071 47.7071C41.8946 47.5196 42 47.2652 42 47C42 46.7348 41.8946 46.4804 41.7071 46.2929C41.5196 46.1054 41.2652 46 41 46Z" fill="#FF0000"/>
</svg>
