<svg width="64" height="64" viewBox="0 0 64 64" fill="none" xmlns="http://www.w3.org/2000/svg">
<g clip-path="url(#clip0_510_12495)">
<path d="M52 20C52.0045 16.1716 50.9101 12.4222 48.8468 9.19734C46.7834 5.97245 43.8378 3.40756 40.3598 1.80729C36.8818 0.207024 33.0176 -0.361366 29.2261 0.169631C25.4346 0.700629 21.8752 2.3087 18.9706 4.80285C16.066 7.29699 13.9383 10.5724 12.8403 14.24C11.7422 17.9077 11.7199 21.8134 12.776 25.4934C13.8321 29.1733 15.9222 32.4728 18.7981 35C21.674 37.5271 25.2148 39.1758 29 39.75V63C29 63.2653 29.1053 63.5196 29.2929 63.7072C29.4804 63.8947 29.7348 64 30 64H34C34.2652 64 34.5196 63.8947 34.7071 63.7072C34.8946 63.5196 35 63.2653 35 63V39.75C39.7263 39.033 44.0394 36.6468 47.158 33.0237C50.2766 29.4007 51.9943 24.7804 52 20V20ZM33 40V62H31V40H33ZM32 38C28.5879 38.0009 25.2458 37.0318 22.3633 35.2059C19.4809 33.38 17.1768 30.7724 15.7196 27.6871C14.2624 24.6018 13.7122 21.1658 14.1331 17.7798C14.554 14.3937 15.9286 11.197 18.0968 8.56231C20.265 5.92762 23.1373 3.96345 26.3791 2.89876C29.6208 1.83407 33.0984 1.71272 36.4065 2.54885C39.7146 3.38499 42.7169 5.14416 45.0634 7.62131C47.41 10.0985 49.0041 13.1916 49.66 16.54C49.631 20.6798 47.9703 24.641 45.0383 27.5636C42.1063 30.4863 38.1398 32.1344 34 32.1501C32.3742 32.1527 30.7639 31.8351 29.2608 31.2153C27.7578 30.5956 26.3916 29.6859 25.2401 28.5382C24.0887 27.3904 23.1746 26.0272 22.55 24.5261C21.9254 23.0251 21.6026 21.4158 21.6 19.79C21.6026 17.2209 22.6244 14.7578 24.441 12.9411C26.2577 11.1245 28.7209 10.1027 31.29 10.1C33.2916 10.1027 35.2104 10.899 36.6257 12.3143C38.041 13.7296 38.8373 15.6485 38.84 17.65C38.8373 19.1981 38.2212 20.682 37.1266 21.7766C36.0319 22.8713 34.548 23.4874 33 23.49C32.4113 23.4901 31.8284 23.3738 31.2848 23.1479C30.7411 22.922 30.2475 22.591 29.8321 22.1738C29.4168 21.7566 29.0879 21.2614 28.8645 20.7168C28.641 20.1721 28.5274 19.5887 28.53 19C28.5287 18.5567 28.6149 18.1174 28.7836 17.7073C28.9524 17.2973 29.2004 16.9246 29.5135 16.6106C29.8266 16.2966 30.1985 16.0475 30.608 15.8775C31.0175 15.7075 31.4566 15.62 31.9 15.62C32.5639 15.62 33.2009 15.8831 33.6713 16.3517C34.1417 16.8202 34.4073 17.4561 34.41 18.12C34.41 18.3853 34.5153 18.6396 34.7029 18.8272C34.8904 19.0147 35.1448 19.12 35.41 19.12C37.54 19.12 36.17 13.62 31.9 13.62C30.4749 13.6227 29.109 14.1907 28.1022 15.1993C27.0954 16.208 26.53 17.5749 26.53 19C26.5274 19.8514 26.6928 20.6949 27.0167 21.4822C27.3407 22.2694 27.8169 22.985 28.4179 23.588C29.019 24.1909 29.7331 24.6692 30.5194 24.9956C31.3057 25.322 32.1486 25.4901 33 25.49C35.0785 25.4874 37.0711 24.6606 38.5408 23.1908C40.0105 21.7211 40.8373 19.7285 40.84 17.65C40.8373 15.118 39.8303 12.6905 38.0399 10.9001C36.2495 9.1097 33.822 8.1027 31.29 8.10005C28.1904 8.1027 25.2186 9.33517 23.0268 11.5269C20.8351 13.7186 19.6026 16.6905 19.6 19.79C19.6013 21.6788 19.9749 23.5488 20.6996 25.2931C21.4242 27.0373 22.4856 28.6216 23.823 29.9553C25.1604 31.289 26.7477 32.346 28.4939 33.0658C30.2402 33.7855 32.1112 34.154 34 34.1501C37.0538 34.1444 40.0543 33.3496 42.7104 31.8428C45.3666 30.336 47.5883 28.1683 49.16 25.55C47.9853 29.1742 45.691 32.3322 42.6074 34.5694C39.5237 36.8067 35.8097 38.0079 32 38Z" fill="#FF0000"/>
</g>
<defs>
<clipPath id="clip0_510_12495">
<rect width="64" height="64" fill="white"/>
</clipPath>
</defs>
</svg>
