<svg width="64" height="64" viewBox="0 0 64 64" fill="none" xmlns="http://www.w3.org/2000/svg">
<g clip-path="url(#clip0_510_12498)">
<path d="M18 8C17.2089 8 16.4355 8.2346 15.7777 8.67412C15.1199 9.11365 14.6072 9.73836 14.3045 10.4693C14.0017 11.2002 13.9225 12.0044 14.0769 12.7804C14.2312 13.5563 14.6122 14.269 15.1716 14.8284C15.731 15.3878 16.4437 15.7688 17.2196 15.9231C17.9956 16.0775 18.7998 15.9983 19.5307 15.6955C20.2616 15.3928 20.8864 14.8801 21.3259 14.2223C21.7654 13.5645 22 12.7911 22 12C22 10.9391 21.5786 9.92172 20.8284 9.17157C20.0783 8.42143 19.0609 8 18 8V8ZM18 14C17.6044 14 17.2178 13.8827 16.8889 13.6629C16.56 13.4432 16.3036 13.1308 16.1522 12.7654C16.0009 12.3999 15.9613 11.9978 16.0384 11.6098C16.1156 11.2219 16.3061 10.8655 16.5858 10.5858C16.8655 10.3061 17.2219 10.1156 17.6098 10.0384C17.9978 9.96126 18.3999 10.0009 18.7654 10.1522C19.1308 10.3036 19.4432 10.56 19.6629 10.8889C19.8827 11.2178 20 11.6044 20 12C20 12.5304 19.7893 13.0391 19.4142 13.4142C19.0391 13.7893 18.5304 14 18 14Z" fill="#FF0000"/>
<path d="M62.7299 26.31C62.2999 25.86 63.7299 26 41.9999 26C41.9999 17.44 41.9999 19.26 41.9999 19C41.9999 18.74 42.4399 19.67 34.9999 4.8V3C34.9999 2.20435 34.6839 1.44129 34.1213 0.87868C33.5586 0.31607 32.7956 0 31.9999 0L11.9999 0C11.2043 0 10.4412 0.31607 9.87861 0.87868C9.31601 1.44129 8.99994 2.20435 8.99994 3V4.73C0.739935 19.2 0.999935 18.61 0.999935 19V63C0.999935 63.2652 1.10529 63.5196 1.29283 63.7071C1.48036 63.8946 1.73472 64 1.99994 64C43.9999 64 41.4399 64.26 41.8699 63.47C43.1599 64.2 42.4799 64 57.1599 64C58.1838 64.0015 59.1692 63.6105 59.9133 62.9072C60.6575 62.204 61.1036 61.2423 61.1599 60.22C63.1599 24.21 63.1599 26.78 62.7299 26.31ZM25.9999 45C14.9299 44.07 13.4999 28.11 2.99994 27.12V20H25.9999V45ZM2.99994 29.14C12.0499 30.23 13.8099 46.14 25.9999 46.95V51.95C14.7099 51.5 13.2899 43.55 2.99994 43.02V29.14ZM27.9999 47H39.1099L39.3899 52H27.9999V47ZM38.9999 26C38.8634 25.9998 38.7283 26.0275 38.6029 26.0814C38.4775 26.1354 38.3644 26.2145 38.2707 26.3138C38.1771 26.4131 38.1047 26.5305 38.0581 26.6589C38.0115 26.7872 37.9917 26.9237 37.9999 27.06L38.9999 45H27.9999V20H39.9999V26H38.9999ZM28.6199 18L33.9999 7.24L39.3799 18H28.6199ZM10.9999 3C10.9999 2.73478 11.1053 2.48043 11.2928 2.29289C11.4804 2.10536 11.7347 2 11.9999 2H31.9999C32.2652 2 32.5195 2.10536 32.707 2.29289C32.8946 2.48043 32.9999 2.73478 32.9999 3V4H10.9999V3ZM10.5799 6H32.3799L26.3799 18H3.71994L10.5799 6ZM2.99994 45.05C12.3299 45.59 14.0599 53.54 25.9999 53.98V61.98H2.99994V45.05ZM27.9999 62V54H39.4999C40.2099 66.86 39.9999 58.53 39.9999 62H27.9999ZM59.1599 60.11C59.1318 60.6211 58.9087 61.102 58.5366 61.4536C58.1646 61.8052 57.6718 62.0008 57.1599 62H43.8399C43.328 62.0008 42.8353 61.8052 42.4632 61.4536C42.0912 61.102 41.8681 60.6211 41.8399 60.11L40.0599 28H60.9399L59.1599 60.11Z" fill="#FF0000"/>
<path d="M44.7199 59H56.2799C56.5451 59 56.7995 58.8947 56.987 58.7071C57.1746 58.5196 57.2799 58.2652 57.2799 58C58.4199 37.28 58.4799 38.71 58.0599 38.26C57.6399 37.81 58.4399 38 43.6699 38C43.4047 38 43.1504 38.1054 42.9628 38.2929C42.7753 38.4805 42.6699 38.7348 42.6699 39L43.6699 58C43.6698 58.1357 43.6972 58.2699 43.7505 58.3946C43.8039 58.5193 43.882 58.6319 43.9803 58.7254C44.0785 58.819 44.1947 58.8915 44.3219 58.9388C44.449 58.986 44.5845 59.0068 44.7199 59ZM56.2699 40L55.3299 57H45.6699L44.7299 40H56.2699Z" fill="#FF0000"/>
</g>
<defs>
<clipPath id="clip0_510_12498">
<rect width="64" height="64" fill="white"/>
</clipPath>
</defs>
</svg>
