<svg width="64" height="64" viewBox="0 0 64 64" fill="none" xmlns="http://www.w3.org/2000/svg">
<g clip-path="url(#clip0_510_12503)">
<path d="M58.7298 26.31C58.2898 25.86 60.0498 26 34.9998 26C34.8633 25.9997 34.7282 26.0274 34.6028 26.0814C34.4774 26.1354 34.3643 26.2144 34.2707 26.3137C34.177 26.4131 34.1046 26.5305 34.058 26.6588C34.0115 26.7872 33.9917 26.9237 33.9998 27.06L35.8398 60.22C35.8962 61.2422 36.3423 62.204 37.0864 62.9072C37.8306 63.6104 38.816 64.0015 39.8398 64H53.1598C54.1837 64.0015 55.1691 63.6104 55.9133 62.9072C56.6574 62.204 57.1035 61.2422 57.1598 60.22C59.1598 24.21 59.1598 26.78 58.7298 26.31ZM55.1598 60.11C55.1317 60.6211 54.9086 61.102 54.5366 61.4536C54.1645 61.8052 53.6718 62.0007 53.1598 62H39.8398C39.3279 62.0007 38.8352 61.8052 38.4631 61.4536C38.0911 61.102 37.868 60.6211 37.8398 60.11L36.0599 28H56.9398L55.1598 60.11Z" fill="#FF0000"/>
<path d="M40.7199 59H52.2799C52.5451 59 52.7995 58.8947 52.987 58.7071C53.1746 58.5196 53.2799 58.2652 53.2799 58C54.4199 37.28 54.4799 38.71 54.0599 38.26C53.6399 37.81 54.4399 38 39.6699 38C39.4047 38 39.1504 38.1054 38.9628 38.2929C38.7753 38.4805 38.6699 38.7348 38.6699 39L39.6699 58C39.6698 58.1357 39.6972 58.2699 39.7505 58.3946C39.8039 58.5193 39.882 58.6319 39.9803 58.7254C40.0785 58.819 40.1947 58.8915 40.3219 58.9388C40.449 58.986 40.5845 59.0068 40.7199 59ZM52.2699 40L51.3299 57H41.6699L40.7299 40H52.2699Z" fill="#FF0000"/>
<path d="M30.9998 19C30.9998 13.36 24.9098 9.48 22.9998 8.4V8C23.265 8 23.5194 7.89464 23.7069 7.70711C23.8945 7.51957 23.9998 7.26522 23.9998 7V1C23.9998 0.734784 23.8945 0.48043 23.7069 0.292893C23.5194 0.105357 23.265 0 22.9998 0L12.9998 0C12.7346 0 12.4802 0.105357 12.2927 0.292893C12.1052 0.48043 11.9998 0.734784 11.9998 1V7C11.9998 7.26522 12.1052 7.51957 12.2927 7.70711C12.4802 7.89464 12.7346 8 12.9998 8V8.4C11.0898 9.48 4.99981 13.4 4.99981 19C4.99981 23.21 5.71981 24.76 6.29981 26C7.50981 28.6 6.96981 29.68 6.29981 30.86C4.57981 33.8 4.99981 31.93 4.99981 59C4.99981 60.3261 5.52659 61.5979 6.46428 62.5355C7.40196 63.4732 8.67373 64 9.99981 64H25.9998C27.3259 64 28.5977 63.4732 29.5353 62.5355C30.473 61.5979 30.9998 60.3261 30.9998 59V35C30.9998 31.77 28.9998 30.54 28.9998 29C28.9998 25.45 30.9998 26.09 30.9998 19ZM13.9998 2H21.9998V6H13.9998V2ZM28.9998 51H6.99981V37H28.9998V51ZM25.9998 62H9.99981C9.20416 62 8.4411 61.6839 7.87849 61.1213C7.31588 60.5587 6.99981 59.7956 6.99981 59V53H28.9998V59C28.9998 59.7956 28.6837 60.5587 28.1211 61.1213C27.5585 61.6839 26.7955 62 25.9998 62V62ZM26.9998 29C26.9998 31.26 28.9998 32.43 28.9998 35H6.99981C6.99981 32.33 8.99981 31.38 8.99981 29C8.99981 24.68 6.99981 25.77 6.99981 19C6.99981 13.7 14.3698 9.93 14.4498 9.89C15.1098 9.56 14.9998 9 14.9998 8H20.9998C20.9998 8.56 20.8198 9.53 21.5498 9.89C21.6298 9.93 28.9998 13.68 28.9998 19C28.9998 25.58 26.9998 24.8 26.9998 29Z" fill="#FF0000"/>
</g>
<defs>
<clipPath id="clip0_510_12503">
<rect width="64" height="64" fill="white"/>
</clipPath>
</defs>
</svg>
