<svg width="64" height="64" viewBox="0 0 64 64" fill="none" xmlns="http://www.w3.org/2000/svg">
<g clip-path="url(#clip0_510_12508)">
<path d="M54.0002 39.9999H53.2702C57.5602 35.4099 53.4402 25.9999 45.9502 25.0599C45.6202 21.3499 43.2802 18.4399 38.9502 16.3899C39.0403 14.7465 38.5483 13.1238 37.5607 11.8071C36.5732 10.4903 35.1532 9.56369 33.5502 9.18994C34.4702 6.63994 36.8802 3.11994 43.1502 1.97994C43.4155 1.9322 43.6508 1.78106 43.8046 1.55977C43.9584 1.33848 44.018 1.06516 43.9702 0.799942C43.9225 0.534726 43.7714 0.299336 43.5501 0.145556C43.3288 -0.0082235 43.0555 -0.0677966 42.7902 -0.0200577C35.2802 1.38994 32.5502 5.93994 31.5602 8.99994C30.8188 9.04761 30.0897 9.21301 29.4002 9.48994C26.7802 8.08994 23.8302 7.61994 19.9002 7.99994C19.7689 8.00651 19.6402 8.03888 19.5214 8.0952C19.4025 8.15152 19.296 8.23069 19.2078 8.32819C19.0296 8.5251 18.937 8.78473 18.9502 9.04994C18.9635 9.31516 19.0816 9.56425 19.2785 9.7424C19.4754 9.92056 19.735 10.0132 20.0002 9.99994C22.6802 9.99994 21.7002 15.5299 18.5502 17.1099C13.0002 19.8899 10.1902 25.5399 13.7002 28.4899C8.32024 30.2399 7.91024 36.7499 10.7002 39.9999C9.97024 39.9999 9.58024 39.9299 9.23024 40.3899C8.88024 40.8499 8.53024 39.3899 15.0602 63.2599C15.1162 63.4681 15.238 63.6527 15.4074 63.786C15.5768 63.9194 15.7847 63.9944 16.0002 63.9999H48.0002C48.226 64.0077 48.4477 63.9387 48.6293 63.8044C48.8109 63.67 48.9416 63.4781 49.0002 63.2599L55.0002 41.2599C55.041 41.1089 55.0458 40.9504 55.0141 40.7971C54.9825 40.6439 54.9153 40.5002 54.8181 40.3777C54.7208 40.2551 54.5961 40.1571 54.4541 40.0915C54.3121 40.0259 54.1566 39.9945 54.0002 39.9999V39.9999ZM33.0002 11.9999C33.0095 11.7053 33.0363 11.4114 33.0802 11.1199C34.2943 11.3678 35.3731 12.0575 36.1074 13.0555C36.8418 14.0535 37.1795 15.2887 37.0549 16.5215C36.9304 17.7543 36.3525 18.8969 35.4334 19.7279C34.5143 20.5588 33.3193 21.0189 32.0802 21.0189C30.8412 21.0189 29.6462 20.5588 28.7271 19.7279C27.808 18.8969 27.2301 17.7543 27.1056 16.5215C26.981 15.2887 27.3187 14.0535 28.053 13.0555C28.7874 12.0575 29.8662 11.3678 31.0802 11.1199C31.0002 11.6399 31.0002 11.9999 31.0002 11.9999C31.0002 12.2652 31.1056 12.5195 31.2931 12.707C31.4807 12.8946 31.735 12.9999 32.0002 12.9999C32.2655 12.9999 32.5198 12.8946 32.7073 12.707C32.8949 12.5195 33.0002 12.2652 33.0002 11.9999ZM19.4502 18.8899C22.8402 17.1999 24.3702 12.4999 23.1002 9.88994C24.5683 9.92244 26.0184 10.2206 27.3802 10.7699C26.5743 11.4719 25.9398 12.3492 25.5254 13.3344C25.111 14.3197 24.9277 15.3867 24.9896 16.4537C25.0514 17.5208 25.3569 18.5595 25.8824 19.4902C26.4079 20.4209 27.1396 21.2189 28.0213 21.823C28.9031 22.4272 29.9114 22.8213 30.9691 22.9754C32.0268 23.1294 33.1057 23.0392 34.1231 22.7116C35.1405 22.384 36.0694 21.8278 36.8385 21.0857C37.6076 20.3435 38.1966 19.435 38.5602 18.4299C42.2002 20.2799 44.0002 22.7599 44.0002 25.9999C44.0002 29.5999 23.9302 28.1299 19.1302 27.9999C18.3602 27.8899 14.7802 28.0699 14.2302 25.7499C13.7802 23.8999 15.6202 20.8099 19.4502 18.8899ZM12.3802 38.8899C10.1502 36.6499 9.89024 29.9999 17.0002 29.9999C27.8502 29.9999 43.8502 31.9999 45.8002 27.0499C53.4502 28.0499 56.2502 40.0499 48.0002 40.0499H15.1302C14.6181 40.0595 14.1094 39.9632 13.6362 39.767C13.163 39.5709 12.7354 39.2791 12.3802 38.9099V38.8899ZM11.3102 41.9999H17.1602L20.6302 61.9999H16.7602L11.3102 41.9999ZM19.1902 41.9999H26.0602L27.3002 61.9999H22.6602L19.1902 41.9999ZM29.3002 61.9999L28.0602 41.9999H35.9402L34.7002 61.9999H29.3002ZM36.7002 61.9999L37.9402 41.9999H44.8102L41.3402 61.9999H36.7002ZM47.2402 61.9999H43.3702L46.8402 41.9999H52.6902L47.2402 61.9999Z" fill="#FF0000"/>
</g>
<defs>
<clipPath id="clip0_510_12508">
<rect width="64" height="64" fill="white"/>
</clipPath>
</defs>
</svg>
