<svg width="64" height="64" viewBox="0 0 64 64" fill="none" xmlns="http://www.w3.org/2000/svg">
<g clip-path="url(#clip0_510_12511)">
<path d="M63 43H47C60.6 36 43 7 32 7C21 7 3.37 36 17 43H1C0.734784 43 0.48043 43.1054 0.292893 43.2929C0.105357 43.4804 0 43.7348 0 44L0 50C0 50.2652 0.105357 50.5196 0.292893 50.7071C0.48043 50.8946 0.734784 51 1 51H4V56C4 56.2652 4.10536 56.5196 4.29289 56.7071C4.48043 56.8946 4.73478 57 5 57H13C13.2652 57 13.5196 56.8946 13.7071 56.7071C13.8946 56.5196 14 56.2652 14 56V51H50V56C50 56.2652 50.1054 56.5196 50.2929 56.7071C50.4804 56.8946 50.7348 57 51 57H59C59.2652 57 59.5196 56.8946 59.7071 56.7071C59.8946 56.5196 60 56.2652 60 56V51H63C63.2652 51 63.5196 50.8946 63.7071 50.7071C63.8946 50.5196 64 50.2652 64 50V44C64 43.7348 63.8946 43.4804 63.7071 43.2929C63.5196 43.1054 63.2652 43 63 43ZM25 43V27H39V43H25ZM14 34.13C14 24.27 24.93 9 32 9C39.07 9 50 24.27 50 34.13C50 39.22 47.29 41.81 41 42.65V26C41 25.7348 40.8946 25.4804 40.7071 25.2929C40.5196 25.1054 40.2652 25 40 25H24C23.7348 25 23.4804 25.1054 23.2929 25.2929C23.1054 25.4804 23 25.7348 23 26V42.65C16.71 41.81 14 39.22 14 34.13ZM12 55H6V51H12V55ZM58 55H52V51H58V55ZM62 49H2V45H62V49Z" fill="#FF0000"/>
<path d="M17 35C16.7348 35 16.4804 35.1054 16.2929 35.2929C16.1054 35.4804 16 35.7348 16 36C16 36.2652 16.1054 36.5196 16.2929 36.7071C16.4804 36.8946 16.7348 37 17 37C17.2652 37 17.5196 36.8946 17.7071 36.7071C17.8946 36.5196 18 36.2652 18 36C18 35.7348 17.8946 35.4804 17.7071 35.2929C17.5196 35.1054 17.2652 35 17 35Z" fill="#FF0000"/>
<path d="M20 34C20.2652 34 20.5196 33.8946 20.7071 33.7071C20.8946 33.5196 21 33.2652 21 33C21 32.7348 20.8946 32.4804 20.7071 32.2929C20.5196 32.1054 20.2652 32 20 32C19.7348 32 19.4804 32.1054 19.2929 32.2929C19.1054 32.4804 19 32.7348 19 33C19 33.2652 19.1054 33.5196 19.2929 33.7071C19.4804 33.8946 19.7348 34 20 34Z" fill="#FF0000"/>
<path d="M20 38C19.7348 38 19.4804 38.1054 19.2929 38.2929C19.1054 38.4804 19 38.7348 19 39C19 39.2652 19.1054 39.5196 19.2929 39.7071C19.4804 39.8946 19.7348 40 20 40C20.2652 40 20.5196 39.8946 20.7071 39.7071C20.8946 39.5196 21 39.2652 21 39C21 38.7348 20.8946 38.4804 20.7071 38.2929C20.5196 38.1054 20.2652 38 20 38Z" fill="#FF0000"/>
</g>
<defs>
<clipPath id="clip0_510_12511">
<rect width="64" height="64" fill="white"/>
</clipPath>
</defs>
</svg>
