<svg width="64" height="64" viewBox="0 0 64 64" fill="none" xmlns="http://www.w3.org/2000/svg">
<g clip-path="url(#clip0_510_12517)">
<path d="M63.79 42.38C63.4 41.88 63.19 42 59.79 42C59.9952 41.2141 59.9895 40.388 59.7735 39.6049C59.5576 38.8219 59.139 38.1097 58.56 37.54C60.65 36.21 60.22 33.26 58.56 31.54C60.64 30.22 60.23 27.27 58.56 25.54C61.56 23.61 59.43 18 54.97 18H39V13C39 12.7348 38.8947 12.4804 38.7071 12.2929C38.5196 12.1054 38.2653 12 38 12H26C25.7348 12 25.4805 12.1054 25.2929 12.2929C25.1054 12.4804 25 12.7348 25 13V18H9.00004C4.48004 18 2.42004 23.64 5.41004 25.53C3.73004 27.28 3.34004 30.22 5.41004 31.53C3.73004 33.28 3.34004 36.22 5.41004 37.53C4.83106 38.1018 4.41263 38.8158 4.19675 39.6004C3.98086 40.3849 3.97509 41.2125 4.18004 42H1.00004C0.845842 41.9955 0.69269 42.0267 0.552562 42.0912C0.412434 42.1557 0.289128 42.2517 0.19229 42.3718C0.0954521 42.4919 0.0277075 42.6328 -0.00564468 42.7834C-0.0389969 42.934 -0.0370524 43.0903 3.67295e-05 43.24C0.622858 45.7493 2.07031 47.9768 4.11029 49.5653C6.15027 51.1538 8.66458 52.0112 11.25 52H52.75C55.3355 52.0112 57.8498 51.1538 59.8898 49.5653C61.9298 47.9768 63.3772 45.7493 64 43.24C64.0334 43.0902 64.0318 42.9346 63.9954 42.7855C63.959 42.6364 63.8887 42.4976 63.79 42.38ZM25 30H23V29C22.9948 28.7997 23.0499 28.6024 23.1581 28.4337C23.2664 28.2651 23.4228 28.1328 23.6071 28.0542C23.7914 27.9755 23.9951 27.954 24.1917 27.9925C24.3884 28.031 24.569 28.1276 24.71 28.27C25.05 28.57 25 28.88 25 30ZM23 32H25.17C25.3762 32.586 25.7591 33.0935 26.2661 33.4526C26.773 33.8116 27.3788 34.0045 28 34.0045C28.6212 34.0045 29.2271 33.8116 29.734 33.4526C30.2409 33.0935 30.6239 32.586 30.83 32H41C41 36 47 35.92 47 32H55C57.46 32 58.61 34.82 57.69 35.71C57.29 36.12 59.41 36 23 36V32ZM41 30H31V26H33V27C33 31 39 30.93 39 27C39 26.7348 39.1054 26.4804 39.2929 26.2929C39.4805 26.1054 39.7348 26 40 26C40.2653 26 40.5196 26.1054 40.7071 26.2929C40.8947 26.4804 41 26.7348 41 27V30ZM31 24C31 23.7348 31.1054 23.4804 31.2929 23.2929C31.4805 23.1054 31.7348 23 32 23C32.2653 23 32.5196 23.1054 32.7071 23.2929C32.8947 23.4804 33 23.7348 33 24H31ZM57.69 29.71C57.33 30.09 57.98 30 47 30V26H55C57.46 26 58.61 28.82 57.69 29.71ZM55 20C57.46 20 58.61 22.82 57.69 23.71C57.33 24.09 57.98 24 47 24V22C47 21.4696 47.2108 20.9609 47.5858 20.5858C47.9609 20.2107 48.4696 20 49 20H55ZM27 14H37V18H27V14ZM45.54 20C44.82 21.23 45 21.08 45 32C45 32.2652 44.8947 32.5196 44.7071 32.7071C44.5196 32.8946 44.2653 33 44 33C43.7348 33 43.4805 32.8946 43.2929 32.7071C43.1054 32.5196 43 32.2652 43 32V27C43 26.2044 42.684 25.4413 42.1214 24.8787C41.5587 24.3161 40.7957 24 40 24C39.2044 24 38.4413 24.3161 37.8787 24.8787C37.3161 25.4413 37 26.2044 37 27C37 27.2652 36.8947 27.5196 36.7071 27.7071C36.5196 27.8946 36.2653 28 36 28C35.7348 28 35.4805 27.8946 35.2929 27.7071C35.1054 27.5196 35 27.2652 35 27V24C35 20.08 29 20 29 24V31C29 31.2652 28.8947 31.5196 28.7071 31.7071C28.5196 31.8946 28.2653 32 28 32C27.7348 32 27.4805 31.8946 27.2929 31.7071C27.1054 31.5196 27 31.2652 27 31V29C27 25.08 21 25 21 29V37C21 37.2652 20.8947 37.5196 20.7071 37.7071C20.5196 37.8946 20.2653 38 20 38C19.7348 38 19.4805 37.8946 19.2929 37.7071C19.1054 37.5196 19 37.2652 19 37C19 21.05 19.21 21.29 18.46 20H45.54ZM7.00004 36C5.09004 36 6.00004 32 9.00004 32H17V36H7.00004ZM7.00004 30C5.61004 30 5.78004 28 6.87004 26.88C7.96004 25.76 8.53004 26 17 26V30H7.00004ZM6.87004 20.88C8.00004 19.73 8.74004 20 15 20C15.5305 20 16.0392 20.2107 16.4142 20.5858C16.7893 20.9609 17 21.4696 17 22V24H7.00004C5.61004 24 5.78004 22 6.87004 20.88V20.88ZM9.00004 38H17.17C17.3762 38.586 17.7591 39.0935 18.2661 39.4526C18.773 39.8116 19.3788 40.0045 20 40.0045C20.6212 40.0045 21.2271 39.8116 21.734 39.4526C22.2409 39.0935 22.6239 38.586 22.83 38H55C57.46 38 58.61 40.82 57.69 41.71C57.27 42.14 60.43 42 7.00004 42C5.09004 42 6.00004 38 9.00004 38ZM52.75 50H11.25C9.33954 50.0029 7.47209 49.4326 5.88907 48.363C4.30604 47.2934 3.08022 45.7736 2.37004 44H61.63C60.9199 45.7736 59.694 47.2934 58.111 48.363C56.528 49.4326 54.6605 50.0029 52.75 50V50Z" fill="#FF0000"/>
</g>
<defs>
<clipPath id="clip0_510_12517">
<rect width="64" height="64" fill="white"/>
</clipPath>
</defs>
</svg>
