<svg width="64" height="64" viewBox="0 0 64 64" fill="none" xmlns="http://www.w3.org/2000/svg">
<path d="M64 30C64 27.51 60 26.4 58.41 26.06C56.67 24.85 43.59 16 32 16C20.41 16 7.33 24.85 5.59 26.06C4 26.4 0 27.51 0 30C0 32.49 2 33.8 5.34 34L9.12 44.66C9.46332 45.6354 10.1006 46.4804 10.9441 47.0786C11.7877 47.6768 12.7959 47.9987 13.83 48H50.17C51.2041 47.9987 52.2123 47.6768 53.0559 47.0786C53.8994 46.4804 54.5367 45.6354 54.88 44.66L58.66 34C62 33.8 64 32.35 64 30ZM53 44C52.7931 44.5852 52.4098 45.0917 51.903 45.4499C51.3961 45.8081 50.7907 46.0003 50.17 46H13.83C13.2093 46.0003 12.6039 45.8081 12.097 45.4499C11.5902 45.0917 11.2069 44.5852 11 44L8 35.35C11.1268 36.4416 14.4854 36.6933 17.74 36.08C21.07 39 27.11 39 32 39C36.89 39 42.93 39 46.31 36.08C49.5646 36.6938 52.9233 36.4421 56.05 35.35L53 44ZM58 32C57.8684 31.9992 57.7379 32.0245 57.6161 32.0742C57.4943 32.124 57.3834 32.1973 57.29 32.29C55.68 33.91 51.08 35 46.2 34C46.0378 33.9661 45.8698 33.973 45.7109 34.0201C45.5521 34.0673 45.4074 34.1531 45.29 34.27C42.59 37 36.72 37 32 37C17.09 37 19.85 33.62 17.8 34C12.92 35 8.32 33.89 6.71 32.27C6.51806 32.0901 6.26297 31.9931 6 32C4.8 32 2 31.8 2 30C2 29.41 4.08 28.41 6.2 28C6.72 27.9 20.2 18 32 18C43.8 18 57.16 27.85 57.8 28C59.92 28.43 62 29.43 62 30C62 31.8 59.2 32 58 32Z" fill="#FF0000"/>
<path d="M32.7998 22.4C32.7067 22.2758 32.5859 22.175 32.447 22.1056C32.3082 22.0361 32.1551 22 31.9998 22C31.8446 22 31.6915 22.0361 31.5526 22.1056C31.4138 22.175 31.293 22.2758 31.1998 22.4C30.9798 22.69 29.0798 25.31 28.9998 27.64C28.8398 33.63 39.5298 31.43 32.7998 22.4ZM32.6398 28.75C31.9098 29.5 29.7598 28.86 31.9998 24.86C32.5998 25.94 33.4998 27.87 32.6398 28.75Z" fill="#FF0000"/>
<path d="M38.65 20.5499C38.5071 20.4881 38.3516 20.4605 38.1961 20.4694C38.0406 20.4783 37.8893 20.5234 37.7543 20.6011C37.6192 20.6788 37.5042 20.7869 37.4184 20.917C37.3326 21.047 37.2784 21.1952 37.26 21.3499C36.26 30.2199 42.76 30.0299 43.62 26.6199C44.31 23.8699 41.24 21.6699 38.65 20.5499ZM40.57 26.7699C39.39 26.4299 39.2 24.3099 39.18 23.0799C43 25.3599 41.62 27.0699 40.57 26.7699Z" fill="#FF0000"/>
<path d="M25.2401 20.5499C23.7901 21.1799 21.3701 22.6899 20.7201 23.9899C17.5901 29.0699 27.9401 32.5699 26.6301 21.3499C26.6118 21.1952 26.5575 21.047 26.4717 20.917C26.3859 20.7869 26.2709 20.6788 26.1359 20.6011C26.0009 20.5234 25.8496 20.4783 25.6941 20.4694C25.5385 20.4605 25.3831 20.4881 25.2401 20.5499ZM24.1601 25.9999C23.1601 27.8699 19.9501 25.8899 24.7101 22.9999C24.7495 24.0282 24.5617 25.0525 24.1601 25.9999Z" fill="#FF0000"/>
</svg>
