<svg width="64" height="64" viewBox="0 0 64 64" fill="none" xmlns="http://www.w3.org/2000/svg">
<path d="M50.8699 1.18999C50.5277 0.959638 50.1417 0.802321 49.736 0.727866C49.3303 0.653412 48.9136 0.663421 48.5119 0.757267C48.1103 0.851113 47.7323 1.02678 47.4016 1.27329C47.0709 1.51981 46.7945 1.83187 46.5899 2.18999L43.9999 6.68999C42.2399 4.68999 29.4899 -0.0900097 16.9999 5.97999C16.6421 6.15743 16.3234 6.4045 16.0624 6.70672C15.8014 7.00894 15.6033 7.36023 15.4799 7.73999C15.0875 7.65821 14.6826 7.65589 14.2893 7.73318C13.896 7.81047 13.5222 7.9658 13.1899 8.18999C9.45296 10.7266 6.34108 14.0789 4.08907 17.994C1.83707 21.909 0.503792 26.2844 0.189866 30.79C0.147252 31.183 0.18274 31.5806 0.29429 31.9599C0.40584 32.3391 0.591251 32.6926 0.839866 33C0.571769 33.2988 0.366364 33.6483 0.235818 34.0279C0.105272 34.4076 0.0522408 34.8095 0.0798662 35.21C0.399508 39.7199 1.74046 44.098 4.0013 48.0134C6.26215 51.9287 9.38369 55.2787 13.1299 57.81C13.4609 58.0367 13.835 58.1928 14.229 58.2685C14.623 58.3442 15.0284 58.3379 15.4199 58.25C15.5445 58.6279 15.7431 58.9773 16.004 59.2777C16.265 59.5782 16.5831 59.8237 16.9399 60C21.0132 61.9648 25.4774 62.9853 29.9999 62.9853C34.5223 62.9853 38.9865 61.9648 43.0599 60C43.4186 59.8214 43.7379 59.5728 43.999 59.2688C44.26 58.9648 44.4576 58.6116 44.5799 58.23C44.9713 58.3179 45.3767 58.3242 45.7707 58.2485C46.1647 58.1728 46.5389 58.0167 46.8699 57.79C50.616 55.2587 53.7376 51.9087 55.9984 47.9934C58.2593 44.078 59.6002 39.6999 59.9199 35.19C59.9408 34.7907 59.8816 34.3913 59.746 34.0152C59.6103 33.6391 59.4008 33.294 59.1299 33C57.9199 31.71 58.9399 32 31.7299 32L34.6199 27H60.9199C61.3321 27.001 61.7402 26.917 62.1186 26.7533C62.497 26.5896 62.8375 26.3496 63.119 26.0484C63.4005 25.7472 63.6169 25.3912 63.7547 25.0026C63.8925 24.6141 63.9487 24.2013 63.9199 23.79C63.6002 19.2801 62.2593 14.9019 59.9984 10.9866C57.7376 7.07127 54.616 3.72128 50.8699 1.18999V1.18999ZM40.6199 53.4C37.3417 55.1121 33.6982 56.0063 29.9999 56.0063C26.3015 56.0063 22.658 55.1121 19.3799 53.4L29.9999 35L40.6199 53.4ZM29.9999 31L19.3799 12.61C22.6522 10.9022 26.2887 10.0103 29.9799 10.0103C33.671 10.0103 37.3076 10.9022 40.5799 12.61C29.9999 31 33.6899 24.61 29.9999 31ZM28.2699 32H6.99987C7.16516 28.3041 8.21955 24.7027 10.0736 21.5012C11.9276 18.2998 14.5265 15.5928 17.6499 13.61L28.2699 32ZM28.2699 34L17.6499 52.39C14.5265 50.4072 11.9276 47.7002 10.0736 44.4988C8.21955 41.2973 7.16516 37.6959 6.99987 34H28.2699ZM17.2699 8.36999C17.3099 8.24338 17.3747 8.126 17.4605 8.0247C17.5464 7.9234 17.6515 7.84021 17.7699 7.77999C21.5725 5.94832 25.7391 4.99714 29.9599 4.99714C34.1807 4.99714 38.3472 5.94832 42.1499 7.77999C42.2682 7.84021 42.3734 7.9234 42.4592 8.0247C42.5451 8.126 42.6099 8.24338 42.6499 8.36999C42.7999 8.87999 42.5599 9.08999 41.5399 10.86C37.9627 8.9786 33.9816 7.99552 29.9399 7.99552C25.8981 7.99552 21.917 8.9786 18.3399 10.86C17.4899 9.32999 17.1299 8.99999 17.3099 8.36999H17.2699ZM14.2699 9.83999C14.4862 9.70126 14.7476 9.65113 14.9999 9.69999C15.5699 9.82999 15.6299 10.15 16.6299 11.88C13.2072 14.0415 10.3607 17.0018 8.3349 20.5065C6.3091 24.0112 5.16463 27.9553 4.99987 32H3.07987C2.94334 32.0002 2.80821 31.9725 2.6828 31.9186C2.55739 31.8646 2.44436 31.7855 2.35067 31.6862C2.25698 31.5869 2.18462 31.4695 2.13805 31.3411C2.09148 31.2128 2.07167 31.0763 2.07987 30.94C2.3807 26.7305 3.63326 22.6442 5.74312 18.9891C7.85298 15.3341 10.7651 12.2058 14.2599 9.83999H14.2699ZM14.2699 56.16C10.7703 53.7974 7.8536 50.6703 5.74007 47.0149C3.62655 43.3595 2.37153 39.2716 2.06987 35.06C2.06243 34.9248 2.08252 34.7895 2.12893 34.6623C2.17535 34.5351 2.24711 34.4186 2.33987 34.32C2.72987 33.9 2.99987 34 4.99987 34C5.16681 38.0465 6.31433 41.9919 8.3437 45.4967C10.3731 49.0015 13.2235 51.9608 16.6499 54.12C15.5799 56 15.5599 56.18 14.9999 56.3C14.7444 56.3515 14.4789 56.3013 14.2599 56.16H14.2699ZM42.6999 57.63C42.6599 57.7566 42.5951 57.874 42.5092 57.9753C42.4234 58.0766 42.3182 58.1598 42.1999 58.22C38.3972 60.0517 34.2307 61.0028 30.0099 61.0028C25.7891 61.0028 21.6225 60.0517 17.8199 58.22C17.7015 58.1598 17.5964 58.0766 17.5105 57.9753C17.4247 57.874 17.3599 57.7566 17.3199 57.63C17.1499 57.07 17.3899 56.86 18.3899 55.13C21.9741 57.0116 25.9617 57.9946 30.0099 57.9946C34.058 57.9946 38.0456 57.0116 41.6299 55.13C42.5099 56.67 42.8699 57 42.6899 57.63H42.6999ZM57.6999 34.32C57.7926 34.4186 57.8644 34.5351 57.9108 34.6623C57.9572 34.7895 57.9773 34.9248 57.9699 35.06C57.6693 39.2707 56.4159 43.3581 54.3041 47.0134C52.1923 50.6687 49.2775 53.7963 45.7799 56.16C45.666 56.2338 45.5383 56.2836 45.4045 56.3064C45.2708 56.3292 45.1338 56.3246 45.0019 56.2928C44.8699 56.261 44.7459 56.2027 44.6372 56.1214C44.5286 56.0401 44.4376 55.9376 44.3699 55.82L43.3699 54.12C46.7925 51.9585 49.639 48.9981 51.6648 45.4935C53.6906 41.9888 54.8351 38.0447 54.9999 34C56.9999 34 57.2699 33.9 57.6599 34.32H57.6999ZM42.3499 52.39L31.7299 34H52.9999C52.8346 37.6959 51.7802 41.2973 49.9262 44.4988C48.0721 47.7002 45.4732 50.4072 42.3499 52.39V52.39ZM35.7699 25C36.6299 23.52 45.4999 8.07999 46.3499 6.60999C49.4686 8.59778 52.064 11.3059 53.9174 14.5063C55.7708 17.7067 56.828 21.3057 56.9999 25H35.7699ZM61.6599 24.68C61.2599 25.1 60.9699 25 58.9699 25C58.8009 20.9563 57.6547 17.0137 55.6292 13.5097C53.6038 10.0057 50.7596 7.04469 47.3399 4.87999L48.3399 3.17999C48.4076 3.06243 48.4986 2.95989 48.6072 2.87861C48.7159 2.79733 48.8399 2.73901 48.9719 2.7072C49.1038 2.67539 49.2408 2.67076 49.3745 2.69359C49.5083 2.71642 49.636 2.76623 49.7499 2.83999C53.2475 5.20366 56.1624 8.33127 58.2741 11.9866C60.3859 15.6419 61.6393 19.7292 61.9399 23.94C61.946 24.0759 61.9243 24.2116 61.8762 24.3389C61.828 24.4661 61.7544 24.5822 61.6599 24.68V24.68Z" fill="#FF0000"/>
<path d="M46.5 16C45.8078 16 45.1311 16.2053 44.5555 16.5899C43.9799 16.9744 43.5313 17.5211 43.2664 18.1606C43.0015 18.8001 42.9322 19.5039 43.0673 20.1828C43.2023 20.8617 43.5356 21.4854 44.0251 21.9749C44.5146 22.4644 45.1383 22.7977 45.8172 22.9327C46.4961 23.0678 47.1999 22.9985 47.8394 22.7336C48.4789 22.4687 49.0256 22.0201 49.4101 21.4445C49.7947 20.8689 50 20.1922 50 19.5C50 18.5717 49.6312 17.6815 48.9749 17.0251C48.3185 16.3687 47.4283 16 46.5 16ZM46.5 21C46.1022 21 45.7206 20.842 45.4393 20.5607C45.158 20.2794 45 19.8978 45 19.5C45 19.1022 45.158 18.7206 45.4393 18.4393C45.7206 18.158 46.1022 18 46.5 18C46.8978 18 47.2794 18.158 47.5607 18.4393C47.842 18.7206 48 19.1022 48 19.5C48 19.8978 47.842 20.2794 47.5607 20.5607C47.2794 20.842 46.8978 21 46.5 21Z" fill="#FF0000"/>
<path d="M27 18.5C27 19.1922 27.2053 19.8689 27.5899 20.4445C27.9744 21.0201 28.5211 21.4687 29.1606 21.7336C29.8001 21.9985 30.5039 22.0678 31.1828 21.9327C31.8617 21.7977 32.4854 21.4644 32.9749 20.9749C33.4644 20.4854 33.7977 19.8617 33.9327 19.1828C34.0678 18.5039 33.9985 17.8001 33.7336 17.1606C33.4687 16.5211 33.0201 15.9744 32.4445 15.5899C31.8689 15.2053 31.1922 15 30.5 15C29.5717 15 28.6815 15.3687 28.0251 16.0251C27.3687 16.6815 27 17.5717 27 18.5V18.5ZM30.5 17C30.8978 17 31.2794 17.158 31.5607 17.4393C31.842 17.7206 32 18.1022 32 18.5C32 18.8978 31.842 19.2794 31.5607 19.5607C31.2794 19.842 30.8978 20 30.5 20C30.1022 20 29.7206 19.842 29.4393 19.5607C29.158 19.2794 29 18.8978 29 18.5C29 18.1022 29.158 17.7206 29.4393 17.4393C29.7206 17.158 30.1022 17 30.5 17Z" fill="#FF0000"/>
<path d="M44.5 40C43.8078 40 43.1311 40.2053 42.5555 40.5899C41.9799 40.9744 41.5313 41.5211 41.2664 42.1606C41.0015 42.8001 40.9322 43.5039 41.0673 44.1828C41.2023 44.8617 41.5356 45.4854 42.0251 45.9749C42.5146 46.4644 43.1383 46.7977 43.8172 46.9327C44.4961 47.0678 45.1999 46.9985 45.8394 46.7336C46.4789 46.4687 47.0256 46.0201 47.4101 45.4445C47.7947 44.8689 48 44.1922 48 43.5C48 42.5717 47.6312 41.6815 46.9749 41.0251C46.3185 40.3688 45.4283 40 44.5 40ZM44.5 45C44.1022 45 43.7206 44.842 43.4393 44.5607C43.158 44.2794 43 43.8978 43 43.5C43 43.1022 43.158 42.7206 43.4393 42.4393C43.7206 42.158 44.1022 42 44.5 42C44.8978 42 45.2794 42.158 45.5607 42.4393C45.842 42.7206 46 43.1022 46 43.5C46 43.8978 45.842 44.2794 45.5607 44.5607C45.2794 44.842 44.8978 45 44.5 45Z" fill="#FF0000"/>
<path d="M29.5 43C28.8078 43 28.1311 43.2053 27.5555 43.5899C26.9799 43.9744 26.5313 44.5211 26.2664 45.1606C26.0015 45.8001 25.9322 46.5039 26.0673 47.1828C26.2023 47.8617 26.5356 48.4854 27.0251 48.9749C27.5146 49.4644 28.1383 49.7977 28.8172 49.9327C29.4961 50.0678 30.1999 49.9985 30.8394 49.7336C31.4789 49.4687 32.0256 49.0201 32.4101 48.4445C32.7947 47.8689 33 47.1922 33 46.5C33 45.5717 32.6313 44.6815 31.9749 44.0251C31.3185 43.3688 30.4283 43 29.5 43V43ZM29.5 48C29.1022 48 28.7206 47.842 28.4393 47.5607C28.158 47.2794 28 46.8978 28 46.5C28 46.1022 28.158 45.7206 28.4393 45.4393C28.7206 45.158 29.1022 45 29.5 45C29.8978 45 30.2794 45.158 30.5607 45.4393C30.842 45.7206 31 46.1022 31 46.5C31 46.8978 30.842 47.2794 30.5607 47.5607C30.2794 47.842 29.8978 48 29.5 48V48Z" fill="#FF0000"/>
<path d="M16.5 45C17.1922 45 17.8689 44.7947 18.4445 44.4101C19.0201 44.0256 19.4687 43.4789 19.7336 42.8394C19.9985 42.1999 20.0678 41.4961 19.9327 40.8172C19.7977 40.1383 19.4644 39.5146 18.9749 39.0251C18.4854 38.5356 17.8617 38.2023 17.1828 38.0673C16.5039 37.9322 15.8001 38.0015 15.1606 38.2664C14.5211 38.5313 13.9744 38.9799 13.5899 39.5555C13.2053 40.1311 13 40.8078 13 41.5C13 42.4283 13.3687 43.3185 14.0251 43.9749C14.6815 44.6312 15.5717 45 16.5 45V45ZM16.5 40C16.8978 40 17.2794 40.158 17.5607 40.4393C17.842 40.7206 18 41.1022 18 41.5C18 41.8978 17.842 42.2794 17.5607 42.5607C17.2794 42.842 16.8978 43 16.5 43C16.1022 43 15.7206 42.842 15.4393 42.5607C15.158 42.2794 15 41.8978 15 41.5C15 41.1022 15.158 40.7206 15.4393 40.4393C15.7206 40.158 16.1022 40 16.5 40Z" fill="#FF0000"/>
<path d="M11 25.5C11 26.1922 11.2053 26.8689 11.5899 27.4445C11.9744 28.0201 12.5211 28.4687 13.1606 28.7336C13.8001 28.9985 14.5039 29.0678 15.1828 28.9327C15.8618 28.7977 16.4854 28.4644 16.9749 27.9749C17.4644 27.4854 17.7977 26.8617 17.9327 26.1828C18.0678 25.5039 17.9985 24.8001 17.7336 24.1606C17.4687 23.5211 17.0201 22.9744 16.4445 22.5899C15.8689 22.2053 15.1922 22 14.5 22C13.5717 22 12.6815 22.3687 12.0251 23.0251C11.3687 23.6815 11 24.5717 11 25.5V25.5ZM14.5 24C14.8978 24 15.2794 24.158 15.5607 24.4393C15.842 24.7206 16 25.1022 16 25.5C16 25.8978 15.842 26.2794 15.5607 26.5607C15.2794 26.842 14.8978 27 14.5 27C14.1022 27 13.7206 26.842 13.4393 26.5607C13.158 26.2794 13 25.8978 13 25.5C13 25.1022 13.158 24.7206 13.4393 24.4393C13.7206 24.158 14.1022 24 14.5 24Z" fill="#FF0000"/>
<path d="M47.2897 11.7099L49.7897 14.2099C49.978 14.3982 50.2334 14.504 50.4997 14.504C50.766 14.504 51.0214 14.3982 51.2097 14.2099C51.398 14.0216 51.5038 13.7662 51.5038 13.4999C51.5038 13.2336 51.398 12.9782 51.2097 12.7899L48.7097 10.2899C48.5214 10.1016 48.266 9.99585 47.9997 9.99585C47.7334 9.99585 47.478 10.1016 47.2897 10.2899C47.1014 10.4782 46.9956 10.7336 46.9956 10.9999C46.9956 11.2662 47.1014 11.5216 47.2897 11.7099Z" fill="#FF0000"/>
<path d="M42 38H46C46.2652 38 46.5196 37.8946 46.7071 37.7071C46.8946 37.5196 47 37.2652 47 37C47 36.7348 46.8946 36.4804 46.7071 36.2929C46.5196 36.1054 46.2652 36 46 36H42C41.7348 36 41.4804 36.1054 41.2929 36.2929C41.1054 36.4804 41 36.7348 41 37C41 37.2652 41.1054 37.5196 41.2929 37.7071C41.4804 37.8946 41.7348 38 42 38Z" fill="#FF0000"/>
<path d="M32.2401 54L36.2401 53C36.5053 52.9363 36.7344 52.7699 36.8769 52.5374C37.0194 52.3048 37.0637 52.0252 37.0001 51.76C36.9364 51.4947 36.77 51.2657 36.5375 51.1231C36.3049 50.9806 36.0253 50.9363 35.7601 51L31.7601 52C31.4949 52.0636 31.2658 52.23 31.1233 52.4626C30.9807 52.6951 30.9364 52.9747 31.0001 53.24C31.0637 53.5052 31.2301 53.7342 31.4627 53.8768C31.6952 54.0193 31.9749 54.0636 32.2401 54Z" fill="#FF0000"/>
<path d="M21.4498 38.83C21.6694 38.9478 21.925 38.9794 22.1667 38.9186C22.4083 38.8577 22.6185 38.7089 22.7561 38.5012C22.8938 38.2935 22.9489 38.0419 22.9107 37.7957C22.8726 37.5495 22.7439 37.3263 22.5498 37.17L19.5498 35.17C19.3303 35.0523 19.0747 35.0207 18.833 35.0815C18.5914 35.1424 18.3812 35.2912 18.2436 35.4989C18.1059 35.7066 18.0508 35.9582 18.0889 36.2044C18.1271 36.4506 18.2558 36.6737 18.4498 36.83L21.4498 38.83Z" fill="#FF0000"/>
<path d="M19.5499 27.89C23.8699 30.05 23.6699 30 23.9999 30C24.2238 29.9987 24.4408 29.9223 24.6161 29.783C24.7914 29.6436 24.9149 29.4495 24.9667 29.2317C25.0186 29.0138 24.9958 28.7849 24.9021 28.5815C24.8084 28.3782 24.6492 28.2121 24.4499 28.11L20.4499 26.11C20.2168 26.013 19.9556 26.0077 19.7187 26.0952C19.4819 26.1828 19.287 26.3567 19.173 26.582C19.0591 26.8073 19.0346 27.0674 19.1045 27.31C19.1744 27.5527 19.3335 27.7599 19.5499 27.89Z" fill="#FF0000"/>
<path d="M27.5499 12.11L23.5499 14.11C23.3506 14.2121 23.1914 14.3782 23.0977 14.5815C23.0039 14.7849 22.9812 15.0138 23.0331 15.2317C23.0849 15.4495 23.2084 15.6436 23.3837 15.783C23.559 15.9223 23.776 15.9987 23.9999 16C24.3399 16 24.1299 16.05 28.4499 13.89C28.6663 13.7599 28.8254 13.5527 28.8953 13.31C28.9652 13.0674 28.9407 12.8073 28.8268 12.582C28.7128 12.3567 28.5179 12.1828 28.281 12.0952C28.0442 12.0077 27.783 12.013 27.5499 12.11Z" fill="#FF0000"/>
</svg>
