<svg width="64" height="64" viewBox="0 0 64 64" fill="none" xmlns="http://www.w3.org/2000/svg">
<g clip-path="url(#clip0_510_12541)">
<path d="M63.7 1.29C63.25 0.84 65.5 1 32 1.65V1C32 0.734784 31.8946 0.48043 31.7071 0.292893C31.5196 0.105357 31.2652 0 31 0C30.7348 0 30.4804 0.105357 30.2929 0.292893C30.1054 0.48043 30 0.734784 30 1V1.69H28V1C28 0.734784 27.8946 0.48043 27.7071 0.292893C27.5196 0.105357 27.2652 0 27 0C26.7348 0 26.4804 0.105357 26.2929 0.292893C26.1054 0.48043 26 0.734784 26 1V1.77H24V1C24 0.734784 23.8946 0.48043 23.7071 0.292893C23.5196 0.105357 23.2652 0 23 0C22.7348 0 22.4804 0.105357 22.2929 0.292893C22.1054 0.48043 22 0.734784 22 1V1.85H20V1C20 0.734784 19.8946 0.48043 19.7071 0.292893C19.5196 0.105357 19.2652 0 19 0C18.7348 0 18.4804 0.105357 18.2929 0.292893C18.1054 0.48043 18 0.734784 18 1V1.94L15 2C14.7348 2 14.4804 2.10536 14.2929 2.29289C14.1054 2.48043 14 2.73478 14 3V9C14 9.26522 14.1054 9.51957 14.2929 9.70711C14.4804 9.89464 14.7348 10 15 10L18 10.06V14C18 15.0609 17.5786 16.0783 16.8284 16.8284C16.0783 17.5786 15.0609 18 14 18C13.7348 18 13.4804 18.1054 13.2929 18.2929C13.1054 18.4804 13 18.7348 13 19C13 21.42 20 19.5 20 14V10.1L22 10.15V25.64C21.62 25.76 21.25 25.9 20.89 26.05C17.19 22.05 11.66 19.65 7.75 21.8C4.24 23.74 3.31 28.62 3.9 33H0.999996C0.734779 33 0.480425 33.1054 0.292889 33.2929C0.105353 33.4804 -4.27663e-06 33.7348 -4.27663e-06 34C-0.0779141 35.9202 0.0663767 37.8429 0.429996 39.73C1.30022 43.7505 3.18925 47.4799 5.91579 50.5602C8.64232 53.6404 12.1148 55.9682 16 57.32V63C16 63.2652 16.1054 63.5196 16.2929 63.7071C16.4804 63.8946 16.7348 64 17 64H39C39.2652 64 39.5196 63.8946 39.7071 63.7071C39.8946 63.5196 40 63.2652 40 63V57.32C43.0599 56.2245 45.8724 54.5338 48.2754 52.3454C50.6783 50.157 52.6239 47.5144 54 44.57C55.4928 41.2543 56.1783 37.6319 56 34C56 33.7348 55.8946 33.4804 55.7071 33.2929C55.5196 33.1054 55.2652 33 55 33H52.94C52.09 24.86 41.45 19.71 32 23V10.35L63 11C63.2652 11 63.5196 10.8946 63.7071 10.7071C63.8946 10.5196 64 10.2652 64 10C64 1.34 64.11 1.68 63.7 1.29ZM62 3V5H32V3.65L62 3ZM30 3.69V5H28V3.73L30 3.69ZM28 7H30V8.31H28V7ZM26 8.23H24V7H26V8.23ZM26 3.77V5H24V3.81L26 3.77ZM22 3.85V5H20V3.9L22 3.85ZM16 4H18V5H16V4ZM16 8V7H18V8.06L16 8ZM20 8.08V7H22V8.15L20 8.08ZM24 10.17H26V25C25.33 25.0061 24.6614 25.0629 24 25.17V10.17ZM34.9 33H32.78C31.93 31 28.56 29 24 29C22.75 29 23.47 29.34 22.22 27.65C27.42 25.76 34 28.16 34.9 33ZM36.9 33C36.8278 32.478 36.7004 31.9651 36.52 31.47C40.07 30.47 44.41 31.18 46.35 33H36.9ZM48.75 33C47.49 30 41.19 27.83 35.61 29.68C35.1838 29.0613 34.6834 28.4971 34.12 28C40.27 25.39 47.52 28.54 48.84 33.05L48.75 33ZM24.65 33C24.5203 32.3165 24.3261 31.6468 24.07 31C26.3353 30.8932 28.5637 31.6029 30.35 33H24.65ZM8.65 23.56C13.13 21.09 21.28 27.24 22.58 33H19.91C18.83 26.18 9.1 26.41 8.08 33H5.92C5.24 28.68 6.35 24.86 8.71 23.56H8.65ZM17.89 33H10.11C10.3193 32.1259 10.817 31.3477 11.5227 30.791C12.2285 30.2344 13.1011 29.9316 14 29.9316C14.8989 29.9316 15.7715 30.2344 16.4772 30.791C17.183 31.3477 17.6806 32.1259 17.89 33V33ZM52.5 43H3.5C3.22964 42.3469 2.99594 41.6792 2.8 41H53.2C53.004 41.6792 52.7704 42.3469 52.5 43V43ZM38 62H18V58C22.39 59.24 25.41 59 30.55 59C33.0675 59.0104 35.5744 58.6739 38 58V62ZM30.55 57C23.41 57 22.79 57.2 17.27 55.64C11.8033 53.8406 7.21976 50.0394 4.44 45H51.56C47.46 52.63 39.13 57 30.55 57ZM54 35.43C53.9974 36.628 53.8835 37.8231 53.66 39H2.34C2.09158 37.6816 1.97766 36.3414 2 35C59.47 35 54 34.79 54 35.43ZM50.93 33C49.65 26.5 39.77 22.62 32.32 26.62C31.7677 26.3034 31.1889 26.0357 30.59 25.82C38.61 21.44 50 25.41 50.93 33ZM30 23.83C29.3019 24.1903 28.6332 24.6049 28 25.07V10.27H30C30 24.86 30 23.55 30 23.83ZM62 9L32 8.35V7H62V9Z" fill="#FF0000"/>
</g>
<defs>
<clipPath id="clip0_510_12541">
<rect width="64" height="64" fill="white"/>
</clipPath>
</defs>
</svg>
