<svg width="64" height="64" viewBox="0 0 64 64" fill="none" xmlns="http://www.w3.org/2000/svg">
<g clip-path="url(#clip0_510_12544)">
<path d="M64 26C64 25.7348 63.8946 25.4804 63.7071 25.2929C63.5196 25.1054 63.2652 25 63 25H60.92C63.87 20.14 64.08 13 60 13C57.91 13 57.66 13.84 57 14C56.37 12.91 56.16 9 53 9C52.5383 8.99505 52.0855 9.12738 51.6992 9.3802C51.3128 9.63302 51.0103 9.99494 50.83 10.42C49.17 13.38 49.28 5 45 5C43.7 5 43.09 6.35 42.44 7.78C42.12 8.5 41.44 10 41 10C39.66 10 39.26 7.92 37 8C35.39 8.06 34.57 9 33.15 11C28.72 5.53 23.28 6 19 6C18.7348 6 18.4804 6.10536 18.2929 6.29289C18.1054 6.48043 18 6.73478 18 7V10.19C16.6 9.93 16.29 10 10 10C9.73478 10 9.48043 10.1054 9.29289 10.2929C9.10536 10.4804 9 10.7348 9 11C8.99696 13.645 9.95669 16.2008 11.7 18.19C10.9261 18.4025 10.2141 18.7964 9.62279 19.3389C9.03151 19.8815 8.57805 20.5572 8.3 21.31C7.49931 21.6029 6.78683 22.0957 6.23025 22.7416C5.67367 23.3874 5.29148 24.1648 5.12 25H1C0.734784 25 0.48043 25.1054 0.292893 25.2929C0.105357 25.4804 0 25.7348 0 26C0.00170778 32.1159 1.93692 38.0747 5.52899 43.0246C9.12106 47.9744 14.1861 51.662 20 53.56V58C20 58.2652 20.1054 58.5196 20.2929 58.7071C20.4804 58.8946 20.7348 59 21 59H43C43.2652 59 43.5196 58.8946 43.7071 58.7071C43.8946 58.5196 44 58.2652 44 58V53.56C49.8139 51.662 54.8789 47.9744 58.471 43.0246C62.0631 38.0747 63.9983 32.1159 64 26V26ZM54.78 25C54.4528 24.4022 53.9903 23.8892 53.4295 23.502C52.8686 23.1148 52.225 22.8641 51.55 22.77C51.1254 22.1623 50.5403 21.6845 49.86 21.39C49.6327 19.9587 49.097 18.5938 48.29 17.39C49.3909 16.9869 50.5807 16.8905 51.7322 17.1111C52.8836 17.3318 53.9535 17.8611 54.8274 18.6426C55.7014 19.4241 56.3465 20.4284 56.694 21.5482C57.0414 22.6679 57.0781 23.861 56.8 25H54.78ZM14.14 25C14.298 24.3993 14.5938 23.8437 15.0038 23.3772C15.4139 22.9106 15.9269 22.546 16.5023 22.3121C17.0778 22.0783 17.6997 21.9816 18.319 22.0299C18.9382 22.0781 19.5377 22.2699 20.07 22.59C19.5639 23.3103 19.2225 24.133 19.07 25H14.14ZM28.86 25H21.14C21.3703 24.1526 21.873 23.4046 22.5706 22.8713C23.2682 22.3379 24.1219 22.049 25 22.049C25.8781 22.049 26.7318 22.3379 27.4294 22.8713C28.127 23.4046 28.6297 24.1526 28.86 25ZM30.91 25C30.7683 24.1788 30.4585 23.3958 30 22.7C30.0999 22.6521 30.1911 22.5879 30.27 22.51C30.8777 22.0479 31.5914 21.7454 32.346 21.6302C33.1006 21.5149 33.8721 21.5904 34.59 21.85C34.744 21.9016 34.9083 21.9149 35.0685 21.8888C35.2288 21.8626 35.3804 21.7978 35.51 21.7C36.272 21.267 37.1335 21.0393 38.01 21.0393C38.8865 21.0393 39.748 21.267 40.51 21.7C41.18 22.21 41.51 21.6 43.01 21.6C45.71 21.6 45.51 22.87 46.53 22.83H47.01C48.55 22.83 49.74 23.46 50.01 24.05C50.32 24.87 50.94 24.54 52.01 25.05L30.91 25ZM47.7 20.83C47.4102 20.815 47.1198 20.815 46.83 20.83C46.0314 20.2658 45.1186 19.8838 44.1561 19.711C43.1937 19.5382 42.205 19.5788 41.26 19.83C40.258 19.3315 39.1541 19.0721 38.035 19.0721C36.9159 19.0721 35.812 19.3315 34.81 19.83C34.3951 19.3419 33.8933 18.935 33.33 18.63C34.1722 17.3524 35.3632 16.3431 36.7616 15.7219C38.1601 15.1007 39.7074 14.8936 41.22 15.1252C42.7326 15.3568 44.147 16.0173 45.2956 17.0284C46.4441 18.0396 47.2786 19.3589 47.7 20.83V20.83ZM37 10C38.23 10 38.55 12 41 12C43.45 12 44.25 7.91 45.11 7C47.17 7.23 47.11 13 50 13C52.43 13 52.43 11 53 11C55 11 54.29 16.35 57.13 16C58.79 15.79 58.4 15 60 15C61.6 15 61.68 20.21 59 24.35C59.1509 22.8611 58.9051 21.3589 58.2875 19.9957C57.67 18.6326 56.7027 17.4571 55.4839 16.5888C54.2652 15.7204 52.8383 15.19 51.3482 15.0515C49.8582 14.9129 48.358 15.1712 47 15.8C45.4381 14.2715 43.4156 13.301 41.246 13.0389C39.0765 12.7767 36.881 13.2376 35 14.35C34.7925 13.8286 34.552 13.3209 34.28 12.83C35.89 10.49 36.29 10 37 10ZM20 8H22.72C25.0551 8.00987 27.3301 8.74035 29.2345 10.0917C31.1388 11.443 32.5796 13.3492 33.36 15.55C32.5681 16.2635 31.8932 17.097 31.36 18.02L31 18C30.3609 17.1561 29.4705 16.5368 28.4569 16.2313C27.4434 15.9258 26.359 15.9498 25.36 16.3C24.7763 15.7597 24.0692 15.3706 23.3005 15.1666C22.5317 14.9626 21.7247 14.9501 20.95 15.13C19.83 12.57 20 10.85 20 8ZM18.09 12.27C18.2451 13.5415 18.5819 14.7842 19.09 15.96C18.9335 16.0645 18.7832 16.178 18.64 16.3C17.7935 16.0028 16.8827 15.9388 16.0029 16.1147C15.1232 16.2907 14.3071 16.7001 13.64 17.3C12.2016 15.8786 11.2914 14.0089 11.06 12C16.26 12 16.6 11.91 18.09 12.27ZM9.33 23.09C9.51589 23.0488 9.68615 22.9554 9.82078 22.8208C9.95541 22.6862 10.0488 22.5159 10.09 22.33C10.2411 21.6703 10.6109 21.0811 11.1392 20.6581C11.6675 20.2352 12.3232 20.0032 13 20C13.22 20 14 20.26 14.4 19.54C14.7869 18.8664 15.4199 18.3691 16.1659 18.1528C16.9119 17.9364 17.7128 18.0179 18.4 18.38C19.73 19.09 19.74 17 22 17C24.26 17 24.32 19.06 25.58 18.38C26.2672 18.0179 27.0681 17.9364 27.8141 18.1528C28.5601 18.3691 29.1931 18.8664 29.58 19.54C29.6779 19.7135 29.8254 19.8537 30.0036 19.9428C30.1818 20.0319 30.3825 20.0657 30.58 20.04C30.0792 20.2179 29.61 20.4744 29.19 20.8C28.8323 20.7939 28.4747 20.814 28.12 20.86C27.1141 20.2543 25.9527 19.957 24.7795 20.005C23.6063 20.053 22.473 20.4441 21.52 21.13C20.6928 20.5326 19.7269 20.156 18.7136 20.0358C17.7003 19.9157 16.6731 20.0559 15.7291 20.4433C14.7851 20.8307 13.9555 21.4525 13.3187 22.2498C12.682 23.0472 12.2591 23.9937 12.09 25H7.18C7.34974 24.527 7.63555 24.1043 8.01122 23.7706C8.38688 23.4369 8.84034 23.2028 9.33 23.09V23.09ZM42 57H22V54.14C26.24 55.2 28.93 55 35 55C37.3597 55.0006 39.7106 54.7118 42 54.14V57ZM35 53H29C22.0091 53.0048 15.2888 50.2978 10.2531 45.4487C5.21746 40.5995 2.25892 33.9861 2 27H62C61.7411 33.9861 58.7825 40.5995 53.7468 45.4487C48.7112 50.2978 41.9909 53.0048 35 53V53Z" fill="#FF0000"/>
</g>
<defs>
<clipPath id="clip0_510_12544">
<rect width="64" height="64" fill="white"/>
</clipPath>
</defs>
</svg>
