<svg width="64" height="64" viewBox="0 0 64 64" fill="none" xmlns="http://www.w3.org/2000/svg">
<g clip-path="url(#clip0_510_12547)">
<path d="M32 0C25.671 0 19.4841 1.87677 14.2218 5.39297C8.95939 8.90918 4.85787 13.9069 2.43587 19.7541C0.013865 25.6014 -0.619842 32.0355 0.614885 38.2429C1.84961 44.4503 4.89732 50.1521 9.3726 54.6274C13.8479 59.1027 19.5497 62.1504 25.7571 63.3851C31.9645 64.6199 38.3986 63.9861 44.2459 61.5641C50.0931 59.1421 55.0908 55.0406 58.607 49.7782C62.1232 44.5159 64 38.329 64 32C64 23.5131 60.6286 15.3737 54.6274 9.37258C48.6263 3.37142 40.4869 0 32 0V0ZM32 62C26.0666 62 20.2664 60.2405 15.3329 56.9441C10.3994 53.6476 6.55426 48.9623 4.28363 43.4805C2.013 37.9987 1.4189 31.9667 2.57646 26.1473C3.73401 20.3279 6.59124 14.9824 10.7868 10.7868C14.9824 6.59122 20.3279 3.734 26.1473 2.57644C31.9667 1.41888 37.9987 2.01299 43.4805 4.28361C48.9623 6.55424 53.6477 10.3994 56.9441 15.3329C60.2405 20.2664 62 26.0666 62 32C62 39.9565 58.8393 47.5871 53.2132 53.2132C47.5871 58.8393 39.9565 62 32 62Z" fill="#FF0000"/>
<path d="M40.0002 13.07V12C40.0002 11.7348 39.8948 11.4804 39.7073 11.2929C39.5198 11.1054 39.2654 11 39.0002 11C38.735 11 38.4806 11.1054 38.2931 11.2929C38.1056 11.4804 38.0002 11.7348 38.0002 12V12.93C35.2451 12.0638 32.3351 11.8045 29.4702 12.17C28.3003 11.9042 27.0813 11.949 25.9341 12.2998C24.7869 12.6507 23.7513 13.2954 22.9302 14.17C20.4483 15.4321 18.2574 17.1985 16.4975 19.3561C14.7376 21.5138 13.4477 24.0151 12.7102 26.7C12.1203 27.9672 11.8754 29.3678 12.0002 30.76C11.8295 33.3847 12.1838 36.0172 13.0423 38.5034C13.9008 40.9897 15.2463 43.2798 17.0002 45.24C17.043 45.3998 17.1248 45.5465 17.2382 45.6669C17.3517 45.7873 17.4932 45.8777 17.6502 45.93C20.6283 49.0172 24.5251 51.0583 28.7587 51.7486C32.9923 52.4388 37.3357 51.7413 41.1402 49.76C41.2696 50.1432 41.5223 50.4727 41.8589 50.697C42.1954 50.9214 42.5967 51.0279 43.0002 51C48.8902 51 53.0002 42 53.0002 34C53.0002 21.49 46.5502 13.79 40.0002 13.07ZM42.0802 44.6C41.662 45.5304 41.3436 46.5025 41.1302 47.5C39.8383 48.2782 38.4497 48.8833 37.0002 49.3C37.1302 48.52 37.0002 47.12 36.0002 44.61C33.1402 38.12 37.0002 31 39.0002 31C41.0002 31 44.8402 38.16 42.0802 44.6ZM14.4002 35.71C15.7669 37.0596 17.5736 37.8725 19.4902 38C18.4559 39.3188 17.7406 40.8589 17.4002 42.5C15.9323 40.4737 14.9099 38.1597 14.4002 35.71V35.71ZM32.9102 14C33.4002 14 33.9102 14.07 34.3902 14.14C33.1702 14.79 33.7602 14.86 32.9102 14ZM38.0002 15.09V25.18C37.5467 25.345 37.1398 25.617 36.8138 25.9729C36.4879 26.3288 36.2527 26.758 36.128 27.2242C36.0034 27.6904 35.993 28.1798 36.0979 28.6508C36.2027 29.1219 36.4196 29.5607 36.7302 29.93C33.6502 32.46 31.5102 39.38 34.0802 45.39C35.0802 47.61 35.0802 48.69 34.9802 49C32.1202 49 29.3702 45.43 27.9802 40.67C25.0002 30.43 29.2202 16.35 38.0002 15.09ZM25.1802 37C25.3397 38.3518 25.6038 39.6891 25.9702 41C24.7402 43.37 22.4502 44.45 19.1202 44.19C19.8702 38.94 22.6302 37.31 25.1802 37ZM25.5702 27.86C25.231 29.6411 25.0403 31.4473 25.0002 33.26C24.2685 34.3901 23.178 35.2412 21.904 35.6766C20.6301 36.112 19.2468 36.1062 17.9765 35.6603C16.7062 35.2144 15.6228 34.3542 14.9005 33.2181C14.1781 32.082 13.8589 30.736 13.9941 29.3965C14.1293 28.0571 14.711 26.802 15.6457 25.8331C16.5805 24.8642 17.8139 24.2379 19.1477 24.0547C20.4814 23.8716 21.838 24.1424 22.9993 24.8235C24.1606 25.5046 25.059 26.5565 25.5502 27.81L25.5702 27.86ZM26.7802 43.38C27.7003 46.0374 29.4142 48.3482 31.6902 50C27.763 49.949 23.9641 48.5947 20.8902 46.15C22.0159 46.1251 23.1234 45.8607 24.139 45.3744C25.1545 44.8882 26.0549 44.1913 26.7802 43.33V43.38ZM38.0002 28C38.0002 27.7348 38.1056 27.4804 38.2931 27.2929C38.4806 27.1054 38.735 27 39.0002 27C39.2654 27 39.5198 27.1054 39.7073 27.2929C39.8948 27.4804 40.0002 27.7348 40.0002 28C40.0002 28.2652 39.8948 28.5196 39.7073 28.7071C39.5198 28.8946 39.2654 29 39.0002 29C38.735 29 38.4806 28.8946 38.2931 28.7071C38.1056 28.5196 38.0002 28.2652 38.0002 28ZM31.8802 15.87C29.4753 18.0121 27.6723 20.7459 26.6502 23.8C25.8873 23.5927 25.1844 23.2075 24.5992 22.6759C24.014 22.1444 23.5632 21.4816 23.2838 20.7421C23.0044 20.0025 22.9043 19.2073 22.9918 18.4215C23.0793 17.6358 23.3518 16.882 23.7871 16.2221C24.2224 15.5621 24.8079 15.0148 25.4957 14.625C26.1835 14.2351 26.9539 14.014 27.7438 13.9796C28.5336 13.9453 29.3203 14.0987 30.0393 14.4273C30.7584 14.7559 31.3893 15.2503 31.8802 15.87V15.87ZM21.1302 17.68C20.8316 19.2277 21.0642 20.8309 21.7902 22.23C20.0352 21.797 18.1838 21.9952 16.5602 22.79C17.7421 20.8096 19.2936 19.0748 21.1302 17.68V17.68ZM43.0002 49C42.8102 48.14 43.5502 46.2 43.9002 45.39C46.4402 39.46 44.3602 32.48 41.2502 29.93C41.5612 29.562 41.779 29.1245 41.8852 28.6546C41.9914 28.1846 41.9828 27.696 41.8601 27.23C41.7375 26.7641 41.5045 26.3345 41.1807 25.9777C40.857 25.6208 40.4521 25.3472 40.0002 25.18V15.08C44.8702 15.8 51.0002 21.75 51.0002 34C51.0002 41.67 47.1602 48.92 43.0002 49Z" fill="#FF0000"/>
<path d="M19.0002 26V28.27L17.0002 27.13C16.8859 27.0643 16.7598 27.0218 16.6292 27.0049C16.4985 26.9879 16.3657 26.9969 16.2385 27.0313C16.1113 27.0656 15.9921 27.1247 15.8877 27.2051C15.7833 27.2856 15.6958 27.3857 15.6302 27.5C15.5645 27.6143 15.522 27.7403 15.505 27.871C15.4881 28.0017 15.4971 28.1344 15.5314 28.2616C15.5658 28.3888 15.6249 28.5081 15.7053 28.6124C15.7857 28.7168 15.8859 28.8043 16.0002 28.87L18.0002 30L16.0002 31.13C15.8075 31.2392 15.6565 31.4092 15.5709 31.6134C15.4853 31.8176 15.4699 32.0444 15.5271 32.2583C15.5843 32.4722 15.7109 32.6611 15.887 32.7953C16.0631 32.9296 16.2787 33.0015 16.5002 33C16.8502 33 16.8202 33 18.9602 31.73V34C18.9602 34.2652 19.0655 34.5196 19.253 34.7071C19.4406 34.8946 19.6949 35 19.9602 35C20.2254 35 20.4797 34.8946 20.6673 34.7071C20.8548 34.5196 20.9602 34.2652 20.9602 34V31.73C23.1202 33 23.1102 33 23.4602 33C23.6816 33.0015 23.8972 32.9296 24.0733 32.7953C24.2494 32.6611 24.376 32.4722 24.4332 32.2583C24.4904 32.0444 24.475 31.8176 24.3894 31.6134C24.3038 31.4092 24.1528 31.2392 23.9602 31.13L22.0002 30L24.0002 28.87C24.2309 28.7374 24.3995 28.5186 24.4689 28.2616C24.5383 28.0047 24.5028 27.7307 24.3702 27.5C24.3045 27.3857 24.217 27.2856 24.1126 27.2051C24.0082 27.1247 23.889 27.0656 23.7618 27.0313C23.5049 26.9619 23.2309 26.9974 23.0002 27.13L21.0002 28.27V26C21.0002 25.7348 20.8948 25.4804 20.7073 25.2929C20.5197 25.1054 20.2654 25 20.0002 25C19.7349 25 19.4806 25.1054 19.293 25.2929C19.1055 25.4804 19.0002 25.7348 19.0002 26Z" fill="#FF0000"/>
</g>
<defs>
<clipPath id="clip0_510_12547">
<rect width="64" height="64" fill="white"/>
</clipPath>
</defs>
</svg>
