<svg width="64" height="64" viewBox="0 0 64 64" fill="none" xmlns="http://www.w3.org/2000/svg">
<g clip-path="url(#clip0_510_12552)">
<path d="M63.9996 51.6L60.3696 22C60.2446 21.0014 59.8704 20.0503 59.2815 19.2342C58.6926 18.4182 57.9079 17.7633 56.9996 17.33V17C57.2648 17 57.5192 16.8946 57.7067 16.7071C57.8942 16.5196 57.9996 16.2652 57.9996 16V15.41C57.9985 15.0936 58.0607 14.7802 58.1827 14.4882C58.3046 14.1962 58.4838 13.9316 58.7096 13.71C59.0996 13.32 58.9996 13.05 58.9996 11C58.9996 9.67392 58.4728 8.40215 57.5351 7.46447C56.5975 6.52678 55.3257 6 53.9996 6H43.9996C42.6735 6 41.4017 6.52678 40.4641 7.46447C39.5264 8.40215 38.9996 9.67392 38.9996 11V13C38.9996 13.81 39.9996 13.95 39.9996 15.41V16C39.9996 16.2652 40.105 16.5196 40.2925 16.7071C40.48 16.8946 40.7344 17 40.9996 17V17.33C40.0913 17.7633 39.3066 18.4182 38.7177 19.2342C38.1288 20.0503 37.7546 21.0014 37.6296 22C33.7896 53.63 33.9996 51.77 33.9996 52.29C34.0022 53.8053 34.6061 55.2576 35.6785 56.3282C36.7509 57.3987 38.2043 58 39.7196 58H58.2796C59.0911 58.0042 59.8942 57.8359 60.6358 57.5064C61.3773 57.1768 62.0405 56.6935 62.5812 56.0885C63.122 55.4834 63.5281 54.7704 63.7726 53.9966C64.0171 53.2228 64.0945 52.4059 63.9996 51.6V51.6ZM40.9996 11C40.9996 10.2044 41.3157 9.44129 41.8783 8.87868C42.4409 8.31607 43.2039 8 43.9996 8H53.9996C54.7952 8 55.5583 8.31607 56.1209 8.87868C56.6835 9.44129 56.9996 10.2044 56.9996 11V12.62C56.4552 13.3071 56.1093 14.1302 55.9996 15H41.9996C41.9154 14.1236 41.5666 13.2935 40.9996 12.62V11ZM58.2796 56H39.7196C38.7347 56 37.79 55.6094 37.0927 54.914C36.3953 54.2185 36.0022 53.2749 35.9996 52.29C35.9996 51.94 35.7796 53.88 39.6096 22.29C39.7052 21.5419 40.0104 20.8361 40.4899 20.254C40.9694 19.6718 41.6037 19.2371 42.3196 19C43.1296 18.73 42.9996 18 42.9996 17.05H54.9996C54.9996 18.11 54.8896 18.73 55.6796 19C56.3983 19.2386 57.0345 19.6763 57.5143 20.2623C57.994 20.8482 58.2975 21.5583 58.3896 22.31L61.9996 51.84C62.0637 52.3645 62.0151 52.8966 61.8569 53.4007C61.6988 53.9048 61.4348 54.3694 61.0826 54.7632C60.7304 55.1571 60.2981 55.4712 59.8147 55.6845C59.3313 55.8977 58.8079 56.0053 58.2796 56V56Z" fill="#FF0000"/>
<path d="M58.1498 36.88C58.1204 36.6361 58.0021 36.4116 57.8177 36.2493C57.6332 36.087 57.3955 35.9983 57.1498 36H40.8498C40.6041 35.9983 40.3664 36.087 40.182 36.2493C39.9975 36.4116 39.8793 36.6361 39.8498 36.88L37.9998 52.17C37.9833 52.4053 38.0156 52.6415 38.0947 52.8637C38.1738 53.0859 38.298 53.2893 38.4596 53.4612C38.6211 53.6331 38.8165 53.7697 39.0334 53.8624C39.2502 53.9551 39.484 54.002 39.7198 54H58.2798C58.5114 53.9962 58.7398 53.9464 58.952 53.8535C59.1642 53.7607 59.3558 53.6267 59.5158 53.4593C59.6758 53.2918 59.8009 53.0943 59.884 52.8782C59.9671 52.662 60.0065 52.4315 59.9998 52.2C59.9998 52.1 60.1098 53.05 58.1498 36.88ZM39.9998 52L41.6998 38H56.2698L57.9998 52H39.9998Z" fill="#FF0000"/>
<path d="M44 11C44.2652 11 44.5196 10.8946 44.7071 10.7071C44.8946 10.5196 45 10.2652 45 10C45 9.73478 44.8946 9.48043 44.7071 9.29289C44.5196 9.10536 44.2652 9 44 9C43.7348 9 43.4804 9.10536 43.2929 9.29289C43.1054 9.48043 43 9.73478 43 10C43 10.2652 43.1054 10.5196 43.2929 10.7071C43.4804 10.8946 43.7348 11 44 11Z" fill="#FF0000"/>
<path d="M49 11C49.2652 11 49.5196 10.8946 49.7071 10.7071C49.8946 10.5196 50 10.2652 50 10C50 9.73478 49.8946 9.48043 49.7071 9.29289C49.5196 9.10536 49.2652 9 49 9C48.7348 9 48.4804 9.10536 48.2929 9.29289C48.1054 9.48043 48 9.73478 48 10C48 10.2652 48.1054 10.5196 48.2929 10.7071C48.4804 10.8946 48.7348 11 49 11Z" fill="#FF0000"/>
<path d="M54 11C54.2652 11 54.5196 10.8946 54.7071 10.7071C54.8946 10.5196 55 10.2652 55 10C55 9.73478 54.8946 9.48043 54.7071 9.29289C54.5196 9.10536 54.2652 9 54 9C53.7348 9 53.4804 9.10536 53.2929 9.29289C53.1054 9.48043 53 9.73478 53 10C53 10.2652 53.1054 10.5196 53.2929 10.7071C53.4804 10.8946 53.7348 11 54 11Z" fill="#FF0000"/>
<path d="M26.3698 22C26.2448 21.0014 25.8706 20.0503 25.2817 19.2342C24.6928 18.4182 23.9081 17.7633 22.9998 17.33V17C23.265 17 23.5193 16.8946 23.7069 16.7071C23.8944 16.5196 23.9998 16.2652 23.9998 16V15.41C23.9998 13.96 24.9998 13.81 24.9998 13V11C24.9998 9.67392 24.473 8.40215 23.5353 7.46447C22.5976 6.52678 21.3258 6 19.9998 6H9.99976C8.67368 6 7.40191 6.52678 6.46423 7.46447C5.52655 8.40215 4.99976 9.67392 4.99976 11C4.99976 13.19 4.91976 13.34 5.28976 13.71C5.5156 13.9316 5.69477 14.1962 5.81671 14.4882C5.93865 14.7802 6.00089 15.0936 5.99976 15.41V16C5.99976 16.2652 6.10512 16.5196 6.29266 16.7071C6.48019 16.8946 6.73455 17 6.99976 17V17.33C6.09146 17.7633 5.30675 18.4182 4.71785 19.2342C4.12894 20.0503 3.75477 21.0014 3.62976 22L-0.000235595 51.6C-0.0951333 52.4059 -0.0177634 53.2228 0.226752 53.9966C0.471268 54.7704 0.877352 55.4834 1.41812 56.0885C1.95889 56.6935 2.62201 57.1768 3.36359 57.5064C4.10516 57.8359 4.90828 58.0042 5.71976 58H24.2798C25.7951 58 27.2485 57.3987 28.3209 56.3282C29.3933 55.2576 29.9971 53.8053 29.9998 52.29C29.9998 51.78 30.2098 53.66 26.3698 22ZM6.99976 11C6.99976 10.2044 7.31584 9.44129 7.87844 8.87868C8.44105 8.31607 9.20411 8 9.99976 8H19.9998C20.7954 8 21.5585 8.31607 22.1211 8.87868C22.6837 9.44129 22.9998 10.2044 22.9998 11V12.62C22.4553 13.3071 22.1095 14.1302 21.9998 15H7.99976C7.91556 14.1236 7.56679 13.2935 6.99976 12.62V11ZM24.2798 56H5.71976C4.73489 56 3.79021 55.6094 3.09286 54.914C2.39551 54.2185 2.00241 53.2749 1.99976 52.29C1.99976 51.94 1.77976 53.88 5.60976 22.29C5.70538 21.5419 6.01054 20.8361 6.49004 20.254C6.96954 19.6718 7.60384 19.2371 8.31976 19C9.12976 18.73 8.99976 18 8.99976 17.05H20.9998C20.9998 18.11 20.8898 18.73 21.6798 19C22.3985 19.2386 23.0347 19.6763 23.5144 20.2623C23.9942 20.8482 24.2977 21.5583 24.3898 22.31L27.9998 51.84C28.0639 52.3645 28.0152 52.8966 27.8571 53.4007C27.6989 53.9048 27.4349 54.3694 27.0827 54.7632C26.7305 55.1571 26.2983 55.4712 25.8149 55.6845C25.3315 55.8977 24.8081 56.0053 24.2798 56V56Z" fill="#FF0000"/>
<path d="M24.1498 36.88C24.1204 36.6361 24.0021 36.4116 23.8177 36.2493C23.6332 36.087 23.3955 35.9983 23.1498 36H6.84983C6.60415 35.9983 6.36641 36.087 6.18197 36.2493C5.99754 36.4116 5.8793 36.6361 5.84983 36.88L3.99983 52.17C3.98326 52.4053 4.01556 52.6415 4.09468 52.8637C4.17381 53.0859 4.29804 53.2893 4.45958 53.4612C4.62113 53.6331 4.81648 53.7697 5.03336 53.8624C5.25024 53.9551 5.48396 54.002 5.71983 54H24.2798C24.5114 53.9962 24.7398 53.9464 24.952 53.8535C25.1642 53.7607 25.3558 53.6267 25.5158 53.4593C25.6758 53.2918 25.8009 53.0943 25.884 52.8782C25.9671 52.662 26.0065 52.4315 25.9998 52.2C25.9998 52.1 26.1098 53.05 24.1498 36.88ZM5.99983 52L7.69983 38H22.2698L23.9998 52H5.99983Z" fill="#FF0000"/>
<path d="M10 11C10.2652 11 10.5196 10.8946 10.7071 10.7071C10.8946 10.5196 11 10.2652 11 10C11 9.73478 10.8946 9.48043 10.7071 9.29289C10.5196 9.10536 10.2652 9 10 9C9.73478 9 9.48043 9.10536 9.29289 9.29289C9.10536 9.48043 9 9.73478 9 10C9 10.2652 9.10536 10.5196 9.29289 10.7071C9.48043 10.8946 9.73478 11 10 11V11Z" fill="#FF0000"/>
<path d="M15 11C15.2652 11 15.5196 10.8946 15.7071 10.7071C15.8946 10.5196 16 10.2652 16 10C16 9.73478 15.8946 9.48043 15.7071 9.29289C15.5196 9.10536 15.2652 9 15 9C14.7348 9 14.4804 9.10536 14.2929 9.29289C14.1054 9.48043 14 9.73478 14 10C14 10.2652 14.1054 10.5196 14.2929 10.7071C14.4804 10.8946 14.7348 11 15 11V11Z" fill="#FF0000"/>
<path d="M20 11C20.2652 11 20.5196 10.8946 20.7071 10.7071C20.8946 10.5196 21 10.2652 21 10C21 9.73478 20.8946 9.48043 20.7071 9.29289C20.5196 9.10536 20.2652 9 20 9C19.7348 9 19.4804 9.10536 19.2929 9.29289C19.1054 9.48043 19 9.73478 19 10C19 10.2652 19.1054 10.5196 19.2929 10.7071C19.4804 10.8946 19.7348 11 20 11Z" fill="#FF0000"/>
</g>
<defs>
<clipPath id="clip0_510_12552">
<rect width="64" height="64" fill="white"/>
</clipPath>
</defs>
</svg>
