<svg width="64" height="64" viewBox="0 0 64 64" fill="none" xmlns="http://www.w3.org/2000/svg">
<g clip-path="url(#clip0_510_12564)">
<path d="M64.0002 29.1C63.9999 28.5888 63.8637 28.0869 63.6053 27.6458C63.347 27.2046 62.9759 26.8402 62.5302 26.59L34.3602 10.59C33.6373 10.1917 32.8255 9.98279 32.0002 9.98279C31.1749 9.98279 30.363 10.1917 29.6402 10.59L1.47015 26.59C1.02442 26.8402 0.653325 27.2046 0.394986 27.6458C0.136648 28.0869 0.000371644 28.5888 0.000152452 29.1C0.000152452 36.49 -0.219848 36.76 0.670152 37.87C0.416057 38.1481 0.226751 38.4791 0.115846 38.8392C0.00494031 39.1992 -0.0248084 39.5794 0.0287384 39.9523C0.0822852 40.3252 0.217797 40.6816 0.42553 40.9959C0.633264 41.3102 0.908057 41.5746 1.23015 41.77C0.853363 42.0313 0.544932 42.3794 0.330866 42.7849C0.116799 43.1904 0.00337371 43.6414 0.000152452 44.1V51C0.000152452 51.7956 0.316223 52.5587 0.878832 53.1213C1.44144 53.6839 2.2045 54 3.00015 54H61.0002C61.7958 54 62.5589 53.6839 63.1215 53.1213C63.6841 52.5587 64.0002 51.7956 64.0002 51V44.1C63.9986 43.6411 63.8859 43.1895 63.6717 42.7837C63.4575 42.3779 63.1481 42.0301 62.7702 41.77C63.0922 41.5746 63.367 41.3102 63.5748 40.9959C63.7825 40.6816 63.918 40.3252 63.9716 39.9523C64.0251 39.5794 63.9954 39.1992 63.8845 38.8392C63.7736 38.4791 63.5842 38.1481 63.3302 37.87C64.2202 36.76 64.0002 36.47 64.0002 29.1ZM61.4202 39C61.574 38.9894 61.7257 39.0403 61.842 39.1416C61.9583 39.2428 62.0295 39.3861 62.0402 39.54C62.0508 39.6938 61.9998 39.8455 61.8986 39.9618C61.7973 40.0781 61.654 40.1494 61.5002 40.16C59.2702 40.69 59.0902 42 56.7902 42C54.2002 42 53.9402 40 50.5902 40C47.2402 40 46.9902 42 44.3802 42C41.7702 42 41.5902 40 38.1902 40C34.7902 40 34.5802 42 31.9902 42C29.4002 42 29.1502 40 25.7902 40C22.4302 40 22.2002 42 19.5902 42C16.9802 42 16.7502 40 13.3902 40C10.0302 40 9.80015 42 7.19015 42C4.91015 42 4.70015 40.68 2.50015 40.16C2.34633 40.1494 2.20302 40.0781 2.10175 39.9618C2.00048 39.8455 1.94954 39.6938 1.96015 39.54C1.97076 39.3861 2.04204 39.2428 2.15831 39.1416C2.27459 39.0403 2.42633 38.9894 2.58015 39H61.4202ZM61.5502 43.33C61.725 43.4259 61.8626 43.5778 61.9408 43.7613C62.019 43.9448 62.0333 44.1492 61.9814 44.3418C61.9295 44.5344 61.8144 44.704 61.6546 44.8233C61.4948 44.9427 61.2995 45.0049 61.1002 45H59.0002C59.4014 44.4664 59.6998 43.8628 59.8802 43.22L60.6002 42.77L61.5502 43.33ZM2.45015 43.33C3.70015 42.62 3.21015 42.66 4.17015 43.22C4.3505 43.8628 4.64892 44.4664 5.05015 45H2.90015C2.70497 44.9966 2.51618 44.9298 2.36227 44.8097C2.20835 44.6896 2.09765 44.5228 2.04686 44.3343C1.99607 44.1458 2.00794 43.9459 2.08069 43.7647C2.15343 43.5836 2.28311 43.431 2.45015 43.33V43.33ZM6.79015 44C10.4602 44.2 10.7202 42 13.3902 42C15.6702 42 15.8702 43.3 18.0702 43.83C18.8447 44.5675 19.6593 45.2619 20.5102 45.91C15.6302 48.07 9.09015 46.8 6.79015 44ZM21.0902 43.85C23.3002 43.33 23.5202 42.02 25.7902 42.02C28.3802 42.02 28.6302 44.02 31.9902 44.02C35.3502 44.02 35.5902 42.11 37.9902 42.02C38.0233 43.3485 38.5552 44.6158 39.4802 45.57C27.8402 48.64 24.8502 46.91 21.0902 43.83V43.85ZM40.0902 42.44C41.1202 43 42.0002 44 44.3802 44C47.7602 44 47.9802 42 50.5902 42C53.2002 42 53.5202 44.19 57.2102 44C53.1502 49 40.7902 47.23 40.0002 42.42L40.0902 42.44ZM2.00015 31.86C2.81015 32.12 61.3202 32.02 61.7802 31.91C62.2402 31.8 62.0002 31.25 62.0002 36C62.0002 36.2652 61.8948 36.5195 61.7073 36.7071C61.5197 36.8946 61.2654 37 61.0002 37H3.00015C2.73494 37 2.48058 36.8946 2.29305 36.7071C2.10551 36.5195 2.00015 36.2652 2.00015 36V31.86ZM2.45015 28.33C33.0802 11 30.9402 12 32.0002 12C33.0602 12 30.8502 10.93 61.5502 28.33C61.725 28.4259 61.8626 28.5778 61.9408 28.7613C62.019 28.9448 62.0333 29.1492 61.9814 29.3418C61.9295 29.5344 61.8144 29.704 61.6546 29.8233C61.4948 29.9427 61.2995 30.0049 61.1002 30H2.90015C2.70497 29.9966 2.51618 29.9298 2.36227 29.8097C2.20835 29.6896 2.09765 29.5228 2.04686 29.3343C1.99607 29.1458 2.00794 28.9459 2.08069 28.7647C2.15343 28.5836 2.28311 28.431 2.45015 28.33V28.33ZM62.0002 51C62.0002 51.2652 61.8948 51.5195 61.7073 51.7071C61.5197 51.8946 61.2654 52 61.0002 52H3.00015C2.73494 52 2.48058 51.8946 2.29305 51.7071C2.10551 51.5195 2.00015 51.2652 2.00015 51V46.86C2.57015 47.04 2.83015 47 7.29015 47C9.59439 48.279 12.1798 48.9667 14.815 49.0016C17.4501 49.0365 20.0528 48.4175 22.3902 47.2C24.4053 48.5567 26.7915 49.2554 29.2202 49.2C33.3533 49.0243 37.4468 48.3185 41.4002 47.1C45.6002 49.62 52.4002 49.68 56.7102 47C61.6202 47 61.2902 47 61.7802 46.91C62.0902 46.84 62.0002 46.25 62.0002 51Z" fill="#FF0000"/>
</g>
<defs>
<clipPath id="clip0_510_12564">
<rect width="64" height="64" fill="white"/>
</clipPath>
</defs>
</svg>
