<svg width="64" height="64" viewBox="0 0 64 64" fill="none" xmlns="http://www.w3.org/2000/svg">
<path d="M39.79 18.28L39 17.88V14C39 13.7347 38.8946 13.4804 38.7071 13.2929C38.5196 13.1053 38.2652 13 38 13H35.85L34 1.83996C33.9617 1.60334 33.8396 1.38835 33.6561 1.23417C33.4725 1.07999 33.2397 0.996876 33 0.999961H31C30.7603 0.996876 30.5275 1.07999 30.3439 1.23417C30.1604 1.38835 30.0383 1.60334 30 1.83996L28.15 13H26C25.7348 13 25.4804 13.1053 25.2929 13.2929C25.1054 13.4804 25 13.7347 25 14V17.88L24.21 18.28C23.547 18.6117 22.9892 19.1213 22.5989 19.7517C22.2087 20.3821 22.0013 21.1085 22 21.85V60C22 60.7956 22.3161 61.5587 22.8787 62.1213C23.4413 62.6839 24.2044 63 25 63H39C39.7956 63 40.5587 62.6839 41.1213 62.1213C41.6839 61.5587 42 60.7956 42 60V21.85C41.9987 21.1085 41.7913 20.3821 41.4011 19.7517C41.0108 19.1213 40.453 18.6117 39.79 18.28ZM31.85 2.99996C32.29 2.99996 31.97 1.87996 33.85 13H30.18L31.85 2.99996ZM27 15H37V17H27V15ZM40 60C40 60.2652 39.8946 60.5195 39.7071 60.7071C39.5196 60.8946 39.2652 61 39 61H25C24.7348 61 24.4804 60.8946 24.2929 60.7071C24.1054 60.5195 24 60.2652 24 60V21.85C24 20.3 25.28 20 27.24 19H36.76C38.6 19.92 40 20.29 40 21.85V60Z" fill="#FF0000"/>
<path d="M61.79 18.28L61 17.88V14C61 13.7347 60.8946 13.4804 60.7071 13.2929C60.5196 13.1053 60.2652 13 60 13H57.85L56 1.83996C55.9617 1.60334 55.8396 1.38835 55.6561 1.23417C55.4725 1.07999 55.2397 0.996876 55 0.999961H53C52.7603 0.996876 52.5275 1.07999 52.3439 1.23417C52.1604 1.38835 52.0383 1.60334 52 1.83996L50.15 13H48C47.7348 13 47.4804 13.1053 47.2929 13.2929C47.1054 13.4804 47 13.7347 47 14V17.88L46.21 18.28C45.547 18.6117 44.9892 19.1213 44.5989 19.7517C44.2087 20.3821 44.0013 21.1085 44 21.85V60C44 60.7956 44.3161 61.5587 44.8787 62.1213C45.4413 62.6839 46.2044 63 47 63H61C61.7956 63 62.5587 62.6839 63.1213 62.1213C63.6839 61.5587 64 60.7956 64 60V21.85C63.9987 21.1085 63.7913 20.3821 63.4011 19.7517C63.0108 19.1213 62.453 18.6117 61.79 18.28ZM53.85 2.99996C54.29 2.99996 53.97 1.87996 55.85 13H52.18L53.85 2.99996ZM49 15H59V17H49V15ZM62 60C62 60.2652 61.8946 60.5195 61.7071 60.7071C61.5196 60.8946 61.2652 61 61 61H47C46.7348 61 46.4804 60.8946 46.2929 60.7071C46.1054 60.5195 46 60.2652 46 60V21.85C46 20.3 47.28 20 49.24 19H58.76C60.6 19.92 62 20.29 62 21.85V60Z" fill="#FF0000"/>
<path d="M17.79 18.28L17 17.88V14C17 13.7347 16.8946 13.4804 16.7071 13.2929C16.5196 13.1053 16.2652 13 16 13H13.85L12 1.83996C11.9617 1.60334 11.8396 1.38835 11.6561 1.23417C11.4725 1.07999 11.2397 0.996876 11 0.999961H9C8.76031 0.996876 8.52749 1.07999 8.34394 1.23417C8.16039 1.38835 8.03833 1.60334 8 1.83996L6.15 13H4C3.73478 13 3.48043 13.1053 3.29289 13.2929C3.10536 13.4804 3 13.7347 3 14V17.88L2.21 18.28C1.54696 18.6117 0.989182 19.1213 0.598933 19.7517C0.208684 20.3821 0.00132323 21.1085 0 21.85L0 60C0 60.7956 0.31607 61.5587 0.87868 62.1213C1.44129 62.6839 2.20435 63 3 63H17C17.7956 63 18.5587 62.6839 19.1213 62.1213C19.6839 61.5587 20 60.7956 20 60V21.85C19.9987 21.1085 19.7913 20.3821 19.4011 19.7517C19.0108 19.1213 18.453 18.6117 17.79 18.28ZM9.85 2.99996C10.29 2.99996 9.97 1.87996 11.85 13H8.18L9.85 2.99996ZM5 15H15V17H5V15ZM18 60C18 60.2652 17.8946 60.5195 17.7071 60.7071C17.5196 60.8946 17.2652 61 17 61H3C2.73478 61 2.48043 60.8946 2.29289 60.7071C2.10536 60.5195 2 60.2652 2 60V21.85C2 20.3 3.28 20 5.24 19H14.76C16.6 19.92 18 20.29 18 21.85V60Z" fill="#FF0000"/>
</svg>
