<svg width="64" height="64" viewBox="0 0 64 64" fill="none" xmlns="http://www.w3.org/2000/svg">
<g clip-path="url(#clip0_510_12572)">
<path d="M62.2199 19C62.0799 18.84 61.2699 18.14 59.3799 16.46C58.9981 16.1431 58.5452 15.9235 58.0599 15.82C58.2535 14.7198 58.1361 13.5874 57.7209 12.5503C57.3057 11.5132 56.6092 10.6127 55.7099 9.95C51.0221 6.5197 45.6722 4.10183 39.9999 2.85V1C39.9999 0.734784 39.8945 0.48043 39.707 0.292893C39.5195 0.105357 39.2651 0 38.9999 0C38.7347 0 38.4803 0.105357 38.2928 0.292893C38.1053 0.48043 37.9999 0.734784 37.9999 1V2.48C34.0255 1.83983 29.9743 1.83983 25.9999 2.48V1C25.9999 0.734784 25.8945 0.48043 25.707 0.292893C25.5195 0.105357 25.2651 0 24.9999 0C24.7347 0 24.4803 0.105357 24.2928 0.292893C24.1053 0.48043 23.9999 0.734784 23.9999 1V2.85C18.3313 4.10215 12.9827 6.51259 8.2899 9.93C7.39355 10.5775 6.69644 11.463 6.27757 12.4864C5.85869 13.5097 5.73479 14.6299 5.9199 15.72C5.43113 15.8163 4.97405 16.0328 4.5899 16.35C3.59041 17.1714 2.64511 18.0566 1.7599 19C1.59123 19.1979 1.50629 19.4538 1.52309 19.7132C1.53989 19.9727 1.65711 20.2155 1.8499 20.39L4.8499 23.09C5.0466 23.2527 5.29807 23.334 5.55278 23.3173C5.8075 23.3005 6.04617 23.187 6.2199 23C8.0799 21.07 8.5899 21.08 9.1399 20.09C10.1143 20.583 11.2048 20.8007 12.2939 20.7196C13.3829 20.6386 14.4292 20.2618 15.3199 19.63C17.9927 17.6964 20.9565 16.201 24.0999 15.2C24.3681 16.9139 25.1861 18.4942 26.4307 19.7027C27.6752 20.9111 29.2789 21.6823 30.9999 21.9V40.18C30.4163 40.3863 29.9109 40.7681 29.5528 41.2729C29.1948 41.7778 29.0016 42.3811 28.9999 43V61C28.9999 61.7956 29.316 62.5587 29.8786 63.1213C30.4412 63.6839 31.2042 64 31.9999 64C32.7955 64 33.5586 63.6839 34.1212 63.1213C34.6838 62.5587 34.9999 61.7956 34.9999 61V43C34.9982 42.3811 34.805 41.7778 34.447 41.2729C34.0889 40.7681 33.5834 40.3863 32.9999 40.18V21.93C34.7209 21.7123 36.3246 20.9411 37.5691 19.7327C38.8137 18.5242 39.6317 16.9439 39.8999 15.23C43.0424 16.2332 46.0058 17.7285 48.6799 19.66C49.564 20.3025 50.6096 20.6859 51.6995 20.7671C52.7894 20.8484 53.8803 20.6243 54.8499 20.12C55.4299 21.12 55.9499 21.12 57.8499 23.06C58.0354 23.2344 58.2803 23.3315 58.5349 23.3315C58.7895 23.3315 59.0344 23.2344 59.2199 23.06L62.2199 20.36C62.3914 20.1751 62.4867 19.9322 62.4867 19.68C62.4867 19.4278 62.3914 19.1849 62.2199 19V19ZM5.4499 21L3.9999 19.61C5.8799 17.77 6.1699 17.61 6.6199 17.66C7.6399 19.58 8.2899 18.28 5.4499 21ZM32.9999 61C32.9999 61.2652 32.8945 61.5196 32.707 61.7071C32.5195 61.8946 32.2651 62 31.9999 62C31.7347 62 31.4803 61.8946 31.2928 61.7071C31.1053 61.5196 30.9999 61.2652 30.9999 61V43C30.9999 42.7348 31.1053 42.4804 31.2928 42.2929C31.4803 42.1054 31.7347 42 31.9999 42C32.2651 42 32.5195 42.1054 32.707 42.2929C32.8945 42.4804 32.9999 42.7348 32.9999 43V61ZM31.9999 20C30.5314 19.9978 29.1146 19.4571 28.0181 18.4803C26.9215 17.5035 26.2212 16.1585 26.0499 14.7C29.9782 13.7637 34.0716 13.7637 37.9999 14.7C37.8276 16.1671 37.1202 17.519 36.0131 18.497C34.906 19.4749 33.477 20.0101 31.9999 20V20ZM49.8399 18C38.6499 10 25.3599 10 14.1599 18C13.2993 18.6219 12.2268 18.8765 11.1785 18.7077C10.1302 18.5389 9.19183 17.9606 8.5699 17.1C7.94796 16.2394 7.69339 15.1669 7.86217 14.1186C8.03095 13.0703 8.60927 12.1319 9.4699 11.51C12.3227 9.45398 15.4282 7.77352 18.7099 6.51L17.2199 8.38C17.1037 8.52709 17.0311 8.70388 17.0105 8.89022C16.99 9.07655 17.0222 9.26492 17.1035 9.43383C17.1848 9.60273 17.312 9.74538 17.4705 9.84549C17.629 9.9456 17.8124 9.99914 17.9999 10C18.6499 10 18.5099 10 22.1899 5.36C25.356 4.4649 28.6297 4.00732 31.9199 4L29.2199 7.38C29.1037 7.52709 29.0311 7.70388 29.0105 7.89022C28.99 8.07655 29.0222 8.26492 29.1035 8.43383C29.1848 8.60273 29.312 8.74538 29.4705 8.84549C29.629 8.9456 29.8124 8.99914 29.9999 9C30.6499 9 30.4599 9 34.4099 4.09C36.8654 4.25203 39.298 4.66416 41.6699 5.32L39.2199 8.38C39.1037 8.52709 39.0311 8.70388 39.0105 8.89022C38.99 9.07655 39.0222 9.26492 39.1035 9.43383C39.1848 9.60273 39.312 9.74538 39.4705 9.84549C39.629 9.9456 39.8124 9.99914 39.9999 10C40.6399 10 40.5299 9.94 43.7299 5.94C47.592 7.26251 51.2353 9.15328 54.5399 11.55C55.3152 12.2018 55.8143 13.1235 55.9366 14.1289C56.0588 15.1344 55.7951 16.1488 55.1986 16.9674C54.6021 17.786 53.7173 18.3478 52.7227 18.5395C51.7281 18.7311 50.6979 18.5383 49.8399 18V18ZM58.5499 21C55.7199 18.3 56.3099 19.66 57.3899 17.73C57.8899 17.73 57.9999 17.93 59.9899 19.68L58.5499 21Z" fill="#FF0000"/>
</g>
<defs>
<clipPath id="clip0_510_12572">
<rect width="64" height="64" fill="white"/>
</clipPath>
</defs>
</svg>
