<svg width="64" height="64" viewBox="0 0 64 64" fill="none" xmlns="http://www.w3.org/2000/svg">
<g clip-path="url(#clip0_510_12575)">
<path d="M43.0002 34C43.0002 19.54 44.0002 19.57 38.7602 13C35.9002 9.32 36.0002 8.91 36.0002 7C36.2654 7 36.5198 6.89464 36.7073 6.70711C36.8948 6.51957 37.0002 6.26522 37.0002 6V2.15C36.9976 1.5806 36.7702 1.03526 36.3676 0.632626C35.9649 0.229992 35.4196 0.00263009 34.8502 0L29.1502 0C28.5808 0.00263009 28.0355 0.229992 27.6328 0.632626C27.2302 1.03526 27.0028 1.5806 27.0002 2.15V6C27.0002 6.26522 27.1056 6.51957 27.2931 6.70711C27.4806 6.89464 27.735 7 28.0002 7V8C28.0002 11.39 21.0002 15.68 21.0002 22C21.0002 35.73 20.7402 34.6 21.7902 37.87C23.0302 41.75 23.6902 46.38 22.0202 50.12C21.2814 51.6371 20.9309 53.314 21.0002 55C21.0002 58.15 24.0802 64 27.0002 64C27.903 63.9784 28.7655 63.622 29.4202 63C30.1085 63.6767 31.035 64.0559 32.0002 64.0559C32.9654 64.0559 33.8919 63.6767 34.5802 63C35.2327 63.6253 36.0966 63.9822 37.0002 64C39.9202 64 43.0002 58.15 43.0002 55C43.0757 53.3157 42.7321 51.6389 42.0002 50.12C39.1702 43.84 43.0002 37.25 43.0002 34ZM23.0002 23H41.0002V33H23.0002V23ZM29.0002 2.15C29.0002 1.93 28.7402 2 34.8502 2C35.0702 2 35.0002 2 35.0002 5H29.0002V2.15ZM26.8102 14.15C29.3702 10.94 30.0002 9.93 30.0002 7H34.0002V8C34.0002 12.25 40.1702 15.91 40.9202 21H23.0802C23.4502 18.48 25.1602 16.3 26.8102 14.19V14.15ZM37.0002 62C36.501 61.928 36.0456 61.6754 35.7202 61.29C36.0302 60.63 36.1802 60.22 36.3402 59.94C36.5612 59.8598 36.7468 59.7043 36.8646 59.5008C36.9823 59.2974 37.0246 59.0589 36.984 58.8274C36.9434 58.5958 36.8226 58.386 36.6427 58.2347C36.4627 58.0834 36.2353 58.0003 36.0002 58C33.9402 58 34.3602 62 32.0002 62C29.6402 62 30.1002 58 28.0002 58C27.7651 58.0003 27.5377 58.0834 27.3577 58.2347C27.1778 58.386 27.057 58.5958 27.0164 58.8274C26.9758 59.0589 27.0181 59.2974 27.1358 59.5008C27.2536 59.7043 27.4392 59.8598 27.6602 59.94C27.8102 60.2 27.9802 60.66 28.2802 61.29C27.9548 61.6754 27.4994 61.928 27.0002 62C25.8402 62 23.0002 57.78 23.0002 55C22.9327 53.5974 23.2217 52.2006 23.8402 50.94C26.7402 44.45 23.4402 37.13 23.0902 35H40.9102C40.5202 37.37 39.0002 39.66 39.0002 45C39.0002 51.13 41.0002 50.41 41.0002 55C41.0002 57.78 38.1602 62 37.0002 62Z" fill="#FF0000"/>
</g>
<defs>
<clipPath id="clip0_510_12575">
<rect width="64" height="64" fill="white"/>
</clipPath>
</defs>
</svg>
