<svg width="64" height="64" viewBox="0 0 64 64" fill="none" xmlns="http://www.w3.org/2000/svg">
<g clip-path="url(#clip0_510_12578)">
<path d="M63 54H60C59.8594 52.2118 59.3503 50.472 58.5046 48.89C57.6589 47.3081 56.495 45.9184 55.0861 44.8082C53.6772 43.6979 52.0538 42.8913 50.318 42.439C48.5822 41.9867 46.7716 41.8985 45 42.18C44.7857 40.905 44.0858 39.7626 43.0473 38.9926C42.0087 38.2226 40.7123 37.8847 39.43 38.05C37.4574 36.3756 35.0281 35.3311 32.4559 35.0512C29.8837 34.7713 27.2866 35.269 25 36.48V11H30C30.5417 10.9995 31.0732 10.8524 31.538 10.5742C32.0028 10.296 32.3836 9.89717 32.64 9.42C32.7285 9.2848 32.8506 9.17497 32.9944 9.10132C33.1382 9.02768 33.2987 8.99276 33.46 9C63.18 9 61.92 9.34 63.11 8.13C63.5393 7.7051 63.8302 7.16054 63.9449 6.56757C64.0595 5.9746 63.9926 5.36082 63.7527 4.80654C63.5128 4.25226 63.1113 3.78328 62.6005 3.46095C62.0897 3.13863 61.4936 2.97797 60.89 3C31.07 3 33 3.18 32.64 2.58C32.3836 2.10283 32.0028 1.70398 31.538 1.4258C31.0732 1.14762 30.5417 1.00048 30 1H25C25 0.734784 24.8947 0.48043 24.7071 0.292893C24.5196 0.105357 24.2653 0 24 0C23.7348 0 23.4805 0.105357 23.2929 0.292893C23.1054 0.48043 23 0.734784 23 1H21C21 0.734784 20.8947 0.48043 20.7071 0.292893C20.5196 0.105357 20.2653 0 20 0C19.7348 0 19.4805 0.105357 19.2929 0.292893C19.1054 0.48043 19 0.734784 19 1H17C17 0.734784 16.8947 0.48043 16.7071 0.292893C16.5196 0.105357 16.2653 0 16 0C15.7348 0 15.4805 0.105357 15.2929 0.292893C15.1054 0.48043 15 0.734784 15 1C14.7348 1 14.4805 1.10536 14.2929 1.29289C14.1054 1.48043 14 1.73478 14 2C14 2.26522 14.1054 2.51957 14.2929 2.70711C14.4805 2.89464 14.7348 3 15 3V5C14.7348 5 14.4805 5.10536 14.2929 5.29289C14.1054 5.48043 14 5.73478 14 6C14 6.26522 14.1054 6.51957 14.2929 6.70711C14.4805 6.89464 14.7348 7 15 7V9C14.7348 9 14.4805 9.10536 14.2929 9.29289C14.1054 9.48043 14 9.73478 14 10C14 10.2652 14.1054 10.5196 14.2929 10.7071C14.4805 10.8946 14.7348 11 15 11C15 45.34 15 35.06 15 37C14.3247 37.4932 13.7864 38.1507 13.4364 38.9103C13.0864 39.6698 12.9362 40.5061 13 41.34C10.151 42.0157 7.61355 43.6334 5.79862 45.9311C3.98369 48.2288 2.99758 51.072 3.00004 54H1.00004C0.845842 53.9955 0.69269 54.0267 0.552562 54.0912C0.412434 54.1557 0.289128 54.2517 0.19229 54.3718C0.0954521 54.4919 0.0277075 54.6328 -0.00564468 54.7834C-0.0389969 54.934 -0.0370524 55.0903 3.67295e-05 55.24C0.622858 57.7493 2.07031 59.9768 4.11029 61.5653C6.15027 63.1538 8.66458 64.0112 11.25 64H52.75C55.3355 64.0112 57.8498 63.1538 59.8898 61.5653C61.9298 59.9768 63.3772 57.7493 64 55.24C64.0371 55.0903 64.0391 54.934 64.0057 54.7834C63.9724 54.6328 63.9046 54.4919 63.8078 54.3718C63.7109 54.2517 63.5876 54.1557 63.4475 54.0912C63.3074 54.0267 63.1542 53.9955 63 54V54ZM58 54H56C55.7456 51.8074 54.6943 49.7848 53.046 48.3167C51.3977 46.8487 49.2673 46.0375 47.06 46.0375C44.8527 46.0375 42.7224 46.8487 41.0741 48.3167C39.4258 49.7848 38.3745 51.8074 38.12 54H36.12C36.4036 51.2961 37.6785 48.793 39.6987 46.9736C41.7189 45.1542 44.3413 44.1473 47.06 44.1473C49.7788 44.1473 52.4012 45.1542 54.4214 46.9736C56.4416 48.793 57.7165 51.2961 58 54V54ZM51.9 54C51.6705 52.8697 51.0573 51.8535 50.1643 51.1236C49.2713 50.3937 48.1534 49.995 47 49.995C45.8467 49.995 44.7288 50.3937 43.8358 51.1236C42.9428 51.8535 42.3296 52.8697 42.1 54H40.1C40.3523 52.3455 41.1891 50.8361 42.4586 49.7455C43.7281 48.6549 45.3464 48.0553 47.02 48.0553C48.6937 48.0553 50.3119 48.6549 51.5815 49.7455C52.851 50.8361 53.6877 52.3455 53.94 54H51.9ZM49.82 54H44.18C44.3902 53.4208 44.7737 52.9205 45.2782 52.5668C45.7827 52.2132 46.3839 52.0235 47 52.0235C47.6162 52.0235 48.2173 52.2132 48.7219 52.5668C49.2264 52.9205 49.6098 53.4208 49.82 54V54ZM17.2 54C17.0252 53.5456 16.9637 53.0554 17.0206 52.5719C17.0776 52.0884 17.2514 51.626 17.5271 51.2246C17.8027 50.8233 18.1719 50.495 18.6027 50.2682C19.0336 50.0415 19.5132 49.923 20 49.923C20.4869 49.923 20.9665 50.0415 21.3973 50.2682C21.8282 50.495 22.1974 50.8233 22.473 51.2246C22.7486 51.626 22.9224 52.0884 22.9794 52.5719C23.0364 53.0554 22.9748 53.5456 22.8 54H17.2ZM9.00004 54C8.99524 52.7542 9.32302 51.5296 9.94955 50.4528C10.5761 49.3759 11.4786 48.4858 12.5641 47.8743C13.6495 47.2628 14.8785 46.952 16.1241 46.9741C17.3698 46.9962 18.587 47.3504 19.65 48C18.6546 48.0729 17.7038 48.4421 16.92 49.06C16.1959 48.9244 15.4508 48.9506 14.7379 49.1365C14.0251 49.3225 13.3621 49.6636 12.7965 50.1356C12.2309 50.6076 11.7765 51.1988 11.466 51.8668C11.1554 52.5349 10.9963 53.2633 11 54H9.00004ZM24.92 44.57C25.6007 43.3906 26.6107 42.4353 27.8261 41.8212C29.0415 41.2071 30.4097 40.9608 31.763 41.1126C33.1163 41.2644 34.3959 41.8076 35.4451 42.6757C36.4943 43.5438 37.2675 44.6991 37.67 46C37.0469 46.6481 36.4877 47.3547 36 48.11C36.0305 46.9485 35.6555 45.8126 34.9394 44.8975C34.2233 43.9825 33.2109 43.3454 32.0762 43.0957C30.9414 42.846 29.7551 42.9994 28.7211 43.5294C27.687 44.0594 26.8699 44.933 26.41 46C26.07 46 26.24 45.82 24.92 44.57ZM34 48.07C32.3959 47.0191 30.5792 46.3361 28.68 46.07C29.0773 45.5845 29.6169 45.2358 30.2227 45.0729C30.8285 44.91 31.4702 44.9411 32.0574 45.1618C32.6446 45.3826 33.1479 45.7819 33.4963 46.3036C33.8448 46.8252 34.021 47.443 34 48.07V48.07ZM34.61 51.07C34.3669 51.8487 34.1994 52.6491 34.11 53.46C32.9805 52.0038 31.4311 50.9296 29.6713 50.3823C27.9116 49.8351 26.0262 49.8412 24.27 50.4C23.8984 49.774 23.393 49.2379 22.79 48.83C24.7635 48.0083 26.9349 47.7844 29.0345 48.1862C31.1341 48.5879 33.0694 49.5977 34.6 51.09L34.61 51.07ZM13 54C12.9994 53.3098 13.2368 52.6405 13.6722 52.105C14.1075 51.5694 14.7143 51.2003 15.39 51.06C15.1321 51.6742 14.9995 52.3338 15 53C15 54.26 15.64 54 13 54ZM24.93 52.31C26.1405 51.9311 27.4311 51.8882 28.664 52.1858C29.8969 52.4835 31.0258 53.1106 31.93 54H24.93C25.0489 53.4429 25.0489 52.8671 24.93 52.31V52.31ZM42.93 42.65C41.6208 43.0825 40.3888 43.7204 39.28 44.54C38.8121 43.4475 38.1323 42.4584 37.28 41.63C37.5566 41.0248 38.0264 40.5288 38.6157 40.2199C39.205 39.911 39.8803 39.8067 40.5353 39.9235C41.1903 40.0403 41.7879 40.3715 42.2341 40.8651C42.6803 41.3587 42.9497 41.9866 43 42.65H42.93ZM37.12 38.89C36.5567 39.282 36.0802 39.7858 35.72 40.37C34.715 39.746 33.5968 39.3263 32.4295 39.1349C31.2621 38.9435 30.0684 38.984 28.9168 39.2543C27.7651 39.5246 26.678 40.0193 25.7176 40.71C24.7573 41.4008 23.9426 42.2741 23.32 43.28C22.7726 42.8984 22.1939 42.5639 21.59 42.28C22.3644 41.0082 23.3888 39.9069 24.6013 39.0427C25.8138 38.1785 27.1892 37.5695 28.644 37.2525C30.0988 36.9356 31.6029 36.9173 33.065 37.1987C34.5271 37.4802 35.9169 38.0556 37.15 38.89H37.12ZM23 37.76C21.67 38.76 22.84 38.41 21 37.02V11H23V37.76ZM26 3C26.2653 3 26.5196 3.10536 26.7071 3.29289C26.8947 3.48043 27 3.73478 27 4C27 4.26522 26.8947 4.51957 26.7071 4.70711C26.5196 4.89464 26.2653 5 26 5H25V3H26ZM26 7C26.2653 7 26.5196 7.10536 26.7071 7.29289C26.8947 7.48043 27 7.73478 27 8C27 8.26522 26.8947 8.51957 26.7071 8.70711C26.5196 8.89464 26.2653 9 26 9H25V7H26ZM23 9H21V7H23V9ZM30.88 3.53C31.1369 3.98552 31.5125 4.36282 31.9668 4.62169C32.4212 4.88057 32.9372 5.01132 33.46 5H60.89C61.0964 4.97906 61.3041 5.02277 61.4845 5.1251C61.6648 5.22742 61.8089 5.38329 61.8968 5.57113C61.9847 5.75897 62.012 5.96948 61.9749 6.17352C61.9379 6.37756 61.8383 6.56504 61.69 6.71C61.27 7.15 63.13 7 33.46 7C32.9372 6.98868 32.4212 7.11943 31.9668 7.37831C31.5125 7.63718 31.1369 8.01448 30.88 8.47C30.795 8.62968 30.6683 8.7633 30.5133 8.85664C30.3583 8.94997 30.1809 8.99952 30 9C28.24 9 29 9.25 29 8C28.9956 7.25995 28.7178 6.54764 28.22 6C28.7178 5.45236 28.9956 4.74005 29 4C29 2.74 28.25 3 30 3C30.1809 3.00048 30.3583 3.05003 30.5133 3.14336C30.6683 3.2367 30.795 3.37032 30.88 3.53V3.53ZM23 3V5H21V3H23ZM17 3H19V5H17V3ZM17 7H19V9H17V7ZM17 11H19V36.11C18.3407 35.9699 17.6593 35.9699 17 36.11V11ZM15 41C15.0116 40.3012 15.2668 39.6284 15.7215 39.0976C16.1762 38.5669 16.802 38.2116 17.4908 38.093C18.1795 37.9745 18.8881 38.1001 19.4941 38.4483C20.1001 38.7965 20.5655 39.3453 20.81 40C20.4092 40.5046 20.0481 41.0395 19.73 41.6C16.6 40.63 15 41.2 15 41ZM23.91 46.38C23.1797 46.5551 22.4668 46.7961 21.78 47.1C20.4672 46 18.8677 45.2975 17.1695 45.075C15.4713 44.8524 13.7448 45.1191 12.1929 45.8436C10.6409 46.5681 9.32791 47.7204 8.40808 49.1652C7.48826 50.61 6.99978 52.2873 7.00004 54H5.00004C5.00482 51.8104 5.66294 49.6721 6.89015 47.8588C8.11735 46.0455 9.8578 44.6396 11.8887 43.8213C13.9196 43.0029 16.1485 42.8092 18.2901 43.2651C20.4316 43.7209 22.3885 44.8055 23.91 46.38V46.38ZM52.75 62H11.25C9.33954 62.0029 7.47209 61.4326 5.88907 60.363C4.30604 59.2934 3.08022 57.7736 2.37004 56H61.63C60.9199 57.7736 59.694 59.2934 58.111 60.363C56.528 61.4326 54.6605 62.0029 52.75 62V62Z" fill="#FF0000"/>
</g>
<defs>
<clipPath id="clip0_510_12578">
<rect width="64" height="64" fill="white"/>
</clipPath>
</defs>
</svg>
