<svg width="64" height="64" viewBox="0 0 64 64" fill="none" xmlns="http://www.w3.org/2000/svg">
<g clip-path="url(#clip0_510_12581)">
<path d="M32 0C25.671 0 19.4841 1.87677 14.2218 5.39297C8.95939 8.90918 4.85787 13.9069 2.43587 19.7541C0.013865 25.6014 -0.619842 32.0355 0.614885 38.2429C1.84961 44.4503 4.89732 50.1521 9.3726 54.6274C13.8479 59.1027 19.5497 62.1504 25.7571 63.3851C31.9645 64.6199 38.3986 63.9861 44.2459 61.5641C50.0931 59.1421 55.0908 55.0406 58.607 49.7782C62.1232 44.5159 64 38.329 64 32C64 23.5131 60.6286 15.3737 54.6274 9.37258C48.6263 3.37142 40.4869 0 32 0V0ZM32 62C26.0666 62 20.2664 60.2405 15.3329 56.9441C10.3994 53.6476 6.55426 48.9623 4.28363 43.4805C2.013 37.9987 1.4189 31.9667 2.57646 26.1473C3.73401 20.3279 6.59124 14.9824 10.7868 10.7868C14.9824 6.59122 20.3279 3.734 26.1473 2.57644C31.9667 1.41888 37.9987 2.01299 43.4805 4.28361C48.9623 6.55424 53.6477 10.3994 56.9441 15.3329C60.2405 20.2664 62 26.0666 62 32C62 39.9565 58.8393 47.5871 53.2132 53.2132C47.5871 58.8393 39.9565 62 32 62Z" fill="#FF0000"/>
<path d="M53.0002 25.88C51.7102 15.62 45.9202 10.45 35.7002 12.36C32.2472 11.7005 28.6811 11.9675 25.3648 13.1338C22.0485 14.3002 19.1003 16.3242 16.8202 19H13.0002C12.735 19 12.4807 19.1053 12.2931 19.2929C12.1056 19.4804 12.0002 19.7348 12.0002 20C12.0002 24.36 11.9302 24.17 12.1902 24.55C9.08024 25.36 9.39024 24.77 10.7802 30.08C10.8129 30.2075 10.8703 30.3273 10.9494 30.4325C11.0284 30.5378 11.1274 30.6264 11.2408 30.6933C11.3541 30.7602 11.4795 30.804 11.6099 30.8223C11.7402 30.8406 11.8729 30.833 12.0002 30.8C12.1502 30.8 11.8402 31.37 12.1002 33.89C11.5244 34.7515 11.1631 35.7383 11.0467 36.768C10.9304 37.7977 11.0622 38.8402 11.4313 39.8085C11.8004 40.7768 12.396 41.6426 13.1683 42.3335C13.9406 43.0245 14.867 43.5205 15.8702 43.78C18.3789 47.2302 21.9303 49.7824 26.0002 51.06C26.0002 51.82 25.8302 52.82 26.8102 52.99C28.6253 53.2234 30.4675 52.8732 32.0702 51.99C37.0702 51.99 34.5902 50.45 37.4802 54.45C38.6402 56.06 42.2302 52.57 43.3902 48.45C45.7068 46.8457 47.6569 44.7684 49.1117 42.3551C50.5665 39.9419 51.4931 37.2476 51.8302 34.45C52.8206 31.7079 53.2193 28.7872 53.0002 25.88V25.88ZM51.0002 26.12C51.8302 32.82 47.3702 42.74 39.4202 42.74C33.9102 42.74 33.8002 40.56 34.6102 35.74C35.3502 31.36 35.3102 30.37 32.4802 26.56C30.7802 24.28 29.1802 22.12 30.3402 18.63C30.8102 17.23 31.8802 14 40.0002 14C47.8502 14 50.3202 20.59 51.0002 26.12V26.12ZM23.1902 27.88L30.0002 29.73L29.4802 31.66L19.2902 28.89L23.1902 27.88ZM26.8902 26.81C27.4502 26.35 27.2602 25.89 27.0202 25C28.0202 25 28.4702 25.1 28.8302 24.53C29.409 25.657 30.0956 26.7253 30.8802 27.72C31.0902 28 31.6902 28.11 26.8902 26.81ZM31.3202 14C30.4903 14.5833 29.7844 15.3257 29.2437 16.184C28.7029 17.0423 28.338 17.9995 28.1702 19C27.8802 18.95 29.1702 19 19.5702 19C22.7358 15.9406 26.9208 14.1598 31.3202 14V14ZM14.0002 21H27.0002V23H26.5002L26.2202 21.92C26.1876 21.7925 26.1301 21.6727 26.0511 21.5674C25.9721 21.4622 25.8731 21.3736 25.7597 21.3067C25.6464 21.2398 25.5209 21.196 25.3906 21.1776C25.2603 21.1593 25.1276 21.1669 25.0002 21.2C16.7402 23.36 19.1802 23 14.0002 23V21ZM12.0002 26.67L24.5802 23.39L25.0802 25.33L12.4602 28.61L12.0002 26.67ZM15.4602 29.91C15.7402 30 15.5202 29.91 30.0002 33.85C30.2555 33.9219 30.5289 33.8896 30.7602 33.76C31.2502 33.47 31.1702 33.36 32.2002 29.55C33.3802 31.49 33.2002 32.47 32.6902 35.37C31.9102 39.99 32.5802 39.37 32.0402 39.48C32.0367 38.3848 31.7566 37.3082 31.2257 36.3503C30.6949 35.3923 29.9306 34.584 29.0039 34.0004C28.0771 33.4168 27.0179 33.0769 25.9246 33.0121C24.8313 32.9473 23.7394 33.1599 22.7502 33.63C21.7788 32.2883 20.3292 31.371 18.7007 31.0676C17.0723 30.7643 15.3896 31.0981 14.0002 32C14 31.4052 14.0334 30.811 14.1002 30.22L15.4602 29.91ZM21.9802 42.24C22.8943 41.3882 23.5422 40.29 23.8456 39.078C24.1491 37.8659 24.0951 36.592 23.6902 35.41C24.4592 35.0626 25.3105 34.9389 26.1466 35.0532C26.9826 35.1674 27.7696 35.5149 28.4172 36.0559C29.0648 36.5968 29.5468 37.3093 29.8081 38.1117C30.0693 38.914 30.0992 39.7738 29.8943 40.5923C29.6893 41.4109 29.2579 42.1551 28.6494 42.7397C28.0409 43.3243 27.28 43.7256 26.4539 43.8976C25.6278 44.0696 24.7699 44.0053 23.9787 43.7121C23.1874 43.4189 22.4948 42.9087 21.9802 42.24ZM13.0002 37.5C13.0002 36.61 13.2642 35.7399 13.7586 34.9999C14.2531 34.2599 14.9559 33.6831 15.7782 33.3425C16.6004 33.0019 17.5052 32.9128 18.3781 33.0865C19.2511 33.2601 20.0529 33.6887 20.6822 34.318C21.3116 34.9473 21.7401 35.7492 21.9138 36.6221C22.0874 37.495 21.9983 38.3998 21.6577 39.2221C21.3171 40.0443 20.7403 40.7471 20.0003 41.2416C19.2603 41.7361 18.3903 42 17.5002 42C16.3076 41.9973 15.1645 41.5224 14.3212 40.679C13.4778 39.8357 13.0029 38.6926 13.0002 37.5V37.5ZM18.5302 43.91C19.1381 43.8165 19.7282 43.6311 20.2802 43.36C20.8818 44.1791 21.6679 44.8449 22.5749 45.3036C23.4818 45.7623 24.484 46.0008 25.5002 46C27.2302 46 26.5002 45 26.1402 49C23.2073 47.9876 20.5858 46.2342 18.5302 43.91ZM29.0002 45C30.2286 44.2153 31.1555 43.0382 31.6302 41.66C31.9479 41.5306 32.2873 41.4628 32.6302 41.46C32.9191 42.1965 33.3881 42.8489 33.9943 43.3573C34.6006 43.8657 35.3246 44.2138 36.1002 44.37C35.8802 47.17 31.7802 51.06 28.0002 51.11C28.0133 49.0337 28.3507 46.9721 29.0002 45V45ZM38.5902 52.56C37.7157 51.3042 36.9687 49.9642 36.3602 48.56C37.2751 47.4648 37.8734 46.1404 38.0902 44.73C39.3497 44.8582 40.6214 44.7907 41.8602 44.53C42.0902 47.24 40.8202 50.89 38.5902 52.53V52.56ZM43.8702 45.56C43.893 45.009 43.8695 44.4571 43.8002 43.91C45.0028 43.4003 46.1141 42.6977 47.0902 41.83C46.1907 43.1985 45.1072 44.4367 43.8702 45.51V45.56Z" fill="#FF0000"/>
<path d="M34.2101 25.21L34.7501 24.66L36.8401 26.75L35.7901 27.75C35.6968 27.8433 35.6229 27.954 35.5724 28.0758C35.522 28.1976 35.496 28.3282 35.496 28.46C35.496 28.5919 35.522 28.7225 35.5724 28.8443C35.6229 28.9661 35.6968 29.0768 35.7901 29.17C35.8833 29.2633 35.994 29.3372 36.1158 29.3877C36.2376 29.4381 36.3682 29.4641 36.5001 29.4641C36.6319 29.4641 36.7625 29.4381 36.8843 29.3877C37.0061 29.3372 37.1168 29.2633 37.2101 29.17L38.2101 28.12L40.3001 30.21L39.2501 31.21C39.0618 31.3983 38.956 31.6537 38.956 31.92C38.956 32.1863 39.0618 32.4417 39.2501 32.63C39.4384 32.8183 39.6938 32.9241 39.9601 32.9241C40.2264 32.9241 40.4818 32.8183 40.6701 32.63L41.6701 31.58L43.7601 33.67L41.6701 35.76L38.3801 32.46C38.1759 32.277 37.9073 32.1826 37.6335 32.1976C37.3597 32.2127 37.1031 32.3358 36.9201 32.54C36.7371 32.7442 36.6427 33.0128 36.6577 33.2866C36.6727 33.5604 36.7959 33.817 37.0001 34L40.3001 37.29L38.2501 39.29C38.1062 39.4322 38.0089 39.6147 37.9709 39.8134C37.933 40.012 37.9561 40.2176 38.0374 40.4028C38.1186 40.588 38.2541 40.7443 38.426 40.8509C38.5979 40.9575 38.798 41.0095 39.0001 41C39.5201 41 39.5201 40.9 41.7501 38.66C42.3701 39.29 42.5201 39.5 43.0001 39.5C43.1987 39.5012 43.3932 39.4432 43.5587 39.3334C43.7242 39.2236 43.8533 39.0669 43.9294 38.8835C44.0056 38.7001 44.0254 38.4981 43.9864 38.3033C43.9473 38.1086 43.8511 37.9299 43.7101 37.79L43.1601 37.25L45.2501 35.16C45.6001 35.51 45.7901 35.75 46.2501 35.75C46.4608 35.7698 46.6724 35.7222 46.8544 35.6141C47.0364 35.506 47.1794 35.3429 47.2628 35.1483C47.3462 34.9538 47.3657 34.7377 47.3185 34.5314C47.2712 34.325 47.1598 34.139 47.0001 34L46.7001 33.71L47.7501 32.71C47.9384 32.5217 48.0442 32.2663 48.0442 32C48.0442 31.7337 47.9384 31.4783 47.7501 31.29C47.5618 31.1017 47.3064 30.9959 47.0401 30.9959C46.7738 30.9959 46.5184 31.1017 46.3301 31.29L45.3301 32.34L43.2401 30.25L45.3301 28.16L46.3301 29.21C46.4233 29.3033 46.534 29.3772 46.6558 29.4277C46.7776 29.4781 46.9082 29.5041 47.0401 29.5041C47.1719 29.5041 47.3025 29.4781 47.4243 29.4277C47.5461 29.3772 47.6568 29.3033 47.7501 29.21C47.8433 29.1168 47.9173 29.0061 47.9677 28.8843C48.0182 28.7625 48.0442 28.6319 48.0442 28.5C48.0442 28.3682 48.0182 28.2376 47.9677 28.1158C47.9173 27.994 47.8433 27.8833 47.7501 27.79L46.7001 26.79L48.7501 24.79C48.9384 24.6017 49.0442 24.3463 49.0442 24.08C49.0442 23.8137 48.9384 23.5583 48.7501 23.37C48.5618 23.1817 48.3064 23.0759 48.0401 23.0759C47.7738 23.0759 47.5184 23.1817 47.3301 23.37L45.3301 25.42L43.2401 23.33L45.3301 21.24C46.5601 22.47 46.7701 22.83 47.3301 22.83C47.5545 22.858 47.7817 22.8092 47.9748 22.6914C48.1678 22.5736 48.3152 22.3939 48.393 22.1815C48.4707 21.9692 48.4742 21.7367 48.4029 21.5222C48.3315 21.3076 48.1895 21.1235 48.0001 21C46.6101 19.61 46.6501 19.77 46.7501 19.67C46.9384 19.4817 47.0442 19.2263 47.0442 18.96C47.0442 18.6937 46.9384 18.4383 46.7501 18.25C46.5618 18.0617 46.3064 17.9559 46.0401 17.9559C45.7738 17.9559 45.5184 18.0617 45.3301 18.25C45.2301 18.35 45.3901 18.4 44.0001 17C43.9068 16.9068 43.7961 16.8328 43.6743 16.7824C43.5525 16.7319 43.4219 16.7059 43.2901 16.7059C43.1582 16.7059 43.0276 16.7319 42.9058 16.7824C42.784 16.8328 42.6733 16.9068 42.5801 17C42.4868 17.0933 42.4129 17.204 42.3624 17.3258C42.312 17.4476 42.286 17.5782 42.286 17.71C42.286 17.8419 42.312 17.9725 42.3624 18.0943C42.4129 18.2161 42.4868 18.3268 42.5801 18.42L43.8801 19.71L41.7901 21.8L39.7001 19.71L41.2501 18.17C41.4384 17.9817 41.5442 17.7263 41.5442 17.46C41.5442 17.1937 41.4384 16.9383 41.2501 16.75C41.0618 16.5617 40.8064 16.4559 40.5401 16.4559C40.2738 16.4559 40.0184 16.5617 39.8301 16.75L38.2901 18.3L36.0001 16C35.8118 15.8117 35.5564 15.7059 35.2901 15.7059C35.0238 15.7059 34.7684 15.8117 34.5801 16C34.3918 16.1883 34.286 16.4437 34.286 16.71C34.286 16.9763 34.3918 17.2317 34.5801 17.42L36.8801 19.71L34.7901 21.8L34.5001 21.5C34.4016 21.4015 34.2847 21.3234 34.156 21.2701C34.0273 21.2168 33.8894 21.1894 33.7501 21.1894C33.4688 21.1894 33.199 21.3011 33.0001 21.5C32.8012 21.6989 32.6894 21.9687 32.6894 22.25C32.6894 22.5313 32.8012 22.8011 33.0001 23L33.3001 23.29L32.7501 23.83C32.6595 23.9259 32.5886 24.0387 32.5416 24.1619C32.4946 24.2851 32.4723 24.4164 32.476 24.5483C32.4797 24.6802 32.5093 24.81 32.5632 24.9304C32.6171 25.0508 32.6942 25.1594 32.7901 25.25C32.9837 25.433 33.2421 25.5316 33.5084 25.5241C33.6402 25.5204 33.7701 25.4908 33.8905 25.4369C34.0109 25.383 34.1195 25.3059 34.2101 25.21V25.21ZM43.8401 26.75L41.7501 28.84L39.6601 26.75L41.7501 24.66L43.8401 26.75ZM38.2501 21.16L40.3401 23.25L38.2501 25.34L36.1601 23.25L38.2501 21.16Z" fill="#FF0000"/>
</g>
<defs>
<clipPath id="clip0_510_12581">
<rect width="64" height="64" fill="white"/>
</clipPath>
</defs>
</svg>
