<svg width="64" height="64" viewBox="0 0 64 64" fill="none" xmlns="http://www.w3.org/2000/svg">
<g clip-path="url(#clip0_510_12586)">
<path d="M19 31C18.7348 31 18.4804 31.1054 18.2929 31.2929C18.1054 31.4804 18 31.7348 18 32C18 32.2652 18.1054 32.5196 18.2929 32.7071C18.4804 32.8946 18.7348 33 19 33C19.2652 33 19.5196 32.8946 19.7071 32.7071C19.8946 32.5196 20 32.2652 20 32C20 31.7348 19.8946 31.4804 19.7071 31.2929C19.5196 31.1054 19.2652 31 19 31Z" fill="#FF0000"/>
<path d="M23 29C22.7348 29 22.4804 29.1054 22.2929 29.2929C22.1054 29.4804 22 29.7348 22 30C22 30.2652 22.1054 30.5196 22.2929 30.7071C22.4804 30.8946 22.7348 31 23 31C23.2652 31 23.5196 30.8946 23.7071 30.7071C23.8946 30.5196 24 30.2652 24 30C24 29.7348 23.8946 29.4804 23.7071 29.2929C23.5196 29.1054 23.2652 29 23 29Z" fill="#FF0000"/>
<path d="M23 33C22.7348 33 22.4804 33.1054 22.2929 33.2929C22.1054 33.4804 22 33.7348 22 34C22 34.2652 22.1054 34.5196 22.2929 34.7071C22.4804 34.8946 22.7348 35 23 35C23.2652 35 23.5196 34.8946 23.7071 34.7071C23.8946 34.5196 24 34.2652 24 34C24 33.7348 23.8946 33.4804 23.7071 33.2929C23.5196 33.1054 23.2652 33 23 33Z" fill="#FF0000"/>
<path d="M63 36H49.64C52.46 34.71 53.18 32.92 52.81 30.52C54.26 29.72 54.46 28.12 54.17 26.52C51.17 9.83001 12.68 10.03 9.68 26.52C9.38 28.19 9.61 29.8 11.13 30.52C10.79 32.88 11.5 34.67 14.31 35.96H1C0.734784 35.96 0.48043 36.0654 0.292893 36.2529C0.105357 36.4404 0 36.6948 0 36.96L0 42.96C0 43.2252 0.105357 43.4796 0.292893 43.6671C0.48043 43.8546 0.734784 43.96 1 43.96H4V48.96C4 49.2252 4.10536 49.4796 4.29289 49.6671C4.48043 49.8546 4.73478 49.96 5 49.96H13C13.2652 49.96 13.5196 49.8546 13.7071 49.6671C13.8946 49.4796 14 49.2252 14 48.96V44H50V49C50 49.2652 50.1054 49.5196 50.2929 49.7071C50.4804 49.8946 50.7348 50 51 50H59C59.2652 50 59.5196 49.8946 59.7071 49.7071C59.8946 49.5196 60 49.2652 60 49V44H63C63.2652 44 63.5196 43.8946 63.7071 43.7071C63.8946 43.5196 64 43.2652 64 43V37C64 36.7348 63.8946 36.4804 63.7071 36.2929C63.5196 36.1054 63.2652 36 63 36ZM52.2 26.87C52.52 28.65 52.05 29.25 49.91 28.82C50.2185 26.7265 50.2488 24.6014 50 22.5C51.1228 23.7256 51.8843 25.2381 52.2 26.87V26.87ZM21.61 26.4C20.3721 24.0098 18.7391 21.846 16.78 20C17.9027 19.2762 19.0913 18.6601 20.33 18.16C22.0572 20.4101 23.3061 22.9896 24 25.74C23.15 26 22.37 26.18 21.61 26.4ZM25.89 25.24C25.1857 22.4502 23.9757 19.8132 22.32 17.46C23.3377 17.1359 24.3726 16.8688 25.42 16.66C27.014 19.0781 28.0837 21.8033 28.56 24.66C27.7 24.83 26.8 25 25.89 25.24ZM30.54 24.4C30.0554 21.5361 29.0378 18.7886 27.54 16.3C28.7236 16.1348 29.9154 16.0346 31.11 16C32.5601 18.5874 33.4238 21.4619 33.64 24.42C32.6122 24.2743 31.5696 24.2676 30.54 24.4V24.4ZM35.66 24.75C35.4959 21.7121 34.7276 18.7374 33.4 16C34.49 16.05 35.59 16.15 36.68 16.31C37.7782 19.1551 38.2291 22.209 38 25.25C37.21 25.06 36.42 24.89 35.66 24.75ZM38.97 16.75C40.2106 17.0277 41.433 17.3817 42.63 17.81C43.4135 20.6867 43.567 23.6986 43.08 26.64C42.08 26.33 41.02 26.02 39.95 25.73C40.2407 22.7098 39.9176 19.6621 39 16.77L38.97 16.75ZM44.97 18.75C45.8903 19.191 46.7732 19.706 47.61 20.29C48.2435 22.8946 48.3758 25.5959 48 28.25C47.26 27.99 46.22 27.64 45 27.25C45.4961 24.4459 45.469 21.5742 44.92 18.78L44.97 18.75ZM15.17 21.19C16.9905 22.8532 18.5096 24.8189 19.66 27L17.38 27.74C16.3045 25.9695 14.9999 24.3489 13.5 22.92C13.9873 22.3054 14.5296 21.7364 15.12 21.22L15.17 21.19ZM11.92 28.65C11.15 27.98 11.97 25.58 12.46 24.6C13.5882 25.7491 14.5937 27.0125 15.46 28.37C15.23 28.47 12.68 29.38 11.87 28.68L11.92 28.65ZM13.09 31.65C13.09 30.39 12.94 31.33 15.84 30.37C19.84 29.03 27.74 26.37 31.92 26.29C37.56 26.29 47.5 30.37 48.11 30.37C51.11 31.37 50.96 30.37 50.96 31.65C50.91 35.49 41.34 36 32 36C22.66 36 13 35.49 13 31.67L13.09 31.65ZM12 48H6V44H12V48ZM58 48H52V44H58V48ZM62 42H2V38H62V42Z" fill="#FF0000"/>
</g>
<defs>
<clipPath id="clip0_510_12586">
<rect width="64" height="64" fill="white"/>
</clipPath>
</defs>
</svg>
