<svg width="64" height="64" viewBox="0 0 64 64" fill="none" xmlns="http://www.w3.org/2000/svg">
<g clip-path="url(#clip0_510_12592)">
<path d="M62.9999 57H59.9999V44.41C62.3999 43.56 61.9999 41.31 61.9999 39C61.9999 38.2043 61.6838 37.4412 61.1212 36.8786C60.5586 36.316 59.7955 36 58.9999 36H49.9999V26.2C52.3599 25.01 51.9999 23.63 51.9999 21C51.9999 20.2043 51.6838 19.4412 51.1212 18.8786C50.5586 18.316 49.7955 18 48.9999 18H34.9999V8.99996C34.9999 8.73474 34.8945 8.48039 34.707 8.29285C34.5194 8.10531 34.2651 7.99996 33.9999 7.99996C32.7999 7.99996 32.9999 8.05996 32.9999 7.81996C33.5834 7.61364 34.0889 7.23189 34.4469 6.72702C34.805 6.22216 34.9981 5.6189 34.9999 4.99996C34.9999 3.71996 33.4799 1.37996 32.8199 0.429956C32.7277 0.297927 32.605 0.190103 32.4623 0.11565C32.3195 0.0411981 32.1609 0.00231934 31.9999 0.00231934C31.8388 0.00231934 31.6802 0.0411981 31.5375 0.11565C31.3947 0.190103 31.272 0.297927 31.1799 0.429956C30.5199 1.37996 28.9999 3.71996 28.9999 4.99996C29.0016 5.6189 29.1947 6.22216 29.5528 6.72702C29.9109 7.23189 30.4163 7.61364 30.9999 7.81996C30.9999 8.05996 31.1999 7.99996 29.9999 7.99996C29.7346 7.99996 29.4803 8.10531 29.2928 8.29285C29.1052 8.48039 28.9999 8.73474 28.9999 8.99996V18H14.9999C14.2042 18 13.4411 18.316 12.8785 18.8786C12.3159 19.4412 11.9999 20.2043 11.9999 21C11.9999 23.15 11.6799 24.94 13.5699 26C14.1799 26.33 13.9999 25.1 13.9999 36H4.99986C4.20421 36 3.44115 36.316 2.87854 36.8786C2.31593 37.4412 1.99986 38.2043 1.99986 39C1.99986 41.29 1.56986 43.54 3.99986 44.41V57H0.999858C-1.42014 57 0.499858 64 5.99986 64H57.9999C63.5199 64 65.4099 57 62.9999 57ZM31.9999 2.84996C32.4472 3.50786 32.7849 4.23395 32.9999 4.99996C32.9999 5.26517 32.8945 5.51953 32.707 5.70706C32.5194 5.8946 32.2651 5.99996 31.9999 5.99996C31.7346 5.99996 31.4803 5.8946 31.2928 5.70706C31.1052 5.51953 30.9999 5.26517 30.9999 4.99996C31.2168 4.23468 31.5543 3.50889 31.9999 2.84996V2.84996ZM30.9999 9.99996H32.9999V18H30.9999V9.99996ZM13.9999 21C13.9999 20.7347 14.1052 20.4804 14.2928 20.2928C14.4803 20.1053 14.7346 20 14.9999 20H48.9999C49.2651 20 49.5194 20.1053 49.707 20.2928C49.8945 20.4804 49.9999 20.7347 49.9999 21V23.33C49.9999 24.52 47.6999 25 46.4899 25C43.3099 25 43.0999 23 39.2399 23C35.3799 23 35.1899 25 31.9999 25C28.8099 25 28.6099 23 24.7499 23C20.8899 23 20.7499 25 17.4999 25C16.2799 25 13.9999 24.52 13.9999 23.34V21ZM15.9999 26.87C20.6099 27.68 21.4099 25 24.7399 25C25.8543 24.9715 26.9516 25.278 27.8899 25.88C29.1306 26.6217 30.5492 27.0134 31.9949 27.0134C33.4405 27.0134 34.8591 26.6217 36.0999 25.88C37.0373 25.2844 38.1295 24.9783 39.2399 25C42.7599 25 43.2399 27.71 47.9999 26.87V36H15.9999V26.87ZM3.99986 39C3.99986 38.7347 4.10522 38.4804 4.29275 38.2928C4.48029 38.1053 4.73464 38 4.99986 38H58.9999C59.2651 38 59.5194 38.1053 59.707 38.2928C59.8945 38.4804 59.9999 38.7347 59.9999 39V41.6C59.9994 41.7685 59.9563 41.9343 59.8746 42.0818C59.7929 42.2292 59.6752 42.3537 59.5325 42.4435C59.3898 42.5333 59.2268 42.5855 59.0584 42.5954C58.8901 42.6053 58.7221 42.5725 58.5699 42.5C57.3799 41.94 56.3499 41 53.7499 41C49.8899 41 49.6899 43 46.4899 43C43.2899 43 43.0999 41 39.2399 41C35.3799 41 35.1899 43 31.9999 43C28.8099 43 28.6099 41 24.7499 41C20.8899 41 20.7499 43 17.4999 43C14.2499 43 14.0999 41 10.2599 41C7.67986 41 6.65986 41.92 5.43986 42.5C5.28649 42.5751 5.11642 42.6097 4.94586 42.6005C4.77531 42.5913 4.60996 42.5386 4.46557 42.4473C4.32119 42.3561 4.20258 42.2294 4.12105 42.0793C4.03953 41.9292 3.9978 41.7607 3.99986 41.59V39ZM5.99986 44.4C7.29986 43.93 9.60986 41.79 13.3899 43.88C14.6284 44.628 16.0479 45.0234 17.4949 45.0234C18.9418 45.0234 20.3613 44.628 21.5999 43.88C22.5373 43.2844 23.6295 42.9783 24.7399 43C25.8543 42.9715 26.9516 43.278 27.8899 43.88C29.1306 44.6217 30.5492 45.0134 31.9949 45.0134C33.4405 45.0134 34.8591 44.6217 36.0999 43.88C37.0373 43.2844 38.1295 42.9783 39.2399 43C40.3543 42.9715 41.4516 43.278 42.3899 43.88C43.6306 44.6217 45.0492 45.0134 46.4949 45.0134C47.9405 45.0134 49.3591 44.6217 50.5999 43.88C54.3599 41.81 56.7099 43.94 57.9999 44.4V57H5.99986V44.4ZM57.9999 62H5.99986C5.11359 61.9993 4.25263 61.7043 3.55217 61.1613C2.85172 60.6183 2.35143 59.8581 2.12986 59H61.8699C61.6483 59.8581 61.148 60.6183 60.4475 61.1613C59.7471 61.7043 58.8861 61.9993 57.9999 62Z" fill="#FF0000"/>
<path d="M32 48C31.4067 48 30.8266 48.1759 30.3333 48.5056C29.8399 48.8352 29.4554 49.3038 29.2284 49.852C29.0013 50.4001 28.9419 51.0033 29.0576 51.5853C29.1734 52.1672 29.4591 52.7018 29.8787 53.1213C30.2982 53.5409 30.8328 53.8266 31.4147 53.9424C31.9967 54.0581 32.5999 53.9987 33.148 53.7716C33.6962 53.5446 34.1648 53.1601 34.4944 52.6667C34.8241 52.1734 35 51.5933 35 51C35 50.2044 34.6839 49.4413 34.1213 48.8787C33.5587 48.3161 32.7957 48 32 48ZM32 52C31.7348 52 31.4804 51.8946 31.2929 51.7071C31.1054 51.5196 31 51.2652 31 51C31 50.7348 31.1054 50.4804 31.2929 50.2929C31.4804 50.1054 31.7348 50 32 50C32.2652 50 32.5196 50.1054 32.7071 50.2929C32.8946 50.4804 33 50.7348 33 51C33 51.2652 32.8946 51.5196 32.7071 51.7071C32.5196 51.8946 32.2652 52 32 52Z" fill="#FF0000"/>
<path d="M22 48C21.4067 48 20.8266 48.1759 20.3333 48.5056C19.8399 48.8352 19.4554 49.3038 19.2284 49.852C19.0013 50.4001 18.9419 51.0033 19.0576 51.5853C19.1734 52.1672 19.4591 52.7018 19.8787 53.1213C20.2982 53.5409 20.8328 53.8266 21.4147 53.9424C21.9967 54.0581 22.5999 53.9987 23.1481 53.7716C23.6962 53.5446 24.1648 53.1601 24.4944 52.6667C24.8241 52.1734 25 51.5933 25 51C25 50.2044 24.6839 49.4413 24.1213 48.8787C23.5587 48.3161 22.7957 48 22 48ZM22 52C21.7348 52 21.4804 51.8946 21.2929 51.7071C21.1054 51.5196 21 51.2652 21 51C21 50.7348 21.1054 50.4804 21.2929 50.2929C21.4804 50.1054 21.7348 50 22 50C22.2652 50 22.5196 50.1054 22.7071 50.2929C22.8946 50.4804 23 50.7348 23 51C23 51.2652 22.8946 51.5196 22.7071 51.7071C22.5196 51.8946 22.2652 52 22 52Z" fill="#FF0000"/>
<path d="M12 48C11.4067 48 10.8266 48.1759 10.3333 48.5056C9.83994 48.8352 9.45543 49.3038 9.22836 49.852C9.0013 50.4001 8.94189 51.0033 9.05765 51.5853C9.1734 52.1672 9.45912 52.7018 9.87868 53.1213C10.2982 53.5409 10.8328 53.8266 11.4147 53.9424C11.9967 54.0581 12.5999 53.9987 13.1481 53.7716C13.6962 53.5446 14.1648 53.1601 14.4944 52.6667C14.8241 52.1734 15 51.5933 15 51C15 50.2044 14.6839 49.4413 14.1213 48.8787C13.5587 48.3161 12.7957 48 12 48ZM12 52C11.7348 52 11.4804 51.8946 11.2929 51.7071C11.1054 51.5196 11 51.2652 11 51C11 50.7348 11.1054 50.4804 11.2929 50.2929C11.4804 50.1054 11.7348 50 12 50C12.2652 50 12.5196 50.1054 12.7071 50.2929C12.8946 50.4804 13 50.7348 13 51C13 51.2652 12.8946 51.5196 12.7071 51.7071C12.5196 51.8946 12.2652 52 12 52Z" fill="#FF0000"/>
<path d="M42 48C41.4067 48 40.8266 48.1759 40.3333 48.5056C39.8399 48.8352 39.4554 49.3038 39.2284 49.852C39.0013 50.4001 38.9419 51.0033 39.0576 51.5853C39.1734 52.1672 39.4591 52.7018 39.8787 53.1213C40.2982 53.5409 40.8328 53.8266 41.4147 53.9424C41.9967 54.0581 42.5999 53.9987 43.148 53.7716C43.6962 53.5446 44.1648 53.1601 44.4944 52.6667C44.8241 52.1734 45 51.5933 45 51C45 50.2044 44.6839 49.4413 44.1213 48.8787C43.5587 48.3161 42.7957 48 42 48ZM42 52C41.7348 52 41.4804 51.8946 41.2929 51.7071C41.1054 51.5196 41 51.2652 41 51C41 50.7348 41.1054 50.4804 41.2929 50.2929C41.4804 50.1054 41.7348 50 42 50C42.2652 50 42.5196 50.1054 42.7071 50.2929C42.8946 50.4804 43 50.7348 43 51C43 51.2652 42.8946 51.5196 42.7071 51.7071C42.5196 51.8946 42.2652 52 42 52Z" fill="#FF0000"/>
<path d="M32 28C31.4067 28 30.8266 28.1759 30.3333 28.5056C29.8399 28.8352 29.4554 29.3038 29.2284 29.8519C29.0013 30.4001 28.9419 31.0033 29.0576 31.5853C29.1734 32.1672 29.4591 32.7018 29.8787 33.1213C30.2982 33.5409 30.8328 33.8266 31.4147 33.9424C31.9967 34.0581 32.5999 33.9987 33.148 33.7716C33.6962 33.5446 34.1648 33.1601 34.4944 32.6667C34.8241 32.1734 35 31.5933 35 31C35 30.2044 34.6839 29.4413 34.1213 28.8787C33.5587 28.3161 32.7957 28 32 28ZM32 32C31.7348 32 31.4804 31.8946 31.2929 31.7071C31.1054 31.5196 31 31.2652 31 31C31 30.7348 31.1054 30.4804 31.2929 30.2929C31.4804 30.1054 31.7348 30 32 30C32.2652 30 32.5196 30.1054 32.7071 30.2929C32.8946 30.4804 33 30.7348 33 31C33 31.2652 32.8946 31.5196 32.7071 31.7071C32.5196 31.8946 32.2652 32 32 32Z" fill="#FF0000"/>
<path d="M22 28C21.4067 28 20.8266 28.1759 20.3333 28.5056C19.8399 28.8352 19.4554 29.3038 19.2284 29.8519C19.0013 30.4001 18.9419 31.0033 19.0576 31.5853C19.1734 32.1672 19.4591 32.7018 19.8787 33.1213C20.2982 33.5409 20.8328 33.8266 21.4147 33.9424C21.9967 34.0581 22.5999 33.9987 23.1481 33.7716C23.6962 33.5446 24.1648 33.1601 24.4944 32.6667C24.8241 32.1734 25 31.5933 25 31C25 30.2044 24.6839 29.4413 24.1213 28.8787C23.5587 28.3161 22.7957 28 22 28ZM22 32C21.7348 32 21.4804 31.8946 21.2929 31.7071C21.1054 31.5196 21 31.2652 21 31C21 30.7348 21.1054 30.4804 21.2929 30.2929C21.4804 30.1054 21.7348 30 22 30C22.2652 30 22.5196 30.1054 22.7071 30.2929C22.8946 30.4804 23 30.7348 23 31C23 31.2652 22.8946 31.5196 22.7071 31.7071C22.5196 31.8946 22.2652 32 22 32Z" fill="#FF0000"/>
<path d="M42 28C41.4067 28 40.8266 28.1759 40.3333 28.5056C39.8399 28.8352 39.4554 29.3038 39.2284 29.8519C39.0013 30.4001 38.9419 31.0033 39.0576 31.5853C39.1734 32.1672 39.4591 32.7018 39.8787 33.1213C40.2982 33.5409 40.8328 33.8266 41.4147 33.9424C41.9967 34.0581 42.5999 33.9987 43.148 33.7716C43.6962 33.5446 44.1648 33.1601 44.4944 32.6667C44.8241 32.1734 45 31.5933 45 31C45 30.2044 44.6839 29.4413 44.1213 28.8787C43.5587 28.3161 42.7957 28 42 28ZM42 32C41.7348 32 41.4804 31.8946 41.2929 31.7071C41.1054 31.5196 41 31.2652 41 31C41 30.7348 41.1054 30.4804 41.2929 30.2929C41.4804 30.1054 41.7348 30 42 30C42.2652 30 42.5196 30.1054 42.7071 30.2929C42.8946 30.4804 43 30.7348 43 31C43 31.2652 42.8946 31.5196 42.7071 31.7071C42.5196 31.8946 42.2652 32 42 32Z" fill="#FF0000"/>
<path d="M52 48C51.4067 48 50.8266 48.1759 50.3333 48.5056C49.8399 48.8352 49.4554 49.3038 49.2284 49.852C49.0013 50.4001 48.9419 51.0033 49.0576 51.5853C49.1734 52.1672 49.4591 52.7018 49.8787 53.1213C50.2982 53.5409 50.8328 53.8266 51.4147 53.9424C51.9967 54.0581 52.5999 53.9987 53.148 53.7716C53.6962 53.5446 54.1648 53.1601 54.4944 52.6667C54.8241 52.1734 55 51.5933 55 51C55 50.2044 54.6839 49.4413 54.1213 48.8787C53.5587 48.3161 52.7957 48 52 48ZM52 52C51.7348 52 51.4804 51.8946 51.2929 51.7071C51.1054 51.5196 51 51.2652 51 51C51 50.7348 51.1054 50.4804 51.2929 50.2929C51.4804 50.1054 51.7348 50 52 50C52.2652 50 52.5196 50.1054 52.7071 50.2929C52.8946 50.4804 53 50.7348 53 51C53 51.2652 52.8946 51.5196 52.7071 51.7071C52.5196 51.8946 52.2652 52 52 52Z" fill="#FF0000"/>
</g>
<defs>
<clipPath id="clip0_510_12592">
<rect width="64" height="64" fill="white"/>
</clipPath>
</defs>
</svg>
