<svg width="64" height="64" viewBox="0 0 64 64" fill="none" xmlns="http://www.w3.org/2000/svg">
<g clip-path="url(#clip0_510_12603)">
<path d="M61 57H44.81C45.6906 56.1902 46.522 55.3287 47.3 54.42C53.3 51.59 64 46.42 64 36C64 31.62 62.13 29 59 29C57.5606 28.9956 56.158 29.455 55 30.31V26C55 25.7348 54.8947 25.4804 54.7071 25.2929C54.5196 25.1054 54.2653 25 54 25H6.00004C5.73482 25 5.48047 25.1054 5.29293 25.2929C5.10539 25.4804 5.00004 25.7348 5.00004 26C5.00004 33.6 3.75004 46.5 15.19 57H1.00004C0.73482 57 0.480466 57.1054 0.292929 57.2929C0.105393 57.4804 3.60022e-05 57.7348 3.60022e-05 58V59C-0.00203485 59.2442 0.0852945 59.4806 0.245557 59.6648C0.405819 59.8491 0.62794 59.9683 0.870036 60L15.34 61.93C16.14 63.52 16.24 64.01 17 64.01C47.44 64.01 45.5 64.25 45.89 63.46L46.66 61.93L61.13 60C62.13 59.87 62 58.91 62 58C62 57.7348 61.8947 57.4804 61.7071 57.2929C61.5196 57.1054 61.2653 57 61 57ZM59 31C61.71 31 62 34.5 62 36C62 43.5 55.51 48 49.89 50.92C53.2507 45.6521 55.0246 39.5285 55 33.28C55.4021 32.5771 55.9853 31.9949 56.6888 31.5939C57.3923 31.1929 58.1904 30.9878 59 31V31ZM7.00004 33V27H21V35C20.804 35.0015 20.6127 35.0606 20.45 35.17C17.26 37.29 17 37.3 17 38V47C17 47.2652 17.1054 47.5196 17.2929 47.7071C17.4805 47.8946 17.7348 48 18 48H26C26.2653 48 26.5196 47.8946 26.7071 47.7071C26.8947 47.5196 27 47.2652 27 47C27 37.51 27.19 37.59 26.55 37.17C23.77 35.31 23.48 35 23 35V27H53V33C53.0643 37.5981 52.0779 42.1503 50.1162 46.3094C48.1545 50.4686 45.2691 54.125 41.68 57H18.32C14.731 54.125 11.8456 50.4686 9.88388 46.3094C7.92214 42.1503 6.9358 37.5981 7.00004 33V33ZM21.3 37H22.7L25 38.54V46H19V38.54L21.3 37ZM45.87 60C45.18 60.09 45.07 60.61 44.38 62H17.62L16.89 60.55C16.57 59.9 16.6 60.07 8.57004 59C63.59 59 56.76 58.56 45.87 60Z" fill="#FF0000"/>
<path d="M28.7901 19.5601C28.9471 19.7572 29.1728 19.8879 29.422 19.9258C29.6712 19.9637 29.9255 19.9061 30.134 19.7646C30.3426 19.623 30.49 19.4079 30.5467 19.1623C30.6035 18.9167 30.5654 18.6588 30.4401 18.4401C27.8801 14.6601 29.1801 12.9601 30.8401 10.8001C32.6201 8.48005 34.8401 5.59005 30.3801 0.350052C30.2077 0.148488 29.9623 0.0236608 29.6979 0.00303176C29.4335 -0.0175972 29.1717 0.0676616 28.9701 0.240052C28.7685 0.412443 28.6437 0.657844 28.6231 0.922271C28.6025 1.1867 28.6877 1.44849 28.8601 1.65005C32.2601 5.65005 31.0001 7.30005 29.2501 9.58005C27.5001 11.8601 25.4101 14.5901 28.7901 19.5601Z" fill="#FF0000"/>
<path d="M39.7901 22.5601C39.9471 22.7572 40.1728 22.8879 40.422 22.9258C40.6712 22.9637 40.9255 22.9061 41.134 22.7646C41.3426 22.623 41.49 22.4079 41.5467 22.1623C41.6035 21.9167 41.5654 21.6588 41.4401 21.4401C38.8801 17.6601 40.1801 15.9601 41.8401 13.8001C43.6201 11.4801 45.8401 8.59005 41.3801 3.35005C41.2077 3.14849 40.9623 3.02366 40.6979 3.00303C40.4335 2.9824 40.1717 3.06766 39.9701 3.24005C39.7685 3.41244 39.6437 3.65784 39.6231 3.92227C39.6024 4.1867 39.6877 4.44849 39.8601 4.65005C43.2601 8.65005 42.0001 10.3001 40.2501 12.5801C38.5001 14.8601 36.4101 17.5901 39.7901 22.5601Z" fill="#FF0000"/>
<path d="M17.7901 22.56C17.9471 22.7572 18.1728 22.8879 18.422 22.9258C18.6712 22.9637 18.9255 22.9061 19.134 22.7646C19.3426 22.623 19.49 22.4079 19.5467 22.1623C19.6035 21.9167 19.5654 21.6588 19.4401 21.4401C16.8801 17.6601 18.1801 15.96 19.8401 13.8C21.6201 11.48 23.8401 8.59005 19.3801 3.35005C19.2947 3.25025 19.1906 3.16823 19.0735 3.10869C18.9564 3.04915 18.8288 3.01324 18.6979 3.00303C18.567 2.99282 18.4353 3.00849 18.3104 3.04916C18.1855 3.08983 18.0699 3.15469 17.9701 3.24005C17.8703 3.32541 17.7883 3.42959 17.7287 3.54665C17.6692 3.6637 17.6333 3.79134 17.6231 3.92227C17.6129 4.0532 17.6285 4.18486 17.6692 4.30973C17.7099 4.43461 17.7747 4.55025 17.8601 4.65005C21.2601 8.65005 20.0001 10.3 18.2501 12.58C16.5001 14.86 14.4101 17.59 17.7901 22.56Z" fill="#FF0000"/>
</g>
<defs>
<clipPath id="clip0_510_12603">
<rect width="64" height="64" fill="white"/>
</clipPath>
</defs>
</svg>
