<svg width="64" height="64" viewBox="0 0 64 64" fill="none" xmlns="http://www.w3.org/2000/svg">
<g clip-path="url(#clip0_510_12609)">
<path d="M25 19.36V6C25.2652 6 25.5196 5.89464 25.7071 5.70711C25.8947 5.51957 26 5.26522 26 5C26 4.73478 25.8947 4.48043 25.7071 4.29289C25.5196 4.10536 25.2652 4 25 4V1C25 0.734784 24.8947 0.48043 24.7071 0.292893C24.5196 0.105357 24.2652 0 24 0L16 0C15.7348 0 15.4804 0.105357 15.2929 0.292893C15.1054 0.48043 15 0.734784 15 1V4C14.7348 4 14.4804 4.10536 14.2929 4.29289C14.1054 4.48043 14 4.73478 14 5C14 5.26522 14.1054 5.51957 14.2929 5.70711C14.4804 5.89464 14.7348 6 15 6V19.36C12.8969 20.3944 11.1261 21.9979 9.88868 23.9883C8.65129 25.9787 7.99696 28.2763 8.00001 30.62V63C8.00001 63.2652 8.10537 63.5196 8.2929 63.7071C8.48044 63.8946 8.73479 64 9.00001 64H31C31.2652 64 31.5196 63.8946 31.7071 63.7071C31.8947 63.5196 32 63.2652 32 63V30.62C32.0031 28.2763 31.3487 25.9787 30.1113 23.9883C28.8739 21.9979 27.1031 20.3944 25 19.36ZM17 2H23V4H17V2ZM23 6V13H17V6H23ZM30 57H10V35H30V57ZM10 62V59H30V62H10ZM30 33H10V30.62C9.99778 28.555 10.6022 26.5348 11.7382 24.8103C12.8742 23.0859 14.4918 21.7331 16.39 20.92C17.23 20.56 17 20.09 17 15H23C23 20.25 22.8 20.57 23.61 20.92C25.5082 21.7331 27.1258 23.0859 28.2618 24.8103C29.3978 26.5348 30.0022 28.555 30 30.62V33Z" fill="#FF0000"/>
<path d="M52 62H49C48.4695 62 47.9608 61.7893 47.5858 61.4143C47.2107 61.0392 47 60.5305 47 60V48.86C49.584 48.0815 51.8512 46.4969 53.4705 44.3379C55.0897 42.1789 55.976 39.5587 56 36.86C56.0732 33.7227 55.6168 30.5956 54.65 27.61C54.5768 27.4205 54.4477 27.2578 54.2798 27.1434C54.1119 27.0291 53.9131 26.9686 53.71 26.97C37.18 26.97 37.71 26.71 37.35 27.61C36.3798 30.6051 35.9233 33.7427 36 36.89C36.0239 39.5887 36.9102 42.2089 38.5295 44.3679C40.1487 46.5269 42.416 48.1115 45 48.89V60C45 60.5305 44.7893 61.0392 44.4142 61.4143C44.0391 61.7893 43.5304 62 43 62H40C39.7347 62 39.4804 62.1054 39.2929 62.2929C39.1053 62.4805 39 62.7348 39 63C39 63.2653 39.1053 63.5196 39.2929 63.7072C39.4804 63.8947 39.7347 64 40 64H52C52.2652 64 52.5195 63.8947 52.7071 63.7072C52.8946 63.5196 53 63.2653 53 63C53 62.7348 52.8946 62.4805 52.7071 62.2929C52.5195 62.1054 52.2652 62 52 62ZM38 36.89C37.9708 34.2267 38.3072 31.5719 39 29H53C53.6927 31.5719 54.0292 34.2267 54 36.89C54 43.41 48 47 46 47C44 47 38 43.41 38 36.89Z" fill="#FF0000"/>
</g>
<defs>
<clipPath id="clip0_510_12609">
<rect width="64" height="64" fill="white"/>
</clipPath>
</defs>
</svg>
